<?xml version="1.0" encoding="utf-8" standalone="no"?>
<!DOCTYPE svg PUBLIC "-//W3C//DTD SVG 1.1//EN"
  "http://www.w3.org/Graphics/SVG/1.1/DTD/svg11.dtd">
<svg xmlns:xlink="http://www.w3.org/1999/xlink" width="628.2pt" height="239.072438pt" viewBox="0 0 628.2 239.072438" xmlns="http://www.w3.org/2000/svg" version="1.1">
 <metadata>
  <rdf:RDF xmlns:dc="http://purl.org/dc/elements/1.1/" xmlns:cc="http://creativecommons.org/ns#" xmlns:rdf="http://www.w3.org/1999/02/22-rdf-syntax-ns#">
   <cc:Work>
    <dc:type rdf:resource="http://purl.org/dc/dcmitype/StillImage"/>
    <dc:date>2026-06-21T21:08:23.480798</dc:date>
    <dc:format>image/svg+xml</dc:format>
    <dc:creator>
     <cc:Agent>
      <dc:title>Matplotlib v3.9.4, https://matplotlib.org/</dc:title>
     </cc:Agent>
    </dc:creator>
   </cc:Work>
  </rdf:RDF>
 </metadata>
 <defs>
  <style type="text/css">*{stroke-linejoin: round; stroke-linecap: butt}</style>
 </defs>
 <g id="figure_1">
  <g id="patch_1">
   <path d="M 0 239.072438 
L 628.2 239.072438 
L 628.2 0 
L 0 0 
z
" style="fill: #ffffff"/>
  </g>
  <g id="axes_1">
   <g id="patch_2">
    <path d="M 7.2 132.080438 
L 249 132.080438 
L 249 82.184438 
L 7.2 82.184438 
z
" clip-path="url(#p28a5fb26d4)" style="fill: #ffffff; stroke: #cccccc; stroke-linejoin: miter"/>
   </g>
   <g id="patch_3">
    <path d="M 249 132.080438 
L 342 132.080438 
L 342 82.184438 
L 249 82.184438 
z
" clip-path="url(#p28a5fb26d4)" style="fill: #a5d6a7; stroke: #ffffff; stroke-width: 2; stroke-linejoin: miter"/>
   </g>
   <g id="patch_4">
    <path d="M 342 132.080438 
L 435 132.080438 
L 435 82.184438 
L 342 82.184438 
z
" clip-path="url(#p28a5fb26d4)" style="fill: #a5d6a7; stroke: #ffffff; stroke-width: 2; stroke-linejoin: miter"/>
   </g>
   <g id="patch_5">
    <path d="M 435 132.080438 
L 528 132.080438 
L 528 82.184438 
L 435 82.184438 
z
" clip-path="url(#p28a5fb26d4)" style="fill: #a5d6a7; stroke: #ffffff; stroke-width: 2; stroke-linejoin: miter"/>
   </g>
   <g id="patch_6">
    <path d="M 528 132.080438 
L 621 132.080438 
L 621 82.184438 
L 528 82.184438 
z
" clip-path="url(#p28a5fb26d4)" style="fill: #a5d6a7; stroke: #ffffff; stroke-width: 2; stroke-linejoin: miter"/>
   </g>
   <g id="patch_7">
    <path d="M 7.2 181.976438 
L 249 181.976438 
L 249 132.080438 
L 7.2 132.080438 
z
" clip-path="url(#p28a5fb26d4)" style="fill: #ffffff; stroke: #cccccc; stroke-linejoin: miter"/>
   </g>
   <g id="patch_8">
    <path d="M 249 181.976438 
L 342 181.976438 
L 342 132.080438 
L 249 132.080438 
z
" clip-path="url(#p28a5fb26d4)" style="fill: #a5d6a7; stroke: #ffffff; stroke-width: 2; stroke-linejoin: miter"/>
   </g>
   <g id="patch_9">
    <path d="M 342 181.976438 
L 435 181.976438 
L 435 132.080438 
L 342 132.080438 
z
" clip-path="url(#p28a5fb26d4)" style="fill: #a5d6a7; stroke: #ffffff; stroke-width: 2; stroke-linejoin: miter"/>
   </g>
   <g id="patch_10">
    <path d="M 435 181.976438 
L 528 181.976438 
L 528 132.080438 
L 435 132.080438 
z
" clip-path="url(#p28a5fb26d4)" style="fill: #a5d6a7; stroke: #ffffff; stroke-width: 2; stroke-linejoin: miter"/>
   </g>
   <g id="patch_11">
    <path d="M 528 181.976438 
L 621 181.976438 
L 621 132.080438 
L 528 132.080438 
z
" clip-path="url(#p28a5fb26d4)" style="fill: #a5d6a7; stroke: #ffffff; stroke-width: 2; stroke-linejoin: miter"/>
   </g>
   <g id="patch_12">
    <path d="M 7.2 231.872437 
L 249 231.872437 
L 249 181.976437 
L 7.2 181.976437 
z
" clip-path="url(#p28a5fb26d4)" style="fill: #ffffff; stroke: #cccccc; stroke-linejoin: miter"/>
   </g>
   <g id="patch_13">
    <path d="M 249 231.872437 
L 342 231.872437 
L 342 181.976437 
L 249 181.976437 
z
" clip-path="url(#p28a5fb26d4)" style="fill: #ef9a9a; stroke: #ffffff; stroke-width: 2; stroke-linejoin: miter"/>
   </g>
   <g id="patch_14">
    <path d="M 342 231.872437 
L 435 231.872437 
L 435 181.976437 
L 342 181.976437 
z
" clip-path="url(#p28a5fb26d4)" style="fill: #ef9a9a; stroke: #ffffff; stroke-width: 2; stroke-linejoin: miter"/>
   </g>
   <g id="patch_15">
    <path d="M 435 231.872437 
L 528 231.872437 
L 528 181.976437 
L 435 181.976437 
z
" clip-path="url(#p28a5fb26d4)" style="fill: #ef9a9a; stroke: #ffffff; stroke-width: 2; stroke-linejoin: miter"/>
   </g>
   <g id="patch_16">
    <path d="M 528 231.872437 
L 621 231.872437 
L 621 181.976437 
L 528 181.976437 
z
" clip-path="url(#p28a5fb26d4)" style="fill: #ef9a9a; stroke: #ffffff; stroke-width: 2; stroke-linejoin: miter"/>
   </g>
   <g id="text_1">
    <!-- 設定グループ -->
    <g transform="translate(92.1 60.73425) scale(0.12 -0.12)">
     <defs>
      <path id="HiraginoSans-W7-8a2d" d="M 2746 1990 
C 2899 2010 3040 2016 3258 2016 
L 3526 2016 
L 2867 1664 
C 2938 1587 2938 1587 3360 1056 
C 3450 947 3539 845 3680 710 
C 3354 506 2989 358 2547 237 
L 2547 1114 
C 2547 1344 2547 1434 2560 1562 
C 2458 1542 2387 1542 2150 1542 
L 928 1542 
C 717 1542 595 1549 442 1562 
C 461 1389 467 1274 467 1069 
L 467 90 
C 467 -128 454 -333 435 -544 
L 1210 -544 
L 1210 -256 
L 1818 -256 
L 1818 -454 
L 2566 -454 
C 2554 -307 2547 -250 2547 13 
C 2682 -186 2758 -320 2861 -557 
C 3462 -358 3885 -141 4326 179 
C 4736 -102 5171 -301 5920 -538 
C 6022 -230 6118 -26 6298 282 
C 5715 403 5331 538 4941 742 
C 5280 1133 5510 1504 5773 2112 
C 5862 2310 5862 2310 5901 2387 
L 5504 2771 
C 5421 2758 5299 2752 5069 2752 
L 3213 2752 
C 3360 2893 3437 2989 3539 3149 
C 3782 3533 3872 3885 3898 4486 
L 4467 4486 
L 4467 3462 
C 4467 3091 4595 3021 5280 3021 
C 5798 3021 5958 3059 6074 3219 
C 6189 3373 6234 3610 6272 4211 
C 6016 4288 5850 4352 5626 4474 
C 5600 3725 5600 3725 5382 3725 
C 5254 3725 5216 3744 5216 3821 
L 5216 4749 
C 5216 4966 5222 5114 5235 5254 
C 5069 5235 4928 5229 4704 5229 
L 3622 5229 
C 3418 5229 3277 5235 3117 5254 
C 3142 5114 3149 5011 3149 4864 
C 3149 4006 3002 3616 2528 3251 
L 2528 3379 
C 2419 3360 2349 3360 2138 3360 
L 883 3360 
C 685 3360 602 3366 480 3379 
L 480 2714 
C 595 2726 691 2733 883 2733 
L 2138 2733 
C 2330 2733 2394 2733 2528 2714 
L 2528 3232 
C 2726 3110 2944 2938 3136 2752 
C 2950 2752 2880 2758 2746 2778 
L 2746 1990 
z
M 4864 2016 
C 4666 1632 4531 1440 4288 1190 
C 3987 1440 3840 1626 3603 2016 
L 4864 2016 
z
M 1203 922 
L 1818 922 
L 1818 397 
L 1203 397 
L 1203 922 
z
M 467 4614 
C 621 4627 781 4634 1024 4634 
L 1984 4634 
C 2240 4634 2362 4627 2541 4614 
L 2541 5286 
C 2362 5267 2259 5261 1984 5261 
L 1024 5261 
C 749 5261 646 5267 467 5286 
L 467 4614 
z
M 269 3622 
C 416 3642 557 3648 787 3648 
L 2182 3648 
C 2477 3648 2522 3648 2675 3629 
L 2675 4378 
C 2541 4358 2426 4352 2157 4352 
L 787 4352 
C 544 4352 422 4358 269 4384 
L 269 3622 
z
M 480 1805 
C 608 1824 678 1824 877 1824 
L 2125 1824 
C 2336 1824 2394 1824 2528 1805 
L 2528 2470 
C 2419 2458 2342 2451 2138 2451 
L 883 2451 
C 685 2451 602 2458 480 2470 
L 480 1805 
z
" transform="scale(0.015625)"/>
      <path id="HiraginoSans-W7-5b9a" d="M 2893 608 
C 2490 787 2266 986 2016 1402 
C 2112 1715 2195 2010 2272 2330 
L 1434 2483 
C 1395 2086 1210 1498 998 1101 
C 781 698 563 403 218 70 
C 512 -141 666 -294 870 -563 
C 1235 -173 1453 147 1696 627 
C 1971 256 2291 13 2714 -160 
C 3149 -333 3795 -416 4698 -416 
C 5043 -416 5427 -410 5978 -397 
C 6016 -51 6061 134 6176 461 
C 5472 403 5062 384 4640 384 
C 4256 384 3987 397 3693 429 
L 3693 1376 
L 4870 1376 
C 5171 1376 5325 1370 5517 1344 
L 5517 2144 
C 5338 2118 5190 2112 4870 2112 
L 3693 2112 
L 3693 2816 
L 4646 2816 
C 4954 2816 5126 2810 5312 2784 
L 5312 3264 
L 6029 3264 
C 6003 3443 5997 3603 5997 3795 
L 5997 4346 
C 5997 4531 6003 4666 6022 4832 
C 5773 4813 5542 4806 5286 4806 
L 3603 4806 
L 3603 4998 
C 3603 5165 3610 5261 3635 5402 
L 2714 5402 
C 2739 5261 2746 5158 2746 4992 
L 2746 4806 
L 1126 4806 
C 870 4806 640 4813 390 4832 
C 410 4672 416 4512 416 4346 
L 416 3802 
C 416 3565 410 3424 384 3264 
L 1114 3264 
L 1114 2784 
C 1293 2810 1485 2816 1779 2816 
L 2893 2816 
L 2893 608 
z
M 5203 3571 
C 5043 3558 4883 3552 4646 3552 
L 1779 3552 
C 1536 3552 1376 3558 1222 3571 
L 1222 4051 
L 5203 4051 
L 5203 3571 
z
" transform="scale(0.015625)"/>
      <path id="HiraginoSans-W7-30b0" d="M 5222 4365 
L 5510 4461 
C 5370 4813 5274 4992 5056 5286 
L 4506 5107 
C 4672 4870 4768 4691 4877 4435 
C 4781 4429 4717 4422 4646 4422 
L 2982 4403 
C 3053 4544 3078 4595 3136 4723 
C 3226 4934 3290 5062 3322 5107 
L 2291 5306 
C 2259 5075 2170 4832 1984 4493 
C 1562 3686 1056 3110 307 2592 
C 685 2362 800 2266 1069 1939 
C 1658 2400 2157 2944 2547 3565 
L 4365 3590 
C 3840 1978 2842 966 1114 301 
C 1453 -6 1562 -141 1773 -525 
C 2790 -58 3520 454 4096 1114 
C 4653 1754 5101 2611 5408 3616 
C 5485 3866 5504 3923 5568 4019 
L 5222 4365 
z
M 5306 5318 
C 5472 5075 5619 4800 5747 4480 
L 6291 4685 
C 6182 4973 6042 5229 5837 5498 
L 5306 5318 
z
" transform="scale(0.015625)"/>
      <path id="HiraginoSans-W7-30eb" d="M 1376 5069 
C 1395 4902 1402 4781 1402 4422 
C 1402 4077 1389 3642 1376 3328 
C 1338 2650 1280 2278 1146 1856 
C 954 1235 678 826 186 390 
C 531 147 653 32 960 -358 
C 1376 64 1613 397 1837 864 
C 2176 1562 2298 2227 2342 3558 
C 2387 4819 2387 4819 2413 5011 
L 1376 5069 
z
M 3130 5114 
C 3149 4954 3155 4806 3155 4525 
C 3155 4467 3155 4410 3155 4346 
L 3130 749 
C 3123 442 3110 314 3066 134 
L 3539 -371 
C 3622 -320 3674 -301 3834 -243 
C 4486 0 4813 186 5184 506 
C 5638 902 5978 1395 6246 2061 
C 5894 2342 5792 2445 5530 2778 
C 5395 2323 5222 1978 4960 1645 
C 4717 1338 4480 1146 4083 928 
L 4115 4333 
C 4122 4768 4128 4845 4166 5107 
L 3130 5114 
z
" transform="scale(0.015625)"/>
      <path id="HiraginoSans-W7-30fc" d="M 410 1914 
C 659 1939 1024 1952 1581 1952 
L 4813 1952 
C 5312 1952 5734 1939 5990 1920 
L 5990 2970 
C 5696 2931 5466 2925 4819 2925 
L 1581 2925 
C 928 2925 698 2938 410 2976 
L 410 1914 
z
" transform="scale(0.015625)"/>
      <path id="HiraginoSans-W7-30d7" d="M 1638 4704 
C 1107 4704 909 4710 634 4749 
L 634 3770 
C 896 3802 1101 3808 1626 3808 
L 4429 3808 
C 4134 2643 3507 1766 2522 1139 
C 2054 845 1702 678 1146 506 
C 1510 141 1613 0 1824 -410 
C 2925 83 3648 582 4237 1274 
C 4826 1958 5235 2790 5504 3866 
L 5530 3955 
C 5536 3955 5549 3955 5555 3955 
C 5946 3955 6259 4275 6259 4666 
C 6259 5056 5946 5376 5549 5376 
C 5178 5376 4870 5088 4845 4717 
C 4723 4704 4646 4704 4570 4704 
L 1638 4704 
z
M 5549 4979 
C 5722 4979 5862 4838 5862 4666 
C 5862 4493 5722 4352 5549 4352 
C 5376 4352 5235 4493 5235 4666 
C 5235 4838 5376 4979 5549 4979 
z
" transform="scale(0.015625)"/>
     </defs>
     <use xlink:href="#HiraginoSans-W7-8a2d"/>
     <use xlink:href="#HiraginoSans-W7-5b9a" x="99.999985"/>
     <use xlink:href="#HiraginoSans-W7-30b0" x="199.999969"/>
     <use xlink:href="#HiraginoSans-W7-30eb" x="299.999954"/>
     <use xlink:href="#HiraginoSans-W7-30fc" x="399.999939"/>
     <use xlink:href="#HiraginoSans-W7-30d7" x="499.999924"/>
    </g>
   </g>
   <g id="text_2">
    <!-- ①速い -->
    <g transform="translate(277.5 60.73425) scale(0.12 -0.12)">
     <defs>
      <path id="HiraginoSans-W7-2460" d="M 2010 3686 
C 2240 3712 2394 3725 2618 3725 
L 2835 3725 
L 2835 979 
C 2835 666 2822 454 2797 224 
L 3834 224 
C 3808 467 3795 653 3795 979 
L 3795 3699 
C 3795 4013 3808 4314 3834 4557 
C 3642 4538 3533 4531 3219 4531 
L 2611 4531 
C 2509 4531 2451 4538 2438 4538 
C 2330 4538 2330 4538 2298 4538 
C 2195 4544 2125 4550 2010 4570 
L 2010 3686 
z
M 6266 2438 
C 6266 4128 4890 5504 3200 5504 
C 1504 5504 128 4128 128 2438 
C 128 742 1504 -634 3200 -634 
C 4896 -634 6266 742 6266 2438 
z
M 6016 2438 
C 6016 883 4749 -384 3200 -384 
C 1638 -384 378 883 378 2438 
C 378 3994 1638 5254 3200 5254 
C 4755 5254 6016 3994 6016 2438 
z
" transform="scale(0.015625)"/>
      <path id="HiraginoSans-W7-901f" d="M 1958 4256 
C 1587 4704 1331 4966 870 5376 
L 256 4794 
C 730 4365 1030 4032 1376 3565 
L 1997 4179 
C 2144 4198 2310 4205 2566 4205 
L 3571 4205 
L 3571 3904 
L 2746 3904 
C 2451 3904 2304 3910 2106 3930 
C 2125 3725 2131 3603 2131 3347 
L 2131 2707 
C 2131 2458 2125 2336 2106 2131 
C 2291 2150 2445 2157 2739 2157 
L 3219 2157 
C 2778 1773 2445 1568 1811 1312 
C 2029 1062 2125 922 2285 621 
C 2918 986 3251 1248 3584 1632 
C 3571 1466 3571 1344 3571 1261 
L 3571 883 
C 3571 717 3565 602 3539 480 
L 4371 480 
C 4346 602 4339 710 4339 877 
L 4339 1248 
C 4339 1427 4333 1542 4320 1645 
C 4595 1357 4755 1222 5056 1018 
C 5344 826 5523 723 5875 570 
C 6003 909 6067 1037 6259 1338 
C 5536 1568 5229 1734 4736 2157 
L 5267 2157 
C 5574 2157 5722 2150 5894 2131 
C 5875 2310 5869 2458 5869 2714 
L 5869 3360 
C 5869 3610 5875 3750 5894 3930 
C 5696 3910 5555 3904 5280 3904 
L 4339 3904 
L 4339 4205 
L 5517 4205 
C 5792 4205 5914 4198 6112 4173 
L 6112 4966 
C 5894 4934 5741 4928 5370 4928 
L 4339 4928 
L 4339 5088 
C 4339 5210 4346 5306 4371 5414 
L 3539 5414 
C 3558 5325 3571 5178 3571 5043 
L 3571 4928 
L 2707 4928 
C 2355 4928 2176 4934 1958 4966 
L 1958 4256 
z
M 3571 3258 
L 3571 2803 
L 2906 2803 
L 2906 3258 
L 3571 3258 
z
M 4339 3258 
L 5069 3258 
L 5069 2803 
L 4339 2803 
L 4339 3258 
z
M 269 2189 
C 429 2214 525 2221 685 2221 
L 986 2221 
L 986 915 
C 698 678 339 442 122 358 
L 486 -512 
C 570 -448 576 -448 595 -435 
C 1005 -147 1178 -6 1408 211 
C 1901 -371 2221 -454 4038 -454 
C 4691 -454 5523 -442 6086 -416 
C 6144 -26 6170 90 6304 474 
C 5587 384 4640 339 3277 339 
C 2406 339 2118 448 1792 896 
L 1792 2298 
C 1792 2656 1798 2816 1818 3008 
C 1664 2989 1517 2982 1325 2982 
L 787 2982 
C 550 2982 448 2989 269 3014 
L 269 2189 
z
" transform="scale(0.015625)"/>
      <path id="HiraginoSans-W7-3044" d="M 595 4781 
C 614 4634 614 4582 621 4352 
C 659 2413 749 1600 1011 947 
C 1280 282 1658 -58 2125 -58 
C 2714 -58 3130 512 3469 1766 
C 3104 2022 2976 2144 2714 2458 
C 2637 2054 2528 1670 2374 1318 
C 2304 1146 2227 1056 2144 1056 
C 1818 1056 1581 2189 1581 3718 
C 1581 4160 1600 4525 1638 4774 
L 595 4781 
z
M 3808 4134 
C 4205 3642 4512 3098 4730 2496 
C 4954 1888 5094 1197 5120 582 
L 6086 941 
C 5914 2394 5446 3533 4627 4518 
L 3808 4134 
z
" transform="scale(0.015625)"/>
     </defs>
     <use xlink:href="#HiraginoSans-W7-2460"/>
     <use xlink:href="#HiraginoSans-W7-901f" x="99.999985"/>
     <use xlink:href="#HiraginoSans-W7-3044" x="199.999969"/>
    </g>
   </g>
   <g id="text_3">
    <!-- ②壊れない -->
    <g transform="translate(358.5 60.73425) scale(0.12 -0.12)">
     <defs>
      <path id="HiraginoSans-W7-2461" d="M 4051 301 
C 4333 301 4582 288 4890 262 
L 4890 1165 
C 4659 1133 4454 1126 4102 1126 
L 2810 1126 
C 2931 1459 3200 1715 3853 2125 
C 3981 2208 4166 2330 4320 2451 
C 4653 2694 4832 3046 4832 3456 
C 4832 4224 4205 4704 3213 4704 
C 2630 4704 2170 4525 1882 4186 
C 1677 3949 1587 3731 1498 3277 
L 2477 3181 
C 2509 3418 2547 3520 2624 3629 
C 2746 3814 2944 3904 3213 3904 
C 3603 3904 3840 3725 3840 3424 
C 3840 3277 3789 3162 3661 3040 
C 3578 2963 3450 2867 3168 2669 
C 2637 2310 2515 2208 2266 1952 
C 1888 1562 1734 1280 1562 704 
C 1523 570 1510 499 1485 275 
C 1728 301 1818 301 2246 301 
L 4051 301 
z
M 6266 2438 
C 6266 4128 4890 5504 3200 5504 
C 1504 5504 128 4128 128 2438 
C 128 742 1504 -634 3200 -634 
C 4896 -634 6266 742 6266 2438 
z
M 6016 2438 
C 6016 883 4749 -384 3200 -384 
C 1638 -384 378 883 378 2438 
C 378 3994 1638 5254 3200 5254 
C 4755 5254 6016 3994 6016 2438 
z
" transform="scale(0.015625)"/>
      <path id="HiraginoSans-W7-58ca" d="M 2906 1517 
C 2445 1126 2054 928 1331 717 
C 1549 467 1632 333 1766 51 
C 2451 384 2624 480 2957 749 
L 2957 218 
C 2618 166 2451 154 2253 154 
L 2368 -595 
C 2438 -582 2470 -576 2541 -563 
C 3379 -435 3776 -358 4467 -173 
L 4467 461 
C 4864 -6 5274 -307 5875 -576 
C 6022 -211 6112 -45 6278 211 
C 5926 320 5734 410 5453 595 
C 5645 749 5677 768 6080 1139 
L 5594 1517 
C 5818 1510 5990 1498 6157 1478 
L 6157 2221 
C 5965 2195 5779 2189 5421 2189 
L 4346 2189 
L 4346 2483 
L 5453 2483 
C 5638 2483 5805 2477 5946 2464 
C 5926 2605 5920 2733 5920 2963 
L 5920 3610 
C 5920 3802 5926 3936 5946 4077 
C 5786 4058 5632 4051 5370 4051 
L 4352 4051 
L 4352 4333 
L 5434 4333 
C 5754 4333 5933 4326 6131 4301 
L 6131 5030 
C 5933 5011 5715 4998 5427 4998 
L 4352 4998 
L 4352 5062 
C 4352 5197 4365 5299 4384 5395 
L 3539 5395 
C 3565 5306 3578 5184 3578 5062 
L 3578 4998 
L 2611 4998 
C 2298 4998 2054 5011 1901 5030 
L 1901 4301 
C 2093 4326 2272 4333 2598 4333 
L 3578 4333 
L 3578 4051 
L 2605 4051 
C 2419 4051 2227 4058 2099 4070 
C 2112 3923 2118 3834 2118 3642 
L 2118 2918 
C 2118 2701 2118 2611 2106 2464 
C 2278 2477 2400 2483 2579 2483 
L 3558 2483 
L 3558 2189 
L 2522 2189 
C 2253 2189 2010 2202 1869 2221 
L 1869 1907 
C 1773 1856 1677 1811 1536 1741 
L 1536 3091 
C 1773 3091 1843 3091 1946 3072 
L 1946 3859 
C 1837 3840 1760 3840 1536 3840 
L 1536 4614 
C 1536 4954 1549 5139 1574 5338 
L 723 5338 
C 749 5139 762 4934 762 4621 
L 762 3840 
L 723 3840 
C 531 3840 371 3846 230 3866 
L 230 3066 
C 397 3085 525 3091 717 3091 
L 762 3091 
L 762 1414 
C 461 1299 320 1254 179 1222 
L 339 339 
C 461 410 595 474 787 563 
C 1389 838 1594 941 1997 1171 
L 1997 1498 
C 2144 1510 2330 1517 2496 1517 
L 2906 1517 
z
M 3866 1517 
C 4019 1114 4166 838 4422 518 
C 3968 397 3968 397 3674 339 
L 3674 1408 
C 3699 1440 3731 1472 3770 1517 
L 3866 1517 
z
M 5453 1517 
C 5344 1370 5158 1197 4934 1043 
C 4800 1203 4742 1299 4634 1517 
L 5453 1517 
z
M 2816 3475 
L 3187 3475 
L 3187 3059 
L 2816 3059 
L 2816 3475 
z
M 3834 3475 
L 4198 3475 
L 4198 3059 
L 3834 3059 
L 3834 3475 
z
M 4832 3475 
L 5216 3475 
L 5216 3059 
L 4832 3059 
L 4832 3475 
z
" transform="scale(0.015625)"/>
      <path id="HiraginoSans-W7-308c" d="M 634 525 
C 685 602 704 627 781 717 
C 864 819 934 896 979 954 
C 1152 1152 1152 1152 1216 1229 
C 1293 1331 1293 1331 1331 1370 
C 1325 1024 1325 1005 1325 608 
C 1325 58 1312 -160 1280 -390 
L 2259 -390 
C 2227 -102 2214 486 2214 1370 
C 2214 1536 2214 1773 2227 2086 
C 2490 2400 2912 2778 3360 3104 
C 3629 3302 3885 3411 4064 3411 
C 4211 3411 4288 3334 4288 3200 
C 4288 3072 4250 2842 4166 2464 
C 3936 1446 3891 1165 3891 813 
C 3891 429 4000 173 4243 -13 
C 4397 -128 4614 -192 4845 -192 
C 5210 -192 5523 -45 5824 269 
C 6003 454 6074 557 6298 909 
C 6048 1267 5965 1421 5818 1805 
C 5734 1594 5587 1318 5440 1094 
C 5306 909 5152 787 5030 787 
C 4896 787 4819 883 4819 1043 
C 4819 1222 4877 1530 5088 2451 
C 5216 3002 5254 3226 5254 3443 
C 5254 3981 4870 4346 4307 4346 
C 3910 4346 3520 4186 2976 3795 
C 2733 3622 2413 3354 2221 3162 
C 2227 3283 2227 3290 2227 3322 
C 2227 3405 2227 3405 2227 3462 
C 2374 3667 2528 3840 2643 3923 
L 2278 4256 
C 2291 4621 2330 5069 2355 5235 
L 1389 5254 
C 1408 5107 1414 5037 1414 4870 
C 1414 4736 1408 4499 1395 4154 
C 1178 4141 787 4122 659 4122 
C 557 4122 486 4122 358 4134 
L 403 3277 
C 582 3302 838 3328 1370 3360 
C 1363 3232 1363 3187 1363 3110 
C 1357 2950 1357 2950 1350 2784 
C 1350 2707 1350 2624 1344 2522 
C 1261 2432 1261 2432 634 1805 
C 467 1638 358 1542 205 1427 
L 634 525 
z
" transform="scale(0.015625)"/>
      <path id="HiraginoSans-W7-306a" d="M 1862 5325 
C 1856 5050 1805 4736 1690 4256 
C 1568 4250 1446 4243 1408 4243 
C 1024 4243 742 4262 512 4307 
L 512 3437 
C 704 3437 730 3437 755 3437 
C 973 3424 973 3424 1043 3424 
C 1056 3424 1088 3424 1120 3424 
C 1274 3430 1274 3430 1466 3430 
C 1158 2458 723 1562 262 954 
L 1139 467 
C 1178 550 1178 550 1261 710 
C 1504 1171 1562 1286 1709 1600 
C 2003 2234 2157 2650 2406 3456 
C 2918 3501 3181 3526 3405 3558 
C 3507 3578 3533 3578 3603 3584 
L 3584 4467 
C 3354 4390 3034 4339 2618 4301 
C 2630 4365 2630 4365 2656 4461 
C 2701 4685 2733 4826 2746 4883 
C 2810 5165 2810 5165 2835 5229 
L 1862 5325 
z
M 6125 3712 
C 5542 4058 5030 4294 4262 4570 
L 3808 3827 
C 4550 3571 5133 3296 5715 2918 
L 6125 3712 
z
M 6086 806 
C 6035 845 6035 845 5978 890 
C 5869 979 5811 1024 5728 1082 
C 5414 1318 5165 1459 4762 1638 
C 4717 1990 4704 2214 4704 2502 
C 4704 2765 4717 2880 4787 3136 
L 3898 3181 
C 3859 2944 3846 2758 3846 2470 
C 3846 2285 3853 2106 3878 1850 
C 3706 1875 3597 1888 3411 1888 
C 3117 1888 2918 1862 2726 1792 
C 2221 1613 1914 1203 1914 717 
C 1914 32 2490 -422 3366 -422 
C 3891 -422 4326 -262 4550 13 
C 4704 205 4762 397 4768 698 
C 5120 486 5478 192 5677 -51 
L 6086 806 
z
M 3898 1037 
C 3904 1037 3910 915 3910 858 
C 3910 544 3725 384 3341 384 
C 3002 384 2803 525 2803 755 
C 2803 979 3040 1133 3392 1133 
C 3571 1133 3699 1107 3898 1037 
z
" transform="scale(0.015625)"/>
     </defs>
     <use xlink:href="#HiraginoSans-W7-2461"/>
     <use xlink:href="#HiraginoSans-W7-58ca" x="99.999985"/>
     <use xlink:href="#HiraginoSans-W7-308c" x="199.999969"/>
     <use xlink:href="#HiraginoSans-W7-306a" x="299.999954"/>
     <use xlink:href="#HiraginoSans-W7-3044" x="399.999939"/>
    </g>
   </g>
   <g id="text_4">
    <!-- ③使える音 -->
    <g transform="translate(451.5 60.73425) scale(0.12 -0.12)">
     <defs>
      <path id="HiraginoSans-W7-2462" d="M 1395 1370 
C 1498 1030 1568 883 1709 717 
C 2029 352 2509 173 3200 173 
C 4269 173 4915 640 4915 1421 
C 4915 1760 4794 2042 4563 2221 
C 4371 2374 4186 2438 3802 2490 
C 4122 2547 4262 2605 4422 2720 
C 4666 2899 4800 3181 4800 3533 
C 4800 3750 4755 3923 4659 4077 
C 4416 4467 3891 4691 3232 4691 
C 2592 4691 2118 4518 1811 4160 
C 1677 4000 1606 3866 1504 3552 
L 2528 3398 
C 2566 3565 2598 3635 2675 3718 
C 2790 3840 2970 3904 3194 3904 
C 3558 3904 3795 3706 3795 3405 
C 3795 3232 3718 3072 3584 2989 
C 3469 2912 3238 2867 2982 2867 
C 2835 2867 2618 2880 2483 2893 
L 2483 2080 
C 2707 2106 2906 2112 3136 2112 
C 3654 2112 3917 1920 3917 1542 
C 3917 1184 3635 954 3187 954 
C 2938 954 2733 1030 2579 1178 
C 2477 1280 2438 1363 2400 1549 
L 1395 1370 
z
M 6266 2438 
C 6266 4128 4890 5504 3200 5504 
C 1504 5504 128 4128 128 2438 
C 128 742 1504 -634 3200 -634 
C 4896 -634 6266 742 6266 2438 
z
M 6016 2438 
C 6016 883 4749 -384 3200 -384 
C 1638 -384 378 883 378 2438 
C 378 3994 1638 5254 3200 5254 
C 4755 5254 6016 3994 6016 2438 
z
" transform="scale(0.015625)"/>
      <path id="HiraginoSans-W7-4f7f" d="M 3590 4096 
L 3590 3712 
L 2624 3712 
C 2317 3712 2208 3718 2022 3738 
C 2042 3565 2048 3443 2048 3149 
L 2048 2253 
C 2048 1997 2042 1850 2022 1670 
C 2176 1690 2330 1696 2522 1696 
L 3450 1696 
C 3392 1459 3354 1363 3251 1197 
C 3078 1357 2950 1510 2886 1619 
L 2867 1664 
L 2176 1344 
C 2221 1293 2246 1267 2285 1222 
C 2515 941 2605 845 2771 685 
C 2470 474 2131 326 1600 186 
C 1766 -32 1875 -218 2035 -538 
C 2669 -333 3046 -128 3405 198 
C 4090 -218 4819 -422 5939 -525 
C 6010 -237 6106 32 6253 326 
C 5146 358 4518 480 3885 781 
C 4051 1062 4154 1331 4230 1696 
L 5286 1696 
C 5574 1696 5722 1690 5907 1670 
C 5888 1837 5882 1958 5882 2278 
L 5882 3136 
C 5882 3405 5888 3565 5907 3738 
C 5728 3718 5587 3712 5299 3712 
L 4365 3712 
C 4365 3859 4365 3987 4365 4096 
L 5504 4096 
C 5760 4096 5971 4090 6163 4070 
L 6163 4877 
C 5920 4851 5702 4838 5395 4838 
L 4371 4838 
C 4371 5146 4371 5261 4397 5434 
L 3552 5434 
C 3578 5248 3584 5190 3590 4838 
L 2669 4838 
C 2426 4838 2150 4851 1978 4870 
C 1990 4902 1997 4941 2010 4979 
C 2054 5114 2061 5133 2106 5274 
L 1242 5472 
C 1203 5197 1133 4947 1011 4608 
C 781 3968 480 3443 102 3034 
C 250 2694 326 2458 410 2080 
C 582 2298 678 2432 794 2637 
C 781 2157 781 2086 781 1952 
L 781 179 
C 781 -134 774 -288 742 -563 
L 1626 -563 
C 1600 -294 1587 -96 1587 173 
L 1587 3866 
C 1760 4250 1850 4474 1946 4774 
L 1946 4070 
C 2163 4090 2310 4096 2573 4096 
L 3590 4096 
z
M 3578 2995 
C 3571 2752 3565 2592 3546 2406 
L 2842 2406 
L 2842 2995 
L 3578 2995 
z
M 5082 2995 
L 5082 2406 
L 4333 2406 
C 4339 2579 4352 2752 4358 2995 
L 5082 2995 
z
" transform="scale(0.015625)"/>
      <path id="HiraginoSans-W7-3048" d="M 1587 4429 
C 2464 4218 3014 4147 4378 4077 
L 4512 4934 
C 3450 4947 2611 5050 1850 5267 
L 1587 4429 
z
M 1094 2656 
C 1286 2688 1510 2714 1837 2739 
C 2669 2810 2963 2842 3264 2899 
C 3078 2733 2995 2656 2778 2445 
C 1587 1318 813 640 403 365 
L 1114 -442 
C 1344 -160 1658 179 1978 493 
C 2496 998 2778 1178 3059 1178 
C 3174 1178 3270 1126 3315 1050 
C 3347 979 3360 890 3379 659 
C 3398 262 3424 141 3520 -6 
C 3693 -288 4000 -410 4550 -410 
C 4864 -410 5107 -390 5498 -333 
C 5862 -275 5965 -262 6074 -262 
L 5978 685 
C 5606 531 5139 435 4717 435 
C 4346 435 4262 518 4230 947 
C 4192 1350 4186 1389 4122 1517 
C 4013 1734 3814 1843 3546 1843 
C 3424 1843 3354 1830 3213 1779 
C 3290 1837 3315 1862 3411 1939 
C 3475 1997 3520 2035 3558 2067 
C 3872 2342 3891 2355 4275 2707 
C 4634 3040 4685 3085 4806 3162 
L 4307 3808 
C 4186 3757 4051 3731 3757 3699 
C 2733 3597 2054 3558 1414 3558 
C 1299 3558 1216 3565 1037 3578 
L 1094 2656 
z
" transform="scale(0.015625)"/>
      <path id="HiraginoSans-W7-308b" d="M 1286 4090 
C 1478 4115 1536 4115 1741 4128 
C 2682 4173 2790 4179 3315 4224 
C 2413 3322 1075 2259 474 1971 
L 986 1146 
C 1779 1856 2656 2221 3597 2221 
C 4333 2221 4806 1920 4806 1453 
C 4806 1050 4621 806 4166 621 
C 4070 883 4000 1018 3872 1171 
C 3603 1504 3200 1690 2746 1690 
C 2067 1690 1568 1274 1568 723 
C 1568 410 1709 128 1958 -58 
C 2227 -262 2701 -378 3258 -378 
C 3872 -378 4435 -243 4864 6 
C 5440 339 5741 838 5741 1459 
C 5741 1907 5587 2259 5274 2522 
C 4928 2810 4480 2957 3936 2957 
C 3565 2957 3245 2912 2880 2803 
C 3398 3168 3603 3334 4269 3930 
C 4768 4371 4774 4371 4909 4448 
L 4454 5114 
C 4346 5062 4269 5050 4019 5030 
C 3424 4986 2630 4954 2080 4954 
C 1696 4954 1485 4966 1248 4998 
L 1286 4090 
z
M 3347 390 
C 3200 358 3174 358 3078 358 
C 2662 358 2419 486 2419 710 
C 2419 864 2547 966 2739 966 
C 3040 966 3251 768 3347 390 
z
" transform="scale(0.015625)"/>
      <path id="HiraginoSans-W7-97f3" d="M 2739 4928 
L 1402 4928 
C 1062 4928 813 4941 608 4966 
L 608 4160 
C 813 4179 979 4186 1280 4186 
L 1517 4186 
C 1626 4000 1702 3821 1786 3597 
L 1075 3597 
C 698 3597 512 3603 320 3629 
L 320 2822 
C 525 2848 678 2854 1043 2854 
L 5402 2854 
C 5773 2854 5926 2848 6138 2822 
L 6138 3629 
C 5958 3603 5779 3597 5408 3597 
L 4582 3597 
C 4666 3757 4755 3942 4858 4186 
L 5126 4186 
C 5440 4186 5619 4179 5818 4160 
L 5818 4966 
C 5606 4941 5338 4928 4979 4928 
L 3597 4928 
L 3597 5043 
C 3597 5190 3610 5299 3635 5434 
L 2701 5434 
C 2726 5293 2739 5178 2739 5037 
L 2739 4928 
z
M 2694 3597 
C 2624 3782 2547 3962 2438 4186 
L 3955 4186 
C 3891 3994 3795 3782 3693 3597 
L 2694 3597 
z
M 1651 2554 
C 1370 2554 1235 2560 1030 2573 
C 1056 2368 1062 2189 1062 1965 
L 1062 115 
C 1062 -154 1050 -339 1024 -550 
L 1882 -550 
L 1882 -294 
L 4563 -294 
L 4563 -550 
L 5421 -550 
C 5395 -358 5382 -166 5382 115 
L 5382 1965 
C 5382 2195 5389 2355 5414 2573 
C 5210 2560 5075 2554 4787 2554 
L 1651 2554 
z
M 1882 1856 
L 4563 1856 
L 4563 1472 
L 1882 1472 
L 1882 1856 
z
M 1882 806 
L 4563 806 
L 4563 403 
L 1882 403 
L 1882 806 
z
" transform="scale(0.015625)"/>
     </defs>
     <use xlink:href="#HiraginoSans-W7-2462"/>
     <use xlink:href="#HiraginoSans-W7-4f7f" x="99.999985"/>
     <use xlink:href="#HiraginoSans-W7-3048" x="199.999969"/>
     <use xlink:href="#HiraginoSans-W7-308b" x="299.999954"/>
     <use xlink:href="#HiraginoSans-W7-97f3" x="399.999939"/>
    </g>
   </g>
   <g id="text_5">
    <!-- 成立 -->
    <g transform="translate(562.5 60.73425) scale(0.12 -0.12)">
     <defs>
      <path id="HiraginoSans-W7-6210" d="M 5011 3437 
C 4954 3040 4787 2598 4493 2048 
C 4371 2509 4301 3034 4250 3795 
L 5306 3795 
C 5619 3795 5882 3782 6112 3757 
L 6112 4582 
C 5933 4557 5779 4550 5440 4550 
L 5274 4550 
L 5638 4794 
C 5427 5043 5229 5242 5011 5414 
L 4416 5043 
C 4685 4832 4742 4781 4934 4550 
L 4224 4550 
C 4218 4678 4218 4845 4218 4858 
C 4218 5024 4237 5261 4256 5382 
L 3360 5382 
C 3386 5242 3386 5242 3405 4550 
L 1568 4550 
C 1229 4550 960 4563 723 4582 
C 755 4307 762 4109 762 3622 
C 762 2515 691 1619 557 1075 
C 461 678 358 442 141 115 
C 410 -96 550 -237 794 -550 
C 1114 -70 1286 397 1408 1120 
C 1504 883 1549 678 1594 365 
C 1747 358 1850 358 1894 358 
C 2022 358 2195 365 2317 384 
C 2566 410 2675 448 2790 557 
C 2970 736 3046 1062 3085 1811 
C 3136 2906 3136 2906 3155 3046 
C 3014 3034 2944 3027 2714 3027 
L 1568 3027 
C 1574 3302 1574 3430 1574 3795 
L 3437 3795 
C 3514 2611 3635 1946 3917 1242 
C 3482 794 2995 467 2362 198 
C 2605 -26 2688 -128 2925 -474 
C 3494 -147 3885 141 4282 531 
C 4691 -77 5126 -429 5485 -429 
C 5690 -429 5837 -314 5965 -58 
C 6086 186 6144 384 6234 870 
C 5946 1037 5824 1133 5581 1370 
C 5498 749 5446 518 5382 518 
C 5376 518 5357 525 5338 544 
C 5338 544 5312 570 5267 608 
C 5139 710 4986 915 4832 1197 
C 5018 1459 5158 1702 5306 1990 
C 5434 2240 5613 2630 5683 2810 
C 5747 2970 5779 3040 5818 3136 
L 5011 3437 
z
M 2310 2291 
C 2291 1542 2285 1466 2227 1280 
C 2189 1146 2131 1114 1952 1114 
C 1811 1114 1709 1126 1414 1165 
C 1472 1517 1504 1818 1536 2291 
L 2310 2291 
z
" transform="scale(0.015625)"/>
      <path id="HiraginoSans-W7-7acb" d="M 2714 4518 
L 1331 4518 
C 979 4518 672 4538 480 4563 
L 480 3674 
C 698 3706 998 3718 1331 3718 
L 5050 3718 
C 5389 3718 5690 3706 5914 3674 
L 5914 4563 
C 5715 4538 5402 4518 5050 4518 
L 3584 4518 
L 3584 4915 
C 3584 5101 3597 5242 3622 5389 
L 2675 5389 
C 2701 5222 2714 5088 2714 4909 
L 2714 4518 
z
M 1146 531 
C 787 531 486 544 262 576 
L 262 -314 
C 493 -282 794 -269 1146 -269 
L 5267 -269 
C 5613 -269 5901 -282 6131 -314 
L 6131 576 
C 5914 544 5606 531 5267 531 
L 4256 531 
C 4467 1011 4768 1818 4909 2259 
C 5171 3104 5171 3104 5229 3258 
L 4250 3533 
C 4186 2912 3725 1382 3341 531 
L 1146 531 
z
M 1184 3226 
C 1485 2470 1702 1722 1888 742 
L 2765 1037 
C 2458 2246 2285 2842 2022 3533 
L 1184 3226 
z
" transform="scale(0.015625)"/>
     </defs>
     <use xlink:href="#HiraginoSans-W7-6210"/>
     <use xlink:href="#HiraginoSans-W7-7acb" x="99.999985"/>
    </g>
   </g>
   <g id="text_6">
    <!-- CPU/GPU系 -->
    <g transform="translate(16.5 104.289781) scale(0.1 -0.1)">
     <defs>
      <path id="HiraginoSans-W4-43" d="M 4544 3654 
C 4390 4064 4269 4269 4026 4506 
C 3661 4858 3174 5030 2560 5030 
C 1946 5030 1453 4845 1075 4480 
C 589 4006 320 3296 320 2458 
C 320 1651 570 947 1018 493 
C 1389 109 1920 -90 2554 -90 
C 3277 -90 3878 173 4237 640 
C 4403 858 4493 1062 4608 1459 
L 3968 1594 
C 3910 1306 3853 1152 3718 966 
C 3475 634 3066 448 2573 448 
C 1581 448 947 1235 947 2477 
C 947 3718 1568 4493 2573 4493 
C 3014 4493 3386 4339 3629 4051 
C 3763 3891 3834 3763 3923 3488 
L 4544 3654 
z
" transform="scale(0.015625)"/>
      <path id="HiraginoSans-W4-50" d="M 1178 0 
C 1139 230 1126 435 1126 755 
L 1126 1965 
L 2496 1965 
C 3533 1965 4128 2522 4128 3494 
C 4128 4416 3558 4934 2528 4934 
L 1210 4934 
C 909 4934 710 4941 480 4954 
C 518 4678 531 4480 531 4198 
L 531 749 
C 531 429 518 243 480 0 
L 1178 0 
z
M 1126 2490 
L 1126 4410 
L 2496 4410 
C 3162 4410 3507 4083 3507 3469 
C 3507 2842 3142 2490 2496 2490 
L 1126 2490 
z
" transform="scale(0.015625)"/>
      <path id="HiraginoSans-W4-55" d="M 3872 4934 
C 3910 4710 3923 4506 3923 4160 
L 3923 1843 
C 3923 934 3430 435 2528 435 
C 1626 435 1126 941 1126 1843 
L 1126 4160 
C 1126 4518 1139 4730 1178 4934 
L 474 4934 
C 512 4717 525 4506 525 4160 
L 525 1824 
C 525 589 1235 -96 2515 -96 
C 3155 -96 3686 90 4019 429 
C 4352 768 4525 1242 4525 1824 
L 4525 4173 
C 4525 4512 4538 4710 4576 4934 
L 3872 4934 
z
" transform="scale(0.015625)"/>
      <path id="HiraginoSans-W4-2f" d="M 2432 4934 
L 122 -979 
L 691 -979 
L 2995 4934 
L 2432 4934 
z
" transform="scale(0.015625)"/>
      <path id="HiraginoSans-W4-47" d="M 3859 2010 
L 3859 794 
C 3494 557 3104 448 2618 448 
C 2125 448 1734 602 1459 909 
C 1126 1274 947 1824 947 2496 
C 947 3731 1568 4506 2560 4506 
C 3258 4506 3648 4243 3872 3629 
L 4486 3808 
C 4346 4160 4224 4346 4013 4550 
C 3667 4877 3187 5043 2592 5043 
C 1210 5043 320 4051 320 2496 
C 320 1664 576 947 1037 493 
C 1427 115 1939 -70 2630 -70 
C 3334 -70 3808 64 4480 467 
C 4442 736 4435 890 4435 1210 
L 4435 1818 
C 4435 2125 4442 2278 4480 2566 
C 4294 2547 4115 2541 3776 2541 
L 3552 2541 
C 3181 2541 3021 2547 2835 2579 
L 2835 1971 
C 3008 2003 3162 2010 3494 2010 
L 3859 2010 
z
" transform="scale(0.015625)"/>
      <path id="HiraginoSans-W4-7cfb" d="M 582 1715 
C 704 1734 742 1741 870 1741 
C 1933 1779 2618 1811 2918 1824 
L 2918 160 
C 2918 -160 2912 -294 2880 -467 
L 3456 -467 
C 3424 -294 3418 -160 3418 160 
L 3418 1850 
C 4282 1888 4422 1901 5331 1984 
C 5472 1786 5536 1690 5728 1395 
L 6138 1690 
C 5632 2387 5472 2573 4902 3174 
L 4525 2938 
C 4787 2662 4877 2560 5024 2387 
C 4294 2323 4294 2323 3098 2278 
C 3443 2592 4045 3206 4301 3501 
C 4614 3866 4678 3942 4749 4000 
L 4269 4262 
C 4141 4051 4096 3987 3846 3693 
C 3661 3475 3661 3475 3021 2816 
C 2739 3066 2669 3123 2368 3360 
C 2790 3789 3053 4109 3398 4602 
C 3968 4672 4666 4781 5024 4858 
C 5344 4928 5344 4928 5459 4947 
L 5120 5402 
C 4730 5254 4589 5222 4058 5126 
C 3226 4986 1843 4877 890 4877 
C 832 4877 768 4877 672 4877 
C 774 4691 813 4602 858 4422 
C 1651 4454 2074 4480 2765 4538 
C 2534 4198 2349 3968 2022 3622 
C 1786 3795 1747 3821 1510 3994 
L 1152 3674 
C 1901 3174 2035 3072 2701 2496 
C 2618 2413 2586 2387 2451 2266 
C 1434 2246 1434 2246 1248 2246 
C 858 2246 698 2253 525 2278 
L 582 1715 
z
M 1843 1523 
C 1478 960 998 518 358 160 
C 499 45 602 -77 717 -250 
C 1382 205 1805 621 2253 1267 
L 1843 1523 
z
M 4083 1344 
C 4614 621 4954 282 5670 -237 
C 5786 -64 5875 45 6016 179 
C 5414 550 5011 915 4486 1581 
L 4083 1344 
z
" transform="scale(0.015625)"/>
     </defs>
     <use xlink:href="#HiraginoSans-W4-43"/>
     <use xlink:href="#HiraginoSans-W4-50" x="76.599991"/>
     <use xlink:href="#HiraginoSans-W4-55" x="144.199982"/>
     <use xlink:href="#HiraginoSans-W4-2f" x="223.099976"/>
     <use xlink:href="#HiraginoSans-W4-47" x="271.799973"/>
     <use xlink:href="#HiraginoSans-W4-50" x="348.199966"/>
     <use xlink:href="#HiraginoSans-W4-55" x="415.799957"/>
     <use xlink:href="#HiraginoSans-W4-7cfb" x="494.699951"/>
    </g>
    <!-- (F32/F16/Int8 × cpuOnly, cpuAndGPU) -->
    <g transform="translate(16.5 115.795406) scale(0.1 -0.1)">
     <defs>
      <path id="HiraginoSans-W4-28" d="M 2195 -749 
C 1830 -198 1683 90 1542 538 
C 1402 986 1331 1472 1331 1978 
C 1331 2483 1402 2963 1542 3411 
C 1683 3859 1830 4147 2195 4698 
L 1715 5018 
C 1350 4461 1197 4173 1037 3712 
C 838 3155 742 2579 742 1978 
C 742 1376 838 794 1037 243 
C 1197 -218 1350 -512 1715 -1062 
L 2195 -749 
z
" transform="scale(0.015625)"/>
      <path id="HiraginoSans-W4-46" d="M 1133 2285 
L 2598 2285 
C 2950 2285 3149 2272 3366 2240 
L 3366 2867 
C 3130 2835 2938 2822 2598 2822 
L 1133 2822 
L 1133 4390 
L 2944 4390 
C 3296 4390 3494 4378 3712 4346 
L 3712 4979 
C 3469 4947 3270 4934 2938 4934 
L 1210 4934 
C 896 4934 698 4941 480 4954 
C 518 4698 531 4493 531 4198 
L 531 794 
C 531 429 518 218 480 0 
L 1184 0 
C 1146 237 1133 429 1133 800 
L 1133 2285 
z
" transform="scale(0.015625)"/>
      <path id="HiraginoSans-W4-33" d="M 282 1101 
C 397 768 474 621 621 448 
C 934 90 1434 -96 2112 -96 
C 2720 -96 3213 70 3533 384 
C 3770 614 3904 954 3904 1306 
C 3904 1677 3802 1958 3597 2182 
C 3379 2419 3130 2528 2688 2586 
C 2995 2650 3130 2701 3290 2816 
C 3578 3021 3738 3366 3738 3757 
C 3738 4538 3117 5043 2157 5043 
C 1594 5043 1146 4883 845 4576 
C 666 4390 582 4237 467 3891 
L 1107 3757 
C 1171 3981 1216 4083 1306 4192 
C 1478 4416 1741 4525 2125 4525 
C 2746 4525 3110 4224 3110 3725 
C 3110 3482 3021 3264 2867 3110 
C 2669 2918 2374 2829 1965 2829 
C 1779 2829 1613 2842 1459 2861 
L 1459 2272 
C 1651 2298 1811 2310 2003 2310 
C 2829 2310 3264 1990 3264 1376 
C 3264 794 2816 429 2106 429 
C 1779 429 1510 506 1293 666 
C 1107 800 1024 928 928 1248 
L 282 1101 
z
" transform="scale(0.015625)"/>
      <path id="HiraginoSans-W4-32" d="M 3078 0 
C 3424 0 3642 -6 3917 -32 
L 3917 589 
C 3693 557 3430 544 3091 544 
L 1114 544 
C 1280 1114 1606 1478 2451 2042 
C 3181 2528 3341 2656 3546 2912 
C 3738 3142 3846 3443 3846 3744 
C 3846 4525 3200 5030 2202 5030 
C 1613 5030 1158 4858 858 4518 
C 640 4269 531 4026 442 3565 
L 1088 3469 
C 1139 3782 1190 3936 1306 4102 
C 1491 4371 1792 4506 2208 4506 
C 2816 4506 3206 4211 3206 3744 
C 3206 3360 2995 3085 2387 2675 
C 1754 2246 1600 2138 1389 1952 
C 979 1594 710 1229 544 806 
C 448 563 429 461 365 -26 
C 576 -6 678 0 1107 0 
L 3078 0 
z
" transform="scale(0.015625)"/>
      <path id="HiraginoSans-W4-31" d="M 1018 4371 
C 1222 4397 1389 4410 1606 4410 
L 1939 4410 
L 1939 755 
C 1939 454 1926 237 1888 0 
L 2598 0 
C 2560 250 2547 448 2547 755 
L 2547 3904 
C 2547 4256 2566 4582 2605 4966 
C 2387 4941 2278 4934 2035 4934 
L 1581 4934 
C 1325 4934 1197 4941 1018 4966 
L 1018 4371 
z
" transform="scale(0.015625)"/>
      <path id="HiraginoSans-W4-36" d="M 3846 3994 
C 3706 4301 3616 4442 3462 4602 
C 3187 4877 2784 5024 2304 5024 
C 1683 5024 1222 4794 864 4307 
C 557 3891 371 3162 371 2355 
C 371 1446 614 704 1043 320 
C 1331 58 1773 -90 2253 -90 
C 3277 -90 3968 589 3968 1587 
C 3968 2586 3334 3213 2323 3213 
C 1894 3213 1568 3104 1274 2854 
C 1133 2739 1062 2656 941 2458 
C 979 3085 1043 3392 1210 3763 
C 1434 4262 1798 4518 2285 4518 
C 2765 4518 3040 4314 3238 3821 
L 3846 3994 
z
M 2266 2714 
C 2950 2714 3366 2285 3366 1574 
C 3366 1325 3309 1088 3206 922 
C 3008 614 2643 422 2234 422 
C 1568 422 1069 915 1069 1574 
C 1069 2234 1574 2714 2266 2714 
z
" transform="scale(0.015625)"/>
      <path id="HiraginoSans-W4-49" d="M 480 4934 
C 518 4698 531 4531 531 4186 
L 531 749 
C 531 410 518 243 480 0 
L 1190 0 
C 1152 224 1139 442 1139 749 
L 1139 4186 
C 1139 4486 1152 4704 1190 4934 
L 480 4934 
z
" transform="scale(0.015625)"/>
      <path id="HiraginoSans-W4-6e" d="M 1114 0 
C 1082 256 1069 474 1069 755 
L 1069 2010 
C 1139 2272 1222 2426 1395 2630 
C 1658 2944 1933 3085 2266 3085 
C 2752 3085 3002 2797 3002 2234 
L 3002 755 
C 3002 454 2989 269 2957 0 
L 3629 0 
C 3597 218 3584 416 3584 749 
L 3584 2323 
C 3584 2662 3520 2912 3392 3110 
C 3181 3418 2816 3584 2349 3584 
C 1779 3584 1376 3360 1056 2867 
C 1069 3027 1069 3059 1069 3142 
L 1069 3520 
L 442 3520 
C 480 3264 493 3078 493 2765 
L 493 755 
C 493 429 480 256 442 0 
L 1114 0 
z
" transform="scale(0.015625)"/>
      <path id="HiraginoSans-W4-74" d="M 851 4480 
C 877 4262 896 4006 896 3750 
L 896 3520 
L 646 3520 
C 378 3520 250 3526 70 3558 
L 70 2995 
C 275 3021 416 3034 640 3034 
L 896 3034 
L 896 787 
C 896 461 954 269 1094 134 
C 1235 6 1466 -64 1773 -64 
C 2042 -64 2246 -26 2515 83 
L 2374 602 
C 2176 486 2048 448 1875 448 
C 1741 448 1632 486 1568 544 
C 1504 608 1478 698 1478 883 
L 1478 3034 
L 1779 3034 
C 2074 3034 2221 3027 2426 2995 
L 2426 3558 
C 2214 3526 2074 3520 1773 3520 
L 1478 3520 
L 1478 3750 
C 1478 4026 1498 4275 1523 4480 
L 851 4480 
z
" transform="scale(0.015625)"/>
      <path id="HiraginoSans-W4-38" d="M 1446 2586 
C 1203 2547 1056 2490 851 2355 
C 480 2106 294 1754 294 1299 
C 294 397 966 -102 2163 -102 
C 3347 -102 4006 397 4006 1299 
C 4006 1728 3853 2061 3539 2304 
C 3322 2470 3136 2547 2867 2586 
C 3437 2714 3789 3162 3789 3757 
C 3789 4550 3162 5043 2150 5043 
C 1146 5043 512 4544 512 3750 
C 512 3162 877 2701 1446 2586 
z
M 2150 4538 
C 2784 4538 3187 4211 3187 3699 
C 3187 3155 2797 2829 2157 2829 
C 1510 2829 1114 3162 1114 3699 
C 1114 4211 1523 4538 2150 4538 
z
M 2157 2304 
C 2912 2304 3373 1939 3373 1344 
C 3373 749 2925 410 2144 410 
C 1376 410 928 749 928 1338 
C 928 1939 1389 2304 2157 2304 
z
" transform="scale(0.015625)"/>
      <path id="HiraginoSans-W4-20" transform="scale(0.015625)"/>
      <path id="HiraginoSans-W4-d7" d="M 2125 1395 
L 3334 186 
L 3706 550 
L 2490 1766 
L 3706 2976 
L 3334 3347 
L 2125 2131 
L 909 3347 
L 544 2976 
L 1760 1766 
L 550 557 
L 915 192 
L 2125 1395 
z
" transform="scale(0.015625)"/>
      <path id="HiraginoSans-W4-63" d="M 3475 2573 
C 3405 2758 3347 2867 3251 3002 
C 2970 3405 2522 3616 1965 3616 
C 947 3616 282 2874 282 1747 
C 282 627 954 -90 1990 -90 
C 2534 -90 2970 102 3258 480 
C 3366 621 3430 742 3520 986 
L 2950 1126 
C 2899 966 2867 890 2816 806 
C 2650 550 2362 410 2010 410 
C 1312 410 870 934 870 1760 
C 870 2598 1299 3130 1984 3130 
C 2438 3130 2739 2899 2912 2413 
L 3475 2573 
z
" transform="scale(0.015625)"/>
      <path id="HiraginoSans-W4-70" d="M 1101 -1312 
C 1069 -1075 1056 -877 1056 -550 
L 1056 128 
C 1056 301 1050 397 1037 570 
C 1363 154 1792 -51 2349 -51 
C 3334 -51 3968 659 3968 1773 
C 3968 2906 3354 3590 2336 3590 
C 1766 3590 1344 3379 1037 2944 
C 1050 3078 1050 3117 1050 3194 
L 1050 3520 
L 442 3520 
C 474 3277 486 3078 486 2752 
L 486 -557 
C 486 -845 474 -1056 442 -1312 
L 1101 -1312 
z
M 2272 442 
C 1952 442 1626 570 1421 781 
C 1197 1005 1062 1376 1062 1766 
C 1062 2547 1555 3091 2278 3091 
C 2976 3091 3373 2611 3373 1773 
C 3373 941 2957 442 2272 442 
z
" transform="scale(0.015625)"/>
      <path id="HiraginoSans-W4-75" d="M 2944 3520 
C 2976 3264 2989 3046 2989 2765 
L 2989 1510 
C 2918 1248 2835 1094 2662 890 
C 2400 576 2125 435 1792 435 
C 1306 435 1056 723 1056 1286 
L 1056 2765 
C 1056 3066 1069 3251 1101 3520 
L 429 3520 
C 461 3302 474 3104 474 2771 
L 474 1197 
C 474 858 538 608 666 416 
C 877 109 1242 -58 1709 -58 
C 2272 -58 2682 166 3002 653 
C 2989 493 2989 461 2989 378 
L 2989 0 
L 3616 0 
C 3578 256 3565 442 3565 755 
L 3565 2765 
C 3565 3091 3578 3264 3616 3520 
L 2944 3520 
z
" transform="scale(0.015625)"/>
      <path id="HiraginoSans-W4-4f" d="M 2586 5030 
C 1210 5030 320 4026 320 2470 
C 320 902 1203 -96 2579 -96 
C 3962 -96 4845 909 4845 2470 
C 4845 4038 3968 5030 2586 5030 
z
M 2592 442 
C 1594 442 941 1248 941 2470 
C 941 3699 1587 4493 2586 4493 
C 3008 4493 3386 4346 3667 4064 
C 4026 3706 4218 3155 4218 2464 
C 4218 1229 3584 442 2592 442 
z
" transform="scale(0.015625)"/>
      <path id="HiraginoSans-W4-6c" d="M 442 4934 
C 474 4704 486 4518 486 4179 
L 486 755 
C 486 429 474 250 442 0 
L 1120 0 
C 1088 262 1075 448 1075 755 
L 1075 4179 
C 1075 4512 1088 4698 1120 4934 
L 442 4934 
z
" transform="scale(0.015625)"/>
      <path id="HiraginoSans-W4-79" d="M 1600 154 
L 1325 -486 
C 1229 -710 1069 -832 858 -832 
C 730 -832 621 -800 442 -717 
L 301 -1274 
C 550 -1325 710 -1344 864 -1344 
C 1357 -1344 1664 -1146 1843 -717 
L 3283 2758 
C 3462 3181 3571 3437 3603 3520 
L 2912 3520 
C 2880 3334 2829 3168 2694 2816 
L 1901 768 
L 1011 2822 
C 902 3072 819 3341 787 3520 
L 64 3520 
C 134 3386 134 3386 422 2758 
L 1600 154 
z
" transform="scale(0.015625)"/>
      <path id="HiraginoSans-W4-2c" d="M 1165 723 
L 435 723 
L 435 0 
L 858 0 
C 851 -403 800 -499 493 -614 
L 685 -864 
C 1062 -672 1165 -493 1165 0 
L 1165 723 
z
" transform="scale(0.015625)"/>
      <path id="HiraginoSans-W4-41" d="M 4826 0 
C 4730 166 4646 352 4486 742 
L 3053 4326 
C 2899 4710 2867 4806 2835 4934 
L 2054 4934 
C 2022 4781 1971 4634 1850 4326 
L 422 742 
C 269 358 198 205 83 0 
L 858 0 
C 902 230 954 397 1056 659 
L 1363 1453 
L 3546 1453 
L 3859 659 
C 3930 467 4006 218 4051 0 
L 4826 0 
z
M 3366 1978 
L 1542 1978 
L 2317 4026 
C 2330 4058 2349 4122 2381 4211 
C 2394 4256 2419 4333 2451 4422 
C 2566 4083 2566 4083 2586 4026 
L 3366 1978 
z
" transform="scale(0.015625)"/>
      <path id="HiraginoSans-W4-64" d="M 3187 0 
L 3802 0 
C 3770 250 3757 442 3757 774 
L 3757 4173 
C 3757 4467 3770 4666 3802 4934 
L 3142 4934 
C 3174 4691 3187 4486 3187 4173 
L 3187 3398 
C 3187 3296 3187 3194 3194 3149 
C 3200 3040 3200 3040 3206 2970 
C 2918 3379 2470 3597 1901 3597 
C 909 3597 282 2886 282 1766 
C 282 1171 461 672 794 339 
C 1069 70 1446 -64 1914 -64 
C 2483 -64 2880 128 3206 563 
C 3200 480 3187 365 3187 288 
L 3187 0 
z
M 1971 3098 
C 2310 3098 2618 2976 2842 2752 
C 3059 2541 3181 2189 3181 1786 
C 3181 966 2707 429 1978 429 
C 1709 429 1459 512 1274 672 
C 1024 890 883 1280 883 1786 
C 883 2598 1293 3098 1971 3098 
z
" transform="scale(0.015625)"/>
      <path id="HiraginoSans-W4-29" d="M 653 -1062 
C 1018 -512 1171 -218 1331 243 
C 1530 794 1626 1370 1626 1978 
C 1626 2579 1530 3155 1331 3712 
C 1171 4173 1018 4461 653 5018 
L 173 4698 
C 538 4147 685 3859 826 3411 
C 966 2963 1037 2490 1037 1978 
C 1037 1466 966 986 826 538 
C 685 90 538 -198 173 -749 
L 653 -1062 
z
" transform="scale(0.015625)"/>
     </defs>
     <use xlink:href="#HiraginoSans-W4-28"/>
     <use xlink:href="#HiraginoSans-W4-46" x="36.999985"/>
     <use xlink:href="#HiraginoSans-W4-33" x="98.399979"/>
     <use xlink:href="#HiraginoSans-W4-32" x="165.699966"/>
     <use xlink:href="#HiraginoSans-W4-2f" x="232.999954"/>
     <use xlink:href="#HiraginoSans-W4-46" x="281.699951"/>
     <use xlink:href="#HiraginoSans-W4-31" x="343.099945"/>
     <use xlink:href="#HiraginoSans-W4-36" x="410.399933"/>
     <use xlink:href="#HiraginoSans-W4-2f" x="477.699921"/>
     <use xlink:href="#HiraginoSans-W4-49" x="526.399918"/>
     <use xlink:href="#HiraginoSans-W4-6e" x="552.499908"/>
     <use xlink:href="#HiraginoSans-W4-74" x="615.899902"/>
     <use xlink:href="#HiraginoSans-W4-38" x="656.399887"/>
     <use xlink:href="#HiraginoSans-W4-20" x="723.699875"/>
     <use xlink:href="#HiraginoSans-W4-d7" x="756.999863"/>
     <use xlink:href="#HiraginoSans-W4-20" x="823.399857"/>
     <use xlink:href="#HiraginoSans-W4-63" x="856.699844"/>
     <use xlink:href="#HiraginoSans-W4-70" x="915.799835"/>
     <use xlink:href="#HiraginoSans-W4-75" x="982.199829"/>
     <use xlink:href="#HiraginoSans-W4-4f" x="1045.599823"/>
     <use xlink:href="#HiraginoSans-W4-6e" x="1126.299805"/>
     <use xlink:href="#HiraginoSans-W4-6c" x="1189.699799"/>
     <use xlink:href="#HiraginoSans-W4-79" x="1213.999786"/>
     <use xlink:href="#HiraginoSans-W4-2c" x="1271.39978"/>
     <use xlink:href="#HiraginoSans-W4-20" x="1296.399765"/>
     <use xlink:href="#HiraginoSans-W4-63" x="1329.699753"/>
     <use xlink:href="#HiraginoSans-W4-70" x="1388.799744"/>
     <use xlink:href="#HiraginoSans-W4-75" x="1455.199738"/>
     <use xlink:href="#HiraginoSans-W4-41" x="1518.599731"/>
     <use xlink:href="#HiraginoSans-W4-6e" x="1595.199722"/>
     <use xlink:href="#HiraginoSans-W4-64" x="1658.599716"/>
     <use xlink:href="#HiraginoSans-W4-47" x="1724.899704"/>
     <use xlink:href="#HiraginoSans-W4-50" x="1801.299698"/>
     <use xlink:href="#HiraginoSans-W4-55" x="1868.899689"/>
     <use xlink:href="#HiraginoSans-W4-29" x="1947.799683"/>
    </g>
   </g>
   <g id="text_7">
    <!-- ○ -->
    <g style="fill: #2e7d32" transform="translate(285.5 112.962125) scale(0.2 -0.2)">
     <defs>
      <path id="HiraginoSans-W7-25cb" d="M 3200 5235 
C 2509 5235 1818 4966 1318 4512 
C 710 3955 390 3238 390 2432 
C 390 883 1651 -378 3200 -378 
C 4749 -378 6003 877 6003 2432 
C 6003 3130 5747 3795 5280 4307 
C 4736 4909 4006 5235 3200 5235 
z
M 3200 5011 
C 3827 5011 4467 4768 4922 4346 
C 5485 3834 5779 3174 5779 2426 
C 5779 1005 4621 -154 3200 -154 
C 1773 -154 614 1005 614 2432 
C 614 3072 851 3680 1280 4154 
C 1786 4710 2451 5011 3200 5011 
z
" transform="scale(0.015625)"/>
     </defs>
     <use xlink:href="#HiraginoSans-W7-25cb"/>
    </g>
   </g>
   <g id="text_8">
    <!-- ○ -->
    <g style="fill: #2e7d32" transform="translate(378.5 112.962125) scale(0.2 -0.2)">
     <use xlink:href="#HiraginoSans-W7-25cb"/>
    </g>
   </g>
   <g id="text_9">
    <!-- ○ -->
    <g style="fill: #2e7d32" transform="translate(471.5 112.962125) scale(0.2 -0.2)">
     <use xlink:href="#HiraginoSans-W7-25cb"/>
    </g>
   </g>
   <g id="text_10">
    <!-- 候補 -->
    <g style="fill: #2e7d32" transform="translate(563.5 110.338766) scale(0.11 -0.11)">
     <defs>
      <path id="HiraginoSans-W7-5019" d="M 3891 2304 
C 3891 2093 3885 1990 3866 1824 
L 3066 1824 
C 2848 1824 2739 1830 2579 1856 
L 2579 1075 
C 2739 1101 2854 1107 3066 1107 
L 3667 1107 
C 3392 602 2906 320 2080 179 
C 2259 -70 2355 -269 2451 -570 
C 3322 -333 3866 19 4243 602 
C 4666 64 5235 -333 5914 -563 
C 6010 -256 6112 -13 6259 237 
C 5869 307 5626 397 5318 589 
C 5056 749 4902 890 4730 1107 
L 5510 1107 
C 5786 1107 5952 1101 6144 1075 
L 6144 1856 
C 5965 1830 5818 1824 5510 1824 
L 4653 1824 
C 4672 2003 4678 2080 4685 2304 
L 5222 2304 
C 5504 2304 5664 2298 5869 2278 
L 5869 3034 
C 5690 3008 5555 3002 5216 3002 
L 3795 3002 
C 3853 3130 3885 3206 3942 3366 
L 5459 3366 
C 5773 3366 5965 3354 6138 3334 
L 6138 4102 
C 5965 4083 5766 4070 5517 4070 
L 5318 4070 
L 5395 4755 
C 5421 5011 5427 5043 5459 5254 
C 5267 5235 5133 5229 4870 5229 
L 3488 5229 
C 3200 5229 3002 5242 2835 5261 
L 2835 4493 
C 3053 4512 3162 4518 3392 4518 
L 4570 4518 
L 4512 4070 
L 3181 4070 
C 2835 4070 2739 4077 2566 4096 
L 2566 3347 
C 2714 3366 2778 3366 3072 3366 
L 3181 3366 
C 2982 2899 2848 2694 2477 2336 
C 2726 2163 2912 2003 3027 1850 
C 3226 2074 3290 2150 3398 2304 
L 3891 2304 
z
M 1702 947 
C 1702 653 1696 525 1670 365 
L 2458 365 
C 2438 474 2432 608 2432 858 
L 2432 3936 
C 2432 4166 2438 4275 2451 4397 
L 1728 4397 
C 1798 4608 1824 4672 1850 4768 
C 1946 5082 1952 5101 1990 5210 
L 1165 5459 
C 1062 4934 979 4646 774 4192 
C 563 3706 326 3322 26 2982 
C 160 2720 256 2445 358 2048 
C 518 2246 582 2342 723 2605 
C 710 2323 710 2214 710 1926 
L 710 205 
C 710 -96 698 -275 672 -544 
L 1510 -544 
C 1485 -275 1478 -109 1478 211 
L 1478 3770 
C 1568 3987 1600 4051 1690 4301 
C 1696 4186 1702 4083 1702 3859 
L 1702 947 
z
" transform="scale(0.015625)"/>
      <path id="HiraginoSans-W7-88dc" d="M 2477 154 
C 2477 -173 2470 -365 2445 -570 
L 3283 -570 
C 3264 -410 3258 -230 3258 160 
L 3258 832 
L 3814 832 
L 3814 102 
C 3814 -237 3808 -378 3789 -486 
L 4582 -486 
C 4570 -307 4563 -192 4563 115 
L 4563 832 
L 5184 832 
L 5184 422 
C 5184 301 5165 275 5069 275 
C 4960 275 4845 288 4666 314 
C 4813 45 4851 -109 4870 -493 
C 4986 -493 5056 -493 5094 -493 
C 5466 -493 5632 -474 5741 -416 
C 5894 -326 5958 -173 5958 115 
L 5958 3034 
C 5958 3334 5965 3520 5984 3706 
C 5843 3693 5696 3686 5414 3686 
L 4563 3686 
L 4563 4051 
L 5478 4051 
C 5722 4051 5933 4038 6099 4019 
L 6099 4832 
C 5971 4819 5933 4813 5747 4806 
C 5619 5043 5523 5178 5338 5408 
L 4762 5210 
C 4909 5043 4954 4973 5069 4800 
L 4563 4800 
L 4563 4896 
C 4563 5146 4570 5267 4595 5421 
L 3776 5421 
C 3802 5280 3808 5133 3808 4896 
L 3808 4800 
L 3021 4800 
C 2720 4800 2509 4813 2342 4838 
L 2342 4160 
L 2099 4461 
C 2035 4442 1958 4435 1766 4435 
L 1709 4435 
L 1709 4934 
C 1709 5126 1722 5286 1741 5421 
L 883 5421 
C 902 5274 915 5107 915 4922 
L 915 4435 
L 794 4435 
C 563 4435 448 4442 333 4467 
L 333 3667 
C 512 3693 678 3699 864 3699 
L 1434 3699 
C 1248 3238 1043 2906 742 2547 
C 582 2368 429 2221 186 2035 
C 326 1760 390 1562 480 1184 
C 627 1325 627 1325 864 1581 
C 883 1606 909 1638 947 1677 
C 928 1312 922 1107 922 1075 
L 922 205 
C 922 -70 909 -358 883 -570 
L 1747 -570 
C 1722 -365 1709 -45 1709 205 
L 1715 1018 
C 1715 1050 1715 1082 1715 1107 
C 1715 1286 1709 1414 1696 1594 
C 1862 1402 1933 1318 2138 1114 
C 2272 1402 2323 1491 2477 1696 
L 2477 154 
z
M 3808 4051 
L 3808 3686 
L 3110 3686 
C 2771 3686 2650 3693 2458 3706 
C 2477 3539 2477 3443 2477 3040 
L 2477 2803 
L 2176 3046 
C 2048 2778 1958 2624 1818 2426 
C 1760 2496 1741 2522 1683 2598 
C 1926 3002 2131 3411 2285 3789 
C 2298 3827 2298 3834 2323 3878 
C 2336 3910 2355 3962 2387 4026 
C 2534 4045 2746 4051 2938 4051 
L 3808 4051 
z
M 2477 1792 
C 2310 1914 2278 1939 2150 2061 
C 2253 2182 2336 2298 2477 2509 
L 2477 1792 
z
M 3258 1478 
L 3258 1926 
L 3814 1926 
L 3814 1478 
L 3258 1478 
z
M 3258 2573 
L 3258 3008 
L 3814 3008 
L 3814 2573 
L 3258 2573 
z
M 4563 1478 
L 4563 1926 
L 5184 1926 
L 5184 1478 
L 4563 1478 
z
M 4563 2573 
L 4563 3008 
L 5184 3008 
L 5184 2573 
L 4563 2573 
z
" transform="scale(0.015625)"/>
     </defs>
     <use xlink:href="#HiraginoSans-W7-5019"/>
     <use xlink:href="#HiraginoSans-W7-88dc" x="99.999985"/>
    </g>
   </g>
   <g id="text_11">
    <!-- F32 × cpuAndNE, all -->
    <g transform="translate(16.5 153.992656) scale(0.1 -0.1)">
     <defs>
      <path id="HiraginoSans-W4-4e" d="M 480 4934 
C 518 4698 531 4493 531 4186 
L 531 819 
C 531 454 518 198 480 0 
L 1171 0 
C 1133 218 1120 454 1120 819 
L 1120 3078 
C 1120 3347 1107 3795 1082 4186 
C 1190 3974 1389 3635 1459 3526 
L 3392 608 
C 3578 326 3654 205 3750 0 
L 4538 0 
C 4499 218 4486 416 4486 749 
L 4486 4154 
C 4486 4499 4499 4698 4538 4934 
L 3846 4934 
C 3885 4704 3898 4486 3898 4160 
L 3898 1843 
C 3898 1638 3910 1248 3936 736 
C 3795 992 3603 1306 3494 1466 
L 1587 4326 
C 1395 4621 1299 4794 1248 4934 
L 480 4934 
z
" transform="scale(0.015625)"/>
      <path id="HiraginoSans-W4-45" d="M 3872 582 
C 3629 550 3450 538 3130 538 
L 1133 538 
L 1133 2323 
L 2778 2323 
C 3130 2323 3302 2310 3533 2278 
L 3533 2899 
C 3283 2867 3078 2854 2778 2854 
L 1133 2854 
L 1133 4397 
L 3066 4397 
C 3405 4397 3597 4384 3814 4352 
L 3814 4979 
C 3603 4947 3366 4934 3066 4934 
L 1210 4934 
C 896 4934 698 4941 480 4954 
C 518 4659 531 4486 531 4192 
L 531 768 
C 531 429 518 224 480 -13 
C 717 0 870 0 1210 0 
L 3130 0 
C 3482 0 3654 -6 3872 -38 
L 3872 582 
z
" transform="scale(0.015625)"/>
      <path id="HiraginoSans-W4-61" d="M 2765 0 
L 3373 0 
C 3334 269 3322 422 3322 736 
L 3322 2515 
C 3322 2867 3238 3110 3046 3290 
C 2816 3514 2464 3622 1978 3622 
C 1485 3622 1094 3507 813 3270 
C 627 3123 531 2976 416 2656 
L 1011 2541 
C 1069 2714 1114 2797 1197 2886 
C 1370 3066 1626 3155 1971 3155 
C 2515 3155 2765 2950 2765 2515 
L 2765 2182 
C 1933 2163 1581 2118 1197 1997 
C 646 1818 333 1434 333 941 
C 333 320 774 -58 1491 -58 
C 1741 -58 1978 -19 2195 64 
C 2406 141 2522 218 2765 429 
L 2765 0 
z
M 2765 1363 
C 2765 1126 2707 973 2554 813 
C 2304 557 1920 397 1568 397 
C 1165 397 915 608 915 941 
C 915 1235 1075 1440 1395 1568 
C 1677 1683 2035 1728 2765 1747 
L 2765 1363 
z
" transform="scale(0.015625)"/>
     </defs>
     <use xlink:href="#HiraginoSans-W4-46"/>
     <use xlink:href="#HiraginoSans-W4-33" x="61.399994"/>
     <use xlink:href="#HiraginoSans-W4-32" x="128.699982"/>
     <use xlink:href="#HiraginoSans-W4-20" x="195.999969"/>
     <use xlink:href="#HiraginoSans-W4-d7" x="229.299957"/>
     <use xlink:href="#HiraginoSans-W4-20" x="295.699951"/>
     <use xlink:href="#HiraginoSans-W4-63" x="328.999939"/>
     <use xlink:href="#HiraginoSans-W4-70" x="388.09993"/>
     <use xlink:href="#HiraginoSans-W4-75" x="454.499924"/>
     <use xlink:href="#HiraginoSans-W4-41" x="517.899918"/>
     <use xlink:href="#HiraginoSans-W4-6e" x="594.499908"/>
     <use xlink:href="#HiraginoSans-W4-64" x="657.899902"/>
     <use xlink:href="#HiraginoSans-W4-4e" x="724.19989"/>
     <use xlink:href="#HiraginoSans-W4-45" x="802.699875"/>
     <use xlink:href="#HiraginoSans-W4-2c" x="868.19986"/>
     <use xlink:href="#HiraginoSans-W4-20" x="893.199844"/>
     <use xlink:href="#HiraginoSans-W4-61" x="926.499832"/>
     <use xlink:href="#HiraginoSans-W4-6c" x="985.699829"/>
     <use xlink:href="#HiraginoSans-W4-6c" x="1009.999817"/>
    </g>
    <!-- (実態 CPU/GPU フォールバック) -->
    <g transform="translate(16.5 165.893906) scale(0.1 -0.1)">
     <defs>
      <path id="HiraginoSans-W4-5b9f" d="M 5376 1382 
C 5626 1382 5798 1370 6003 1344 
L 6003 1843 
C 5837 1811 5677 1805 5395 1805 
L 3245 1805 
C 3290 1997 3302 2099 3328 2355 
L 4614 2355 
C 4896 2355 5011 2349 5171 2323 
L 5171 2784 
C 5005 2758 4909 2752 4614 2752 
L 3360 2752 
C 3373 2893 3373 3008 3386 3258 
L 4666 3258 
C 4947 3258 5094 3251 5280 3226 
L 5280 3693 
C 5120 3667 4954 3661 4666 3661 
L 3392 3661 
C 3398 3942 3405 4045 3430 4147 
L 2880 4147 
C 2906 4013 2912 3923 2912 3661 
L 1734 3661 
C 1453 3661 1286 3667 1126 3693 
L 1126 3226 
C 1299 3251 1459 3258 1734 3258 
L 2912 3258 
C 2906 3059 2899 2995 2886 2752 
L 1747 2752 
C 1453 2752 1350 2758 1184 2784 
L 1184 2323 
C 1338 2349 1466 2355 1747 2355 
L 2861 2355 
C 2835 2118 2816 1978 2771 1805 
L 1043 1805 
C 762 1805 602 1811 435 1843 
L 435 1344 
C 634 1370 826 1382 1062 1382 
L 2624 1382 
C 2432 979 2150 691 1722 454 
C 1325 243 966 128 346 19 
C 493 -186 531 -250 608 -461 
C 1242 -314 1658 -147 2093 128 
C 2547 416 2861 774 3078 1280 
C 3686 384 4454 -109 5824 -467 
C 5901 -275 5978 -128 6093 26 
C 5357 160 4858 333 4397 602 
C 4038 813 3808 1024 3533 1382 
L 5376 1382 
z
M 2899 4736 
L 1171 4736 
C 877 4736 710 4742 506 4762 
C 525 4608 531 4486 531 4314 
L 531 3917 
C 531 3718 525 3603 506 3462 
L 1005 3462 
L 1005 4314 
L 5414 4314 
L 5414 3462 
L 5907 3462 
C 5888 3590 5882 3731 5882 3917 
L 5882 4320 
C 5882 4493 5888 4608 5907 4762 
C 5702 4742 5542 4736 5248 4736 
L 3398 4736 
L 3398 4954 
C 3398 5101 3411 5216 3437 5350 
L 2861 5350 
C 2886 5210 2899 5101 2899 4947 
L 2899 4736 
z
" transform="scale(0.015625)"/>
      <path id="HiraginoSans-W4-614b" d="M 371 3968 
C 538 3987 646 4000 736 4006 
C 1734 4064 2029 4090 2765 4179 
C 2835 4070 2874 4019 2963 3866 
L 3341 4083 
C 3040 4518 2797 4832 2496 5146 
L 2150 4954 
C 2330 4768 2387 4698 2534 4512 
C 2029 4461 1798 4448 1344 4429 
C 1523 4691 1581 4787 1856 5280 
L 1357 5395 
C 1254 5062 1120 4806 858 4416 
C 691 4410 659 4410 608 4410 
C 493 4410 416 4416 320 4429 
L 371 3968 
z
M 1152 2074 
L 2509 2074 
L 2509 1805 
C 2509 1670 2477 1651 2259 1651 
C 2150 1651 1939 1670 1760 1696 
C 1818 1555 1850 1440 1856 1306 
C 2022 1299 2150 1293 2227 1293 
C 2784 1293 2938 1402 2938 1792 
L 2938 3174 
C 2938 3494 2944 3661 2963 3802 
C 2803 3782 2662 3776 2400 3776 
L 1248 3776 
C 998 3776 851 3782 698 3795 
C 710 3648 717 3552 717 3277 
L 717 1882 
C 717 1568 710 1395 685 1222 
L 1178 1222 
C 1158 1363 1152 1517 1152 1818 
L 1152 2074 
z
M 1152 2419 
L 1152 2746 
L 2509 2746 
L 2509 2419 
L 1152 2419 
z
M 1152 3091 
L 1152 3411 
L 2509 3411 
L 2509 3091 
L 1152 3091 
z
M 3910 4858 
C 3910 5082 3917 5178 3942 5325 
L 3418 5325 
C 3450 5178 3456 5056 3456 4845 
L 3456 3866 
C 3456 3635 3558 3507 3802 3450 
C 3962 3411 4198 3398 4640 3398 
C 5318 3398 5555 3430 5702 3533 
C 5862 3648 5920 3821 5965 4294 
C 5760 4346 5734 4358 5530 4461 
C 5517 4115 5491 3968 5434 3898 
C 5370 3814 5190 3782 4806 3782 
C 4493 3782 4134 3795 4045 3814 
C 3949 3834 3910 3878 3910 3981 
L 3910 4243 
C 4678 4403 5331 4595 5856 4819 
L 5491 5190 
C 5178 4973 4614 4774 3910 4627 
L 3910 4858 
z
M 3891 2739 
C 3891 2957 3898 3072 3930 3206 
L 3405 3206 
C 3430 3059 3437 2944 3437 2726 
L 3437 1792 
C 3437 1408 3654 1318 4589 1318 
C 5805 1318 5894 1376 5984 2234 
C 5779 2278 5728 2298 5542 2394 
C 5523 2010 5498 1862 5427 1798 
C 5350 1734 5171 1715 4634 1715 
C 4006 1715 3891 1747 3891 1920 
L 3891 2240 
C 4557 2368 5075 2509 5498 2669 
C 5658 2733 5677 2739 5760 2765 
L 5427 3136 
C 5280 3034 5101 2950 4768 2842 
C 4454 2733 4275 2688 3891 2618 
L 3891 2739 
z
M 742 -378 
C 1094 70 1216 288 1427 858 
L 1005 1050 
C 819 538 691 314 326 -90 
L 742 -378 
z
M 1830 1088 
C 1856 934 1862 813 1862 621 
L 1862 32 
C 1862 -365 2022 -416 3238 -416 
C 4058 -416 4339 -384 4486 -275 
C 4653 -160 4730 64 4774 550 
C 4589 582 4474 627 4301 717 
C 4294 262 4237 109 4070 51 
C 3981 26 3629 6 3110 6 
C 2784 6 2509 19 2426 45 
C 2349 64 2323 96 2323 173 
L 2323 666 
C 2323 851 2330 947 2362 1088 
L 1830 1088 
z
M 6035 -70 
C 5798 358 5581 659 5203 1094 
L 4813 896 
C 5133 525 5370 160 5606 -333 
L 6035 -70 
z
M 3885 627 
C 3590 915 3405 1056 3072 1261 
L 2746 1005 
C 3072 800 3277 627 3552 333 
L 3885 627 
z
" transform="scale(0.015625)"/>
      <path id="HiraginoSans-W4-30d5" d="M 5222 4595 
C 5082 4550 5024 4544 4736 4544 
L 1690 4544 
C 1293 4544 1146 4550 896 4589 
L 896 3981 
C 1120 4013 1306 4019 1677 4019 
L 4838 4019 
C 4486 2643 3872 1728 2842 1043 
C 2362 723 1984 550 1408 371 
C 1613 173 1670 90 1792 -160 
C 2669 192 3226 531 3814 1069 
C 4589 1786 5082 2637 5414 3859 
C 5510 4198 5510 4198 5555 4282 
L 5222 4595 
z
" transform="scale(0.015625)"/>
      <path id="HiraginoSans-W4-30a9" d="M 3642 211 
C 3642 186 3642 160 3642 141 
C 3642 -70 3635 -205 3616 -352 
L 4179 -352 
C 4154 -198 4147 -77 4147 211 
L 4115 2637 
L 4710 2637 
C 4973 2637 5133 2630 5286 2605 
L 5286 3117 
C 5126 3091 5005 3085 4710 3085 
L 4109 3085 
L 4102 3514 
C 4102 3571 4102 3610 4102 3622 
C 4102 3795 4109 3885 4128 4006 
L 3590 4006 
C 3616 3840 3622 3750 3622 3501 
L 3629 3085 
L 1747 3085 
C 1453 3085 1350 3091 1171 3123 
L 1171 2605 
C 1344 2630 1478 2637 1747 2637 
L 3322 2637 
C 2835 1824 1888 1024 909 589 
C 1082 429 1133 365 1248 166 
C 2362 768 3270 1574 3603 2266 
C 3629 2323 3629 2323 3642 2349 
C 3635 2189 3629 1971 3629 1843 
L 3642 211 
z
" transform="scale(0.015625)"/>
      <path id="HiraginoSans-W4-30fc" d="M 531 2131 
C 755 2157 915 2163 1421 2163 
L 5005 2163 
C 5446 2163 5632 2157 5875 2131 
L 5875 2765 
C 5651 2733 5523 2726 5011 2726 
L 1414 2726 
C 973 2726 736 2739 531 2765 
L 531 2131 
z
" transform="scale(0.015625)"/>
      <path id="HiraginoSans-W4-30eb" d="M 1664 4909 
C 1683 4755 1683 4717 1683 4403 
C 1683 3091 1600 2272 1402 1709 
C 1190 1107 864 653 346 243 
C 570 96 640 26 806 -186 
C 1376 365 1690 819 1907 1427 
C 2144 2074 2195 2541 2246 4314 
C 2259 4710 2259 4717 2285 4877 
L 1664 4909 
z
M 3277 4960 
C 3302 4832 3309 4685 3309 4435 
C 3309 4390 3309 4346 3309 4294 
L 3270 672 
C 3270 371 3264 288 3226 166 
L 3526 -166 
C 3584 -134 3603 -128 3680 -96 
C 3744 -70 3808 -45 3885 -19 
C 4256 128 4512 256 4787 442 
C 5357 826 5779 1363 6106 2118 
C 5901 2291 5837 2355 5683 2560 
C 5530 2074 5299 1670 4960 1312 
C 4646 973 4339 774 3834 570 
L 3866 4288 
C 3872 4666 3878 4768 3910 4954 
L 3277 4960 
z
" transform="scale(0.015625)"/>
      <path id="HiraginoSans-W4-30d0" d="M 1888 4698 
C 1882 3981 1690 3040 1408 2304 
C 1101 1498 781 986 262 480 
C 486 352 550 301 762 83 
C 1677 1088 2163 2266 2438 4128 
C 2483 4448 2496 4499 2522 4582 
L 1888 4698 
z
M 3802 4563 
C 3827 4461 3846 4365 3885 4128 
C 4006 3302 4237 2470 4538 1779 
C 4851 1069 5178 544 5613 58 
C 5798 269 5869 333 6093 480 
C 5421 1152 4966 2003 4646 3155 
C 4493 3718 4378 4339 4358 4678 
L 3802 4563 
z
M 4614 4966 
C 4877 4672 5082 4352 5280 3955 
L 5658 4166 
C 5434 4582 5286 4800 4986 5158 
L 4614 4966 
z
M 5357 5312 
C 5638 4979 5830 4691 6016 4320 
L 6387 4531 
C 6157 4954 6016 5152 5715 5504 
L 5357 5312 
z
" transform="scale(0.015625)"/>
      <path id="HiraginoSans-W4-30c3" d="M 1120 3392 
C 1395 2925 1562 2509 1715 1933 
L 2234 2106 
C 1984 2810 1862 3098 1600 3552 
L 1120 3392 
z
M 2451 3661 
C 2726 3174 2918 2701 3040 2234 
L 3546 2406 
C 3379 2925 3264 3181 2925 3808 
L 2451 3661 
z
M 4666 3686 
C 4666 3443 4582 3046 4435 2630 
C 4019 1434 3277 672 2016 141 
C 2202 -32 2266 -102 2381 -294 
C 3206 115 3776 550 4224 1133 
C 4653 1696 4922 2317 5146 3270 
C 5178 3405 5190 3450 5229 3565 
L 4666 3686 
z
" transform="scale(0.015625)"/>
      <path id="HiraginoSans-W4-30af" d="M 2669 5229 
C 2637 5005 2522 4730 2285 4320 
C 1830 3520 1357 2995 666 2534 
C 890 2400 960 2336 1101 2144 
C 1709 2611 2208 3155 2618 3795 
L 4710 3827 
C 4480 3027 4096 2304 3616 1741 
C 3008 1024 2342 557 1376 166 
C 1574 0 1638 -77 1760 -301 
C 2707 128 3411 634 4000 1306 
C 4550 1939 5005 2790 5286 3731 
C 5363 3968 5370 3981 5427 4064 
L 5114 4371 
C 5011 4333 4973 4326 4742 4320 
C 4550 4314 4006 4307 3110 4294 
C 3072 4294 3072 4294 3034 4294 
C 2925 4288 2925 4288 2874 4275 
C 2950 4403 3002 4506 3155 4832 
C 3232 5005 3238 5005 3296 5082 
L 2669 5229 
z
" transform="scale(0.015625)"/>
     </defs>
     <use xlink:href="#HiraginoSans-W4-28"/>
     <use xlink:href="#HiraginoSans-W4-5b9f" x="36.999985"/>
     <use xlink:href="#HiraginoSans-W4-614b" x="136.999969"/>
     <use xlink:href="#HiraginoSans-W4-20" x="236.999954"/>
     <use xlink:href="#HiraginoSans-W4-43" x="270.299942"/>
     <use xlink:href="#HiraginoSans-W4-50" x="346.899933"/>
     <use xlink:href="#HiraginoSans-W4-55" x="414.499924"/>
     <use xlink:href="#HiraginoSans-W4-2f" x="493.399918"/>
     <use xlink:href="#HiraginoSans-W4-47" x="542.099915"/>
     <use xlink:href="#HiraginoSans-W4-50" x="618.499908"/>
     <use xlink:href="#HiraginoSans-W4-55" x="686.099899"/>
     <use xlink:href="#HiraginoSans-W4-20" x="764.999893"/>
     <use xlink:href="#HiraginoSans-W4-30d5" x="798.299881"/>
     <use xlink:href="#HiraginoSans-W4-30a9" x="898.299866"/>
     <use xlink:href="#HiraginoSans-W4-30fc" x="998.29985"/>
     <use xlink:href="#HiraginoSans-W4-30eb" x="1098.299835"/>
     <use xlink:href="#HiraginoSans-W4-30d0" x="1198.29982"/>
     <use xlink:href="#HiraginoSans-W4-30c3" x="1298.299805"/>
     <use xlink:href="#HiraginoSans-W4-30af" x="1398.299789"/>
     <use xlink:href="#HiraginoSans-W4-29" x="1498.299774"/>
    </g>
   </g>
   <g id="text_12">
    <!-- ○ -->
    <g style="fill: #2e7d32" transform="translate(285.5 162.858125) scale(0.2 -0.2)">
     <use xlink:href="#HiraginoSans-W7-25cb"/>
    </g>
   </g>
   <g id="text_13">
    <!-- ○ -->
    <g style="fill: #2e7d32" transform="translate(378.5 162.858125) scale(0.2 -0.2)">
     <use xlink:href="#HiraginoSans-W7-25cb"/>
    </g>
   </g>
   <g id="text_14">
    <!-- ○ -->
    <g style="fill: #2e7d32" transform="translate(471.5 162.858125) scale(0.2 -0.2)">
     <use xlink:href="#HiraginoSans-W7-25cb"/>
    </g>
   </g>
   <g id="text_15">
    <!-- 候補 -->
    <g style="fill: #2e7d32" transform="translate(563.5 160.234766) scale(0.11 -0.11)">
     <use xlink:href="#HiraginoSans-W7-5019"/>
     <use xlink:href="#HiraginoSans-W7-88dc" x="99.999985"/>
    </g>
   </g>
   <g id="text_16">
    <!-- F16/Int8 × cpuAndNE, all -->
    <g transform="translate(16.5 203.846469) scale(0.1 -0.1)">
     <use xlink:href="#HiraginoSans-W4-46"/>
     <use xlink:href="#HiraginoSans-W4-31" x="61.399994"/>
     <use xlink:href="#HiraginoSans-W4-36" x="128.699982"/>
     <use xlink:href="#HiraginoSans-W4-2f" x="195.999969"/>
     <use xlink:href="#HiraginoSans-W4-49" x="244.699966"/>
     <use xlink:href="#HiraginoSans-W4-6e" x="270.799957"/>
     <use xlink:href="#HiraginoSans-W4-74" x="334.199951"/>
     <use xlink:href="#HiraginoSans-W4-38" x="374.699936"/>
     <use xlink:href="#HiraginoSans-W4-20" x="441.999924"/>
     <use xlink:href="#HiraginoSans-W4-d7" x="475.299911"/>
     <use xlink:href="#HiraginoSans-W4-20" x="541.699905"/>
     <use xlink:href="#HiraginoSans-W4-63" x="574.999893"/>
     <use xlink:href="#HiraginoSans-W4-70" x="634.099884"/>
     <use xlink:href="#HiraginoSans-W4-75" x="700.499878"/>
     <use xlink:href="#HiraginoSans-W4-41" x="763.899872"/>
     <use xlink:href="#HiraginoSans-W4-6e" x="840.499863"/>
     <use xlink:href="#HiraginoSans-W4-64" x="903.899857"/>
     <use xlink:href="#HiraginoSans-W4-4e" x="970.199844"/>
     <use xlink:href="#HiraginoSans-W4-45" x="1048.699829"/>
     <use xlink:href="#HiraginoSans-W4-2c" x="1114.199814"/>
     <use xlink:href="#HiraginoSans-W4-20" x="1139.199799"/>
     <use xlink:href="#HiraginoSans-W4-61" x="1172.499786"/>
     <use xlink:href="#HiraginoSans-W4-6c" x="1231.699783"/>
     <use xlink:href="#HiraginoSans-W4-6c" x="1255.999771"/>
    </g>
    <!-- (HiFi-GAN が ANE 実行) -->
    <g transform="translate(16.5 215.832094) scale(0.1 -0.1)">
     <defs>
      <path id="HiraginoSans-W4-48" d="M 3885 4934 
C 3923 4710 3936 4506 3936 4186 
L 3936 2867 
L 1126 2867 
L 1126 4198 
C 1126 4512 1139 4691 1178 4934 
L 480 4934 
C 518 4698 531 4518 531 4186 
L 531 749 
C 531 416 518 218 480 0 
L 1178 0 
C 1139 237 1126 416 1126 749 
L 1126 2323 
L 3936 2323 
L 3936 749 
C 3936 422 3923 237 3885 0 
L 4582 0 
C 4544 250 4531 416 4531 749 
L 4531 4198 
C 4531 4518 4544 4685 4582 4934 
L 3885 4934 
z
" transform="scale(0.015625)"/>
      <path id="HiraginoSans-W4-69" d="M 442 4934 
L 442 4294 
L 1152 4294 
L 1152 4934 
L 442 4934 
z
M 454 3520 
C 486 3296 499 3085 499 2765 
L 499 755 
C 499 461 486 282 454 0 
L 1133 0 
C 1101 269 1088 448 1088 755 
L 1088 2758 
C 1088 3104 1101 3290 1133 3520 
L 454 3520 
z
" transform="scale(0.015625)"/>
      <path id="HiraginoSans-W4-2d" d="M 192 1581 
C 384 1606 525 1613 781 1613 
L 1606 1613 
C 1875 1613 2010 1606 2202 1581 
L 2202 2202 
C 2022 2176 1882 2170 1606 2170 
L 781 2170 
C 512 2170 371 2176 192 2202 
L 192 1581 
z
" transform="scale(0.015625)"/>
      <path id="HiraginoSans-W4-304c" d="M 531 3002 
C 813 3072 1082 3123 1773 3226 
C 1568 2406 1389 1888 1094 1254 
C 877 781 621 326 429 83 
L 954 -218 
L 1370 589 
C 1792 1459 2067 2234 2310 3270 
C 2496 3290 2611 3296 2746 3296 
C 3315 3296 3494 3091 3494 2438 
C 3494 1722 3398 1075 3232 685 
C 3155 499 3034 403 2880 403 
C 2656 403 2291 512 1939 685 
C 1965 531 1971 448 1971 333 
C 1971 256 1965 218 1958 109 
C 2374 -58 2656 -122 2925 -122 
C 3232 -122 3418 -45 3578 173 
C 3853 538 4026 1395 4026 2413 
C 4026 2957 3936 3251 3718 3475 
C 3514 3674 3232 3757 2797 3757 
C 2656 3757 2560 3757 2406 3744 
C 2438 3891 2509 4301 2541 4467 
C 2598 4826 2618 4934 2656 5062 
L 2054 5133 
L 2054 5043 
C 2054 4781 1978 4224 1875 3699 
C 1338 3616 698 3546 467 3546 
L 531 3002 
z
M 4262 3898 
C 4864 3270 5312 2451 5549 1530 
L 6048 1805 
C 5760 2726 5363 3424 4717 4134 
L 4262 3898 
z
M 5357 5357 
C 5638 5024 5830 4736 6016 4365 
L 6387 4576 
C 6157 4998 6016 5197 5715 5549 
L 5357 5357 
z
M 4614 5011 
C 4877 4717 5082 4397 5280 4000 
L 5658 4211 
C 5434 4627 5286 4845 4986 5203 
L 4614 5011 
z
" transform="scale(0.015625)"/>
      <path id="HiraginoSans-W4-884c" d="M 4538 2912 
L 4538 237 
C 4538 109 4493 83 4269 83 
C 4019 83 3731 109 3379 160 
C 3450 -19 3482 -154 3507 -358 
C 3782 -378 4045 -384 4275 -384 
C 4883 -384 5050 -262 5050 179 
L 5050 2912 
L 5389 2912 
C 5683 2912 5939 2899 6106 2874 
L 6106 3398 
C 5952 3373 5715 3360 5382 3360 
L 3155 3360 
C 2848 3360 2592 3373 2426 3398 
L 2426 2874 
C 2586 2899 2854 2912 3155 2912 
L 4538 2912 
z
M 1786 5357 
C 1690 5139 1549 4947 1280 4666 
C 992 4371 749 4173 346 3930 
C 493 3808 563 3712 672 3533 
C 1280 3962 1722 4384 2131 4922 
C 2182 4992 2195 5011 2240 5056 
L 1786 5357 
z
M 2682 4480 
C 2874 4506 3110 4518 3366 4518 
L 5152 4518 
C 5402 4518 5626 4506 5824 4480 
L 5824 5005 
C 5638 4979 5440 4966 5146 4966 
L 3366 4966 
C 3072 4966 2848 4979 2682 5005 
L 2682 4480 
z
M 1274 307 
C 1274 -26 1261 -294 1229 -480 
L 1818 -480 
C 1786 -294 1773 -26 1773 307 
L 1773 2880 
C 1939 3072 2035 3200 2182 3424 
C 2285 3578 2317 3622 2381 3706 
L 1926 3981 
C 1856 3802 1760 3629 1606 3424 
C 1222 2918 819 2528 333 2202 
C 448 2067 525 1939 602 1747 
C 890 1965 1082 2150 1293 2413 
C 1280 2080 1274 1901 1274 1651 
L 1274 307 
z
" transform="scale(0.015625)"/>
     </defs>
     <use xlink:href="#HiraginoSans-W4-28"/>
     <use xlink:href="#HiraginoSans-W4-48" x="36.999985"/>
     <use xlink:href="#HiraginoSans-W4-69" x="116.199966"/>
     <use xlink:href="#HiraginoSans-W4-46" x="140.999954"/>
     <use xlink:href="#HiraginoSans-W4-69" x="202.399948"/>
     <use xlink:href="#HiraginoSans-W4-2d" x="227.199936"/>
     <use xlink:href="#HiraginoSans-W4-47" x="264.499924"/>
     <use xlink:href="#HiraginoSans-W4-41" x="340.899918"/>
     <use xlink:href="#HiraginoSans-W4-4e" x="417.499908"/>
     <use xlink:href="#HiraginoSans-W4-20" x="495.999893"/>
     <use xlink:href="#HiraginoSans-W4-304c" x="529.299881"/>
     <use xlink:href="#HiraginoSans-W4-20" x="629.299866"/>
     <use xlink:href="#HiraginoSans-W4-41" x="662.599854"/>
     <use xlink:href="#HiraginoSans-W4-4e" x="739.199844"/>
     <use xlink:href="#HiraginoSans-W4-45" x="817.699829"/>
     <use xlink:href="#HiraginoSans-W4-20" x="883.199814"/>
     <use xlink:href="#HiraginoSans-W4-5b9f" x="916.499802"/>
     <use xlink:href="#HiraginoSans-W4-884c" x="1016.499786"/>
     <use xlink:href="#HiraginoSans-W4-29" x="1116.499771"/>
    </g>
   </g>
   <g id="text_17">
    <!-- × -->
    <g style="fill: #c62828" transform="translate(285.5 212.754125) scale(0.2 -0.2)">
     <defs>
      <path id="HiraginoSans-W7-d7" d="M 3872 2432 
L 5203 3770 
L 4550 4422 
L 3213 3078 
L 1856 4435 
L 1203 3782 
L 2560 2432 
L 1197 1056 
L 1850 410 
L 3219 1779 
L 4570 429 
L 5222 1082 
L 3872 2432 
z
" transform="scale(0.015625)"/>
     </defs>
     <use xlink:href="#HiraginoSans-W7-d7"/>
    </g>
   </g>
   <g id="text_18">
    <!-- × -->
    <g style="fill: #c62828" transform="translate(378.5 212.754125) scale(0.2 -0.2)">
     <use xlink:href="#HiraginoSans-W7-d7"/>
    </g>
   </g>
   <g id="text_19">
    <!-- × -->
    <g style="fill: #c62828" transform="translate(471.5 212.754125) scale(0.2 -0.2)">
     <use xlink:href="#HiraginoSans-W7-d7"/>
    </g>
   </g>
   <g id="text_20">
    <!-- 不成立 -->
    <g style="fill: #c62828" transform="translate(558 210.130766) scale(0.11 -0.11)">
     <defs>
      <path id="HiraginoSans-W7-4e0d" d="M 3040 4307 
C 2784 3859 2566 3578 2195 3194 
C 1594 2573 986 2125 154 1702 
C 390 1427 544 1190 659 922 
C 1165 1222 1491 1453 1811 1702 
C 2208 2022 2509 2317 2726 2592 
C 2720 2298 2720 2240 2720 2061 
L 2720 314 
C 2720 0 2707 -294 2675 -550 
L 3635 -550 
C 3603 -294 3590 -19 3590 307 
L 3590 2726 
C 4198 2003 4858 1466 5786 915 
C 5946 1248 6086 1478 6291 1741 
C 5818 1952 5446 2189 4979 2560 
C 4614 2854 4365 3098 4058 3450 
L 3590 2912 
L 3590 3578 
C 3853 3942 3910 4038 4051 4307 
L 5216 4307 
C 5504 4307 5850 4294 6118 4269 
L 6118 5152 
C 5907 5120 5594 5107 5197 5107 
L 1210 5107 
C 864 5107 563 5120 282 5152 
L 282 4269 
C 570 4294 947 4307 1235 4307 
L 3040 4307 
z
" transform="scale(0.015625)"/>
     </defs>
     <use xlink:href="#HiraginoSans-W7-4e0d"/>
     <use xlink:href="#HiraginoSans-W7-6210" x="99.999985"/>
     <use xlink:href="#HiraginoSans-W7-7acb" x="199.999969"/>
    </g>
   </g>
   <g id="text_21">
    <!-- インタラクティブ成立マップ ── 3軸すべてで同じ ANE 4セルが不成立 -->
    <g transform="translate(81.681406 18.288438) scale(0.14 -0.14)">
     <defs>
      <path id="HiraginoSans-W7-30a4" d="M 4877 5242 
C 4685 4922 4256 4493 3693 4058 
C 2682 3277 1613 2752 320 2394 
C 589 2048 666 1920 838 1523 
C 1997 1952 2362 2118 3027 2515 
L 3027 570 
C 3027 45 3021 -115 2989 -358 
L 4045 -358 
C 4019 -141 4013 77 4013 589 
L 4013 3110 
C 4538 3488 5024 3910 5510 4416 
C 5606 4518 5619 4531 5754 4646 
L 4877 5242 
z
" transform="scale(0.015625)"/>
      <path id="HiraginoSans-W7-30f3" d="M 678 4083 
C 1293 3744 1830 3322 2362 2758 
L 3008 3597 
C 2496 4070 2131 4339 1306 4838 
L 678 4083 
z
M 986 -179 
C 1120 -134 1158 -122 1306 -90 
C 1427 -64 1427 -64 1587 -32 
C 2202 102 2938 365 3450 634 
C 4563 1222 5318 2067 5952 3437 
C 5555 3718 5440 3827 5139 4179 
C 4954 3680 4781 3334 4493 2906 
C 3994 2157 3424 1677 2611 1338 
C 2022 1082 1293 909 704 870 
L 986 -179 
z
" transform="scale(0.015625)"/>
      <path id="HiraginoSans-W7-30bf" d="M 2374 5376 
C 2310 5114 2189 4819 2003 4480 
C 1606 3750 1133 3213 403 2643 
C 787 2426 915 2330 1178 2035 
C 1818 2586 2266 3110 2656 3750 
L 4531 3770 
C 4371 3270 4179 2861 3904 2438 
C 3539 2720 3238 2918 2675 3232 
L 2093 2547 
C 2573 2285 2912 2054 3347 1690 
C 3027 1344 2765 1133 2336 858 
C 1958 627 1645 474 1114 262 
C 1421 -26 1530 -160 1747 -544 
C 2656 -128 3354 346 3917 928 
C 4595 1632 5088 2496 5510 3731 
C 5619 4051 5626 4064 5715 4166 
L 5216 4659 
C 5069 4595 4960 4582 4736 4576 
L 3046 4563 
C 3110 4678 3130 4723 3187 4838 
C 3270 5024 3290 5056 3354 5165 
L 2374 5376 
z
" transform="scale(0.015625)"/>
      <path id="HiraginoSans-W7-30e9" d="M 1222 4166 
C 1421 4186 1677 4198 2086 4198 
L 4218 4198 
C 4762 4198 4858 4192 5075 4166 
L 5075 5094 
C 4845 5050 4723 5043 4205 5043 
L 2106 5043 
C 1664 5043 1453 5056 1222 5094 
L 1222 4166 
z
M 685 2592 
C 922 2618 1114 2624 1638 2624 
L 4550 2624 
C 4294 2003 4006 1606 3539 1235 
C 3066 864 2579 640 1805 442 
C 2144 64 2234 -70 2406 -448 
C 3283 -102 3718 122 4154 474 
C 4787 986 5280 1722 5606 2662 
C 5690 2886 5715 2950 5786 3066 
L 5357 3539 
C 5171 3482 5107 3475 4736 3475 
L 1651 3475 
C 1082 3475 960 3482 685 3520 
L 685 2592 
z
" transform="scale(0.015625)"/>
      <path id="HiraginoSans-W7-30af" d="M 2419 5357 
C 2387 5133 2298 4890 2112 4544 
C 1690 3738 1184 3162 435 2643 
C 813 2413 928 2317 1197 1990 
C 1786 2451 2285 3002 2675 3622 
L 4493 3642 
C 3968 2029 2970 1024 1242 352 
C 1581 45 1690 -83 1901 -474 
C 2918 -6 3648 512 4224 1171 
C 4781 1805 5229 2669 5536 3667 
C 5613 3923 5638 3981 5702 4083 
L 5235 4544 
C 5114 4499 4986 4480 4774 4474 
L 3110 4454 
C 3181 4595 3206 4653 3264 4781 
C 3354 4986 3418 5114 3450 5158 
L 2419 5357 
z
" transform="scale(0.015625)"/>
      <path id="HiraginoSans-W7-30c6" d="M 5011 2496 
C 5536 2496 5645 2490 5939 2464 
L 5939 3379 
C 5632 3341 5446 3334 4992 3334 
L 1382 3334 
C 947 3334 755 3347 461 3379 
L 461 2458 
C 717 2490 941 2496 1370 2496 
L 2790 2496 
C 2771 2074 2688 1722 2554 1466 
C 2291 960 1818 627 1024 384 
C 1357 64 1453 -70 1658 -467 
C 2496 -128 2963 211 3302 749 
C 3603 1210 3750 1741 3802 2496 
L 5011 2496 
z
M 1114 4083 
C 1344 4109 1600 4115 2022 4115 
L 4358 4115 
C 4941 4115 5056 4109 5293 4083 
L 5293 4998 
C 5024 4960 4845 4954 4346 4954 
L 2035 4954 
C 1581 4954 1408 4960 1114 4998 
L 1114 4083 
z
" transform="scale(0.015625)"/>
      <path id="HiraginoSans-W7-30a3" d="M 4518 4211 
C 4333 3904 3898 3488 3354 3085 
C 2605 2534 1747 2131 768 1862 
C 998 1562 1069 1446 1235 1082 
C 2118 1408 2528 1587 2976 1869 
L 2976 333 
C 2976 -32 2970 -173 2938 -410 
L 3917 -410 
C 3891 -218 3878 -13 3878 333 
L 3878 2413 
C 4307 2714 4736 3098 5069 3456 
C 5203 3603 5203 3603 5286 3674 
L 4518 4211 
z
" transform="scale(0.015625)"/>
      <path id="HiraginoSans-W7-30d6" d="M 5370 4397 
L 5619 4493 
C 5491 4787 5357 5024 5114 5350 
L 4582 5152 
C 4730 4954 4787 4870 4909 4640 
C 4774 4627 4698 4621 4557 4621 
L 1651 4621 
C 1120 4621 922 4627 646 4666 
L 646 3686 
C 909 3718 1114 3725 1638 3725 
L 4442 3725 
C 4147 2560 3520 1683 2534 1056 
C 2067 762 1715 595 1158 422 
C 1523 58 1626 -83 1837 -493 
C 2758 -83 3373 314 3923 845 
C 4659 1555 5178 2490 5478 3654 
C 5568 4000 5568 4000 5619 4122 
L 5370 4397 
z
M 5344 5395 
C 5562 5094 5709 4845 5843 4538 
L 6368 4762 
C 6246 5062 6080 5325 5862 5600 
L 5344 5395 
z
" transform="scale(0.015625)"/>
      <path id="HiraginoSans-W7-30de" d="M 4614 3821 
C 4608 3808 4608 3808 4570 3744 
C 4442 3526 4320 3347 4134 3117 
C 3827 2739 3488 2394 3072 2029 
C 2771 2362 2413 2694 1920 3098 
L 1178 2566 
C 1638 2189 1952 1882 2458 1312 
C 2989 710 3322 275 3693 -326 
L 4506 314 
C 4154 781 3994 986 3699 1331 
C 4512 2016 5133 2752 5747 3770 
C 5894 4013 5933 4064 6029 4166 
L 5504 4755 
C 5357 4710 5254 4698 5018 4698 
L 1536 4698 
C 1037 4698 813 4704 544 4742 
L 544 3782 
C 826 3808 1011 3814 1517 3814 
L 4614 3821 
z
" transform="scale(0.015625)"/>
      <path id="HiraginoSans-W7-30c3" d="M 941 3526 
C 1222 2957 1344 2624 1517 1926 
L 2374 2189 
C 2150 2912 2022 3232 1741 3757 
L 941 3526 
z
M 2336 3802 
C 2586 3302 2790 2752 2912 2246 
L 3750 2502 
C 3590 3085 3469 3373 3130 4019 
L 2336 3802 
z
M 4538 3891 
C 4531 3680 4499 3469 4422 3155 
C 4160 2131 3738 1472 2995 934 
C 2630 678 2355 531 1869 346 
C 2189 38 2278 -77 2477 -416 
C 3488 96 4058 550 4512 1203 
C 4890 1754 5165 2458 5350 3322 
C 5402 3552 5408 3571 5446 3680 
L 4538 3891 
z
" transform="scale(0.015625)"/>
      <path id="HiraginoSans-W7-20" transform="scale(0.015625)"/>
      <path id="HiraginoSans-W7-2500" d="M 0 2560 
L 0 2304 
L 6400 2304 
L 6400 2560 
L 0 2560 
z
" transform="scale(0.015625)"/>
      <path id="HiraginoSans-W7-33" d="M 243 1158 
C 352 787 435 602 614 390 
C 979 -38 1568 -256 2349 -256 
C 3091 -256 3667 -70 4032 288 
C 4275 525 4422 877 4422 1229 
C 4422 1600 4326 1875 4122 2112 
C 3904 2349 3661 2470 3219 2554 
C 3654 2682 3821 2771 3994 2976 
C 4179 3187 4275 3475 4275 3808 
C 4275 4134 4141 4454 3917 4678 
C 3584 5011 3053 5190 2400 5190 
C 1715 5190 1190 5005 826 4640 
C 608 4422 506 4230 378 3840 
L 1517 3661 
C 1568 3840 1600 3917 1677 4013 
C 1818 4192 2054 4294 2349 4294 
C 2880 4294 3149 4090 3149 3674 
C 3149 3430 3046 3245 2854 3123 
C 2707 3027 2464 2976 2150 2976 
C 1952 2976 1734 2989 1542 3014 
L 1542 2074 
C 1779 2099 1997 2106 2317 2106 
C 2957 2106 3283 1856 3283 1376 
C 3283 922 2925 634 2362 634 
C 2054 634 1792 723 1606 902 
C 1472 1024 1421 1126 1370 1363 
L 243 1158 
z
" transform="scale(0.015625)"/>
      <path id="HiraginoSans-W7-8ef8" d="M 2061 320 
L 2426 320 
C 2669 320 2822 314 3002 288 
L 3002 1056 
C 2816 1024 2669 1018 2419 1018 
L 2061 1018 
L 2061 1325 
L 2342 1325 
C 2669 1325 2765 1325 2925 1312 
C 2912 1485 2906 1677 2906 2003 
L 2906 3213 
C 2906 3507 2912 3718 2925 3866 
C 2790 3853 2682 3846 2362 3846 
L 2061 3846 
L 2061 4147 
L 2445 4147 
C 2771 4147 2874 4141 3053 4122 
L 3053 4877 
C 2854 4851 2765 4845 2445 4845 
L 2061 4845 
L 2061 4877 
C 2061 5133 2067 5261 2099 5414 
L 1286 5414 
C 1312 5254 1325 5107 1325 4877 
L 1325 4845 
L 890 4845 
C 570 4845 474 4851 282 4877 
L 282 4122 
C 486 4141 602 4147 890 4147 
L 1325 4147 
L 1325 3846 
L 1069 3846 
C 723 3846 602 3853 422 3866 
C 442 3674 448 3475 448 3155 
L 448 2048 
C 448 1709 442 1498 422 1306 
C 698 1325 755 1325 1069 1325 
L 1325 1325 
L 1325 1018 
L 845 1018 
C 531 1018 422 1024 237 1050 
L 237 288 
C 422 314 538 320 845 320 
L 1325 320 
L 1325 77 
C 1325 -186 1312 -384 1286 -557 
L 2093 -557 
C 2074 -384 2061 -205 2061 38 
L 2061 320 
z
M 2016 1952 
L 2016 2298 
L 2317 2298 
L 2317 1952 
L 2016 1952 
z
M 2016 2886 
L 2016 3219 
L 2317 3219 
L 2317 2886 
L 2016 2886 
z
M 1376 3219 
L 1376 2886 
L 1062 2886 
L 1062 3219 
L 1376 3219 
z
M 1376 2298 
L 1376 1952 
L 1062 1952 
L 1062 2298 
L 1376 2298 
z
M 4947 4237 
L 4947 4749 
C 4947 5037 4960 5210 4986 5414 
L 4147 5414 
C 4173 5222 4186 5043 4186 4781 
L 4186 4237 
L 3712 4237 
C 3437 4237 3264 4243 3110 4262 
C 3130 4090 3136 3930 3136 3603 
L 3136 218 
C 3136 -90 3123 -307 3104 -550 
L 3853 -550 
L 3853 -275 
L 5299 -275 
L 5299 -557 
L 6074 -557 
C 6048 -282 6035 -13 6035 282 
L 6035 3565 
C 6035 3891 6042 4045 6061 4269 
C 5875 4250 5670 4237 5434 4237 
L 4947 4237 
z
M 4922 467 
L 4922 1670 
L 5331 1670 
L 5331 467 
L 4922 467 
z
M 4922 2394 
L 4922 3482 
L 5331 3482 
L 5331 2394 
L 4922 2394 
z
M 4211 3482 
L 4211 2394 
L 3814 2394 
L 3814 3482 
L 4211 3482 
z
M 4211 1670 
L 4211 467 
L 3814 467 
L 3814 1670 
L 4211 1670 
z
" transform="scale(0.015625)"/>
      <path id="HiraginoSans-W7-3059" d="M 416 3590 
C 966 3667 1798 3712 3322 3757 
C 3322 3398 3322 3398 3322 3366 
C 3328 3290 3328 3290 3328 3264 
C 3181 3354 2976 3405 2726 3405 
C 1933 3405 1370 2906 1370 2208 
C 1370 1843 1510 1555 1798 1331 
C 2022 1165 2278 1075 2566 1075 
C 2970 1075 3245 1184 3469 1434 
C 3424 1229 3322 1075 3123 909 
C 2803 634 2355 461 1677 346 
C 1939 58 2022 -83 2208 -518 
C 2778 -346 3104 -205 3424 6 
C 4096 442 4435 1037 4435 1773 
C 4435 2138 4365 2419 4198 2739 
C 4198 2816 4198 2861 4198 2886 
L 4205 3411 
L 4205 3622 
L 4198 3770 
C 4525 3776 4576 3776 4915 3776 
C 5600 3776 5754 3770 6029 3750 
L 6022 4634 
C 5766 4608 5274 4595 4192 4589 
C 4198 5011 4198 5024 4230 5299 
L 3264 5299 
C 3296 5082 3296 5050 3309 4570 
C 1504 4518 864 4499 723 4499 
C 608 4499 544 4499 390 4512 
L 416 3590 
z
M 2822 2707 
C 3123 2707 3322 2547 3322 2317 
C 3322 2048 3078 1837 2765 1837 
C 2483 1837 2278 2016 2278 2259 
C 2278 2515 2509 2707 2822 2707 
z
" transform="scale(0.015625)"/>
      <path id="HiraginoSans-W7-3079" d="M 4096 4038 
C 4307 3802 4467 3552 4685 3117 
L 5242 3392 
C 5024 3808 4877 4038 4653 4294 
L 4096 4038 
z
M 4858 4390 
C 5056 4160 5242 3866 5434 3494 
L 5978 3770 
C 5792 4128 5606 4397 5382 4640 
L 4858 4390 
z
M 794 1114 
C 858 1197 877 1222 954 1306 
C 1286 1677 1638 2106 1939 2502 
C 2458 3200 2458 3200 2566 3200 
C 2656 3200 2720 3162 2835 3034 
C 3034 2803 3034 2803 3104 2720 
C 3539 2214 3539 2214 3680 2054 
C 4301 1370 5011 646 5542 173 
C 5658 70 5683 45 5754 -32 
L 6227 1037 
C 5997 1171 5805 1325 5434 1677 
C 4749 2310 4237 2854 3578 3629 
C 3398 3840 3258 3987 3162 4064 
C 2976 4211 2778 4288 2573 4288 
C 2240 4288 1952 4109 1632 3699 
C 742 2579 474 2272 186 2067 
L 794 1114 
z
" transform="scale(0.015625)"/>
      <path id="HiraginoSans-W7-3066" d="M 506 3558 
C 749 3603 1094 3648 1446 3680 
C 2874 3789 2906 3789 3539 3859 
C 2650 3347 2189 2643 2189 1786 
C 2189 1050 2534 493 3200 147 
C 3584 -58 4032 -166 4749 -243 
C 4864 -256 4890 -262 4973 -282 
L 5107 755 
C 5030 749 4986 749 4947 749 
C 4710 749 4294 813 4000 896 
C 3462 1050 3168 1395 3168 1869 
C 3168 2458 3603 3046 4326 3462 
C 4755 3706 5274 3853 5690 3853 
C 5747 3853 5766 3853 5843 3840 
L 5792 4819 
C 5677 4794 5638 4787 5075 4762 
C 3315 4685 2214 4634 1773 4602 
C 864 4544 826 4544 704 4544 
C 678 4544 602 4544 454 4550 
L 506 3558 
z
" transform="scale(0.015625)"/>
      <path id="HiraginoSans-W7-3067" d="M 5434 2598 
C 5261 2976 5120 3194 4896 3462 
L 4352 3219 
C 4576 2925 4723 2688 4883 2330 
L 5434 2598 
z
M 6176 2950 
C 5971 3354 5882 3494 5645 3770 
L 5114 3539 
C 5331 3258 5472 3021 5632 2682 
L 6176 2950 
z
M 474 3571 
C 717 3616 1062 3661 1414 3686 
C 2842 3795 2867 3802 3507 3872 
C 2618 3360 2157 2656 2157 1792 
C 2157 1062 2502 506 3168 160 
C 3552 -45 4000 -154 4717 -237 
C 4832 -250 4858 -250 4941 -269 
L 5075 768 
C 4998 762 4954 762 4915 762 
C 4678 762 4262 826 3968 909 
C 3430 1062 3136 1408 3136 1882 
C 3136 2464 3571 3059 4294 3469 
C 4723 3712 5242 3859 5658 3859 
C 5715 3859 5734 3859 5811 3853 
L 5760 4832 
C 5645 4806 5606 4800 5043 4774 
C 3283 4698 2182 4646 1741 4614 
C 832 4557 794 4557 672 4557 
C 646 4557 570 4557 422 4563 
L 474 3571 
z
" transform="scale(0.015625)"/>
      <path id="HiraginoSans-W7-540c" d="M 480 262 
C 480 -51 467 -288 435 -531 
L 1357 -531 
C 1331 -346 1325 -154 1325 243 
L 1325 4435 
L 5101 4435 
L 5101 435 
C 5101 326 5043 294 4819 294 
C 4576 294 4256 314 3891 346 
C 4032 19 4070 -122 4122 -461 
C 4352 -467 4653 -474 4858 -474 
C 5235 -474 5504 -435 5645 -365 
C 5850 -256 5946 -64 5946 256 
L 5946 4474 
C 5946 4787 5952 5024 5971 5222 
C 5830 5203 5562 5197 5222 5197 
L 1235 5197 
C 896 5197 589 5210 454 5222 
C 467 5024 480 4832 480 4544 
L 480 262 
z
M 1562 3264 
C 1715 3283 1862 3290 2138 3290 
L 4282 3290 
C 4563 3290 4710 3283 4870 3264 
L 4870 4058 
C 4704 4038 4614 4032 4282 4032 
L 2144 4032 
C 1818 4032 1709 4038 1562 4058 
L 1562 3264 
z
M 4570 2458 
C 4570 2656 4570 2752 4589 2899 
C 4461 2886 4371 2886 4102 2886 
L 2291 2886 
C 2125 2886 2022 2893 1837 2899 
C 1856 2771 1862 2650 1862 2470 
L 1862 755 
C 1862 525 1850 371 1830 192 
L 2662 192 
L 2662 640 
L 4147 640 
C 4294 640 4390 634 4582 627 
C 4570 755 4570 890 4570 1037 
L 4570 2458 
z
M 2656 2157 
L 3782 2157 
L 3782 1370 
L 2656 1370 
L 2656 2157 
z
" transform="scale(0.015625)"/>
      <path id="HiraginoSans-W7-3058" d="M 3693 4653 
C 3930 4358 4128 4032 4262 3706 
L 4838 3981 
C 4627 4416 4493 4634 4262 4902 
L 3693 4653 
z
M 4474 4998 
C 4691 4717 4877 4416 5030 4083 
L 5594 4365 
C 5427 4710 5242 4992 5024 5248 
L 4474 4998 
z
M 1210 5120 
C 1229 4941 1235 4851 1235 4646 
C 1235 4448 1229 4058 1210 3181 
C 1190 2330 1184 1914 1184 1626 
C 1184 1248 1222 922 1280 710 
C 1382 390 1587 115 1856 -64 
C 2144 -250 2566 -352 3040 -352 
C 3859 -352 4506 -77 4998 467 
C 5331 838 5530 1274 5786 2189 
C 5408 2355 5267 2445 4851 2771 
C 4794 2298 4717 1997 4582 1658 
C 4294 954 3770 570 3091 570 
C 2714 570 2426 685 2291 890 
C 2170 1069 2138 1286 2138 1907 
C 2138 3014 2214 4723 2278 5101 
L 1210 5120 
z
" transform="scale(0.015625)"/>
      <path id="HiraginoSans-W7-41" d="M 5299 -134 
C 5222 26 5107 307 4986 634 
L 3578 4403 
C 3437 4768 3398 4902 3360 5069 
L 1984 5069 
C 1946 4890 1894 4723 1779 4403 
L 384 634 
C 250 269 160 58 58 -134 
L 1325 -134 
C 1357 83 1395 256 1498 544 
L 1715 1165 
L 3648 1165 
L 3866 544 
C 3930 352 3987 128 4032 -134 
L 5299 -134 
z
M 3379 2067 
L 1984 2067 
L 2586 3878 
C 2630 4006 2637 4038 2675 4173 
C 2726 4000 2752 3936 2771 3878 
L 3379 2067 
z
" transform="scale(0.015625)"/>
      <path id="HiraginoSans-W7-4e" d="M 2035 4333 
C 1805 4672 1677 4902 1619 5069 
L 429 5069 
C 467 4787 480 4531 480 4179 
L 480 851 
C 480 397 467 96 429 -134 
L 1568 -134 
C 1530 115 1517 410 1517 845 
L 1517 2714 
C 1517 2842 1504 3110 1498 3219 
C 1478 3443 1478 3443 1472 3520 
C 1645 3187 1754 2995 1882 2803 
L 3354 614 
C 3558 301 3712 38 3789 -134 
L 4992 -134 
C 4954 102 4941 378 4941 755 
L 4941 4141 
C 4941 4550 4954 4800 4992 5069 
L 3846 5069 
C 3891 4794 3904 4563 3904 4147 
L 3904 2208 
C 3904 1971 3923 1632 3942 1408 
C 3808 1664 3654 1920 3507 2138 
L 2035 4333 
z
" transform="scale(0.015625)"/>
      <path id="HiraginoSans-W7-45" d="M 4243 838 
C 3962 806 3757 794 3360 794 
L 1530 794 
L 1530 2093 
L 2995 2093 
C 3418 2093 3616 2080 3891 2048 
L 3891 3046 
C 3590 3014 3354 3002 2995 3002 
L 1536 3002 
L 1536 4147 
L 3283 4147 
C 3686 4147 3904 4134 4173 4102 
L 4173 5114 
C 3846 5082 3629 5069 3283 5069 
L 1299 5069 
C 858 5069 691 5075 429 5088 
C 467 4787 480 4576 480 4211 
L 480 736 
C 480 326 467 102 429 -154 
C 691 -141 870 -134 1306 -134 
L 3354 -134 
C 3770 -134 4006 -147 4243 -179 
L 4243 838 
z
" transform="scale(0.015625)"/>
      <path id="HiraginoSans-W7-34" d="M 141 992 
C 352 1011 570 1018 954 1018 
L 2739 1018 
L 2739 634 
C 2739 301 2726 96 2688 -134 
L 3802 -134 
C 3763 102 3750 282 3750 621 
L 3750 1011 
L 3930 1011 
C 4173 1011 4384 998 4595 973 
L 4595 1958 
C 4358 1920 4160 1907 3930 1907 
L 3750 1907 
L 3750 3994 
C 3750 4461 3763 4698 3795 5069 
L 2714 5069 
C 2560 4826 2451 4691 2157 4333 
L 704 2592 
C 582 2451 397 2234 141 1946 
L 141 992 
z
M 2752 1901 
L 1280 1901 
L 2394 3270 
C 2560 3475 2688 3635 2784 3776 
C 2758 3424 2752 3270 2752 3078 
L 2752 1901 
z
" transform="scale(0.015625)"/>
      <path id="HiraginoSans-W7-30bb" d="M 1722 3699 
L 1190 3642 
C 890 3610 672 3590 544 3590 
C 506 3590 435 3590 352 3597 
L 448 2656 
C 723 2720 749 2726 1286 2790 
L 1722 2848 
L 1722 1414 
C 1722 858 1728 755 1786 550 
C 1862 275 2093 38 2362 -45 
C 2598 -122 3008 -160 3539 -160 
C 3891 -160 4346 -134 4870 -83 
C 5440 -26 5440 -26 5581 -26 
L 5542 992 
C 5229 896 5037 858 4685 806 
C 4346 762 3853 730 3552 730 
C 3334 730 3136 742 2989 768 
C 2810 800 2726 877 2701 1030 
C 2682 1133 2682 1133 2675 1549 
L 2675 2950 
L 4672 3206 
C 4506 2912 4390 2765 4173 2560 
C 3936 2336 3738 2189 3443 2022 
C 3789 1818 3904 1728 4211 1395 
C 4672 1754 4883 1952 5114 2234 
C 5382 2573 5600 2918 5798 3341 
C 5894 3546 5907 3565 5990 3667 
L 5440 4173 
C 5306 4109 5254 4096 4966 4064 
L 2682 3802 
L 2682 4422 
C 2682 4781 2694 4947 2726 5146 
L 1677 5146 
C 1715 4915 1722 4768 1722 4403 
L 1722 3699 
z
" transform="scale(0.015625)"/>
      <path id="HiraginoSans-W7-304c" d="M 4038 4768 
C 4250 4544 4461 4230 4634 3904 
L 5190 4186 
C 5005 4538 4858 4749 4602 5030 
L 4038 4768 
z
M 4826 5107 
C 5050 4851 5222 4602 5408 4269 
L 5958 4557 
C 5792 4864 5600 5126 5370 5370 
L 4826 5107 
z
M 4442 3616 
C 4614 3373 4704 3206 4890 2797 
C 5126 2278 5254 1882 5363 1350 
L 6246 1779 
C 6016 2643 5728 3277 5229 3987 
L 4442 3616 
z
M 410 2829 
C 595 2880 1030 2957 1485 3021 
C 1216 1952 672 666 237 96 
L 1126 -384 
C 1165 -301 1171 -288 1229 -166 
C 1824 1075 2176 2048 2400 3091 
C 2541 3104 2611 3110 2720 3110 
C 2950 3110 3053 3085 3136 3002 
C 3251 2899 3296 2733 3296 2426 
C 3296 1939 3219 1274 3123 966 
C 3046 710 2950 608 2790 608 
C 2579 608 2208 710 1882 851 
C 1946 550 1965 390 1965 166 
C 1965 70 1965 19 1952 -122 
C 2387 -250 2656 -301 2931 -301 
C 3283 -301 3488 -224 3680 -13 
C 4006 339 4198 1229 4198 2374 
C 4198 2976 4115 3290 3898 3552 
C 3686 3802 3354 3923 2899 3923 
C 2803 3923 2714 3917 2560 3910 
C 2579 3987 2579 3994 2605 4128 
C 2694 4653 2746 4928 2752 4954 
C 2765 5024 2778 5075 2797 5139 
L 1805 5235 
C 1811 5190 1811 5158 1811 5139 
C 1811 4896 1766 4518 1651 3846 
C 1325 3795 557 3725 365 3725 
C 352 3725 339 3725 326 3725 
L 410 2829 
z
" transform="scale(0.015625)"/>
     </defs>
     <use xlink:href="#HiraginoSans-W7-30a4"/>
     <use xlink:href="#HiraginoSans-W7-30f3" x="99.999985"/>
     <use xlink:href="#HiraginoSans-W7-30bf" x="199.999969"/>
     <use xlink:href="#HiraginoSans-W7-30e9" x="299.999954"/>
     <use xlink:href="#HiraginoSans-W7-30af" x="399.999939"/>
     <use xlink:href="#HiraginoSans-W7-30c6" x="499.999924"/>
     <use xlink:href="#HiraginoSans-W7-30a3" x="599.999908"/>
     <use xlink:href="#HiraginoSans-W7-30d6" x="699.999893"/>
     <use xlink:href="#HiraginoSans-W7-6210" x="799.999878"/>
     <use xlink:href="#HiraginoSans-W7-7acb" x="899.999863"/>
     <use xlink:href="#HiraginoSans-W7-30de" x="999.999847"/>
     <use xlink:href="#HiraginoSans-W7-30c3" x="1099.999832"/>
     <use xlink:href="#HiraginoSans-W7-30d7" x="1199.999817"/>
     <use xlink:href="#HiraginoSans-W7-20" x="1299.999802"/>
     <use xlink:href="#HiraginoSans-W7-2500" x="1333.299789"/>
     <use xlink:href="#HiraginoSans-W7-2500" x="1433.299774"/>
     <use xlink:href="#HiraginoSans-W7-20" x="1533.299759"/>
     <use xlink:href="#HiraginoSans-W7-33" x="1566.599747"/>
     <use xlink:href="#HiraginoSans-W7-8ef8" x="1640.699738"/>
     <use xlink:href="#HiraginoSans-W7-3059" x="1740.699722"/>
     <use xlink:href="#HiraginoSans-W7-3079" x="1840.699707"/>
     <use xlink:href="#HiraginoSans-W7-3066" x="1940.699692"/>
     <use xlink:href="#HiraginoSans-W7-3067" x="2040.699677"/>
     <use xlink:href="#HiraginoSans-W7-540c" x="2140.699661"/>
     <use xlink:href="#HiraginoSans-W7-3058" x="2240.699646"/>
     <use xlink:href="#HiraginoSans-W7-20" x="2340.699631"/>
     <use xlink:href="#HiraginoSans-W7-41" x="2373.999619"/>
     <use xlink:href="#HiraginoSans-W7-4e" x="2457.6996"/>
     <use xlink:href="#HiraginoSans-W7-45" x="2542.299591"/>
     <use xlink:href="#HiraginoSans-W7-20" x="2612.899582"/>
     <use xlink:href="#HiraginoSans-W7-34" x="2646.19957"/>
     <use xlink:href="#HiraginoSans-W7-30bb" x="2720.299561"/>
     <use xlink:href="#HiraginoSans-W7-30eb" x="2820.299545"/>
     <use xlink:href="#HiraginoSans-W7-304c" x="2920.29953"/>
     <use xlink:href="#HiraginoSans-W7-4e0d" x="3020.299515"/>
     <use xlink:href="#HiraginoSans-W7-6210" x="3120.2995"/>
     <use xlink:href="#HiraginoSans-W7-7acb" x="3220.299484"/>
    </g>
   </g>
  </g>
 </g>
 <defs>
  <clipPath id="p28a5fb26d4">
   <rect x="7.2" y="32.288438" width="613.8" height="199.584"/>
  </clipPath>
 </defs>
</svg>
