<?xml version="1.0" encoding="utf-8" standalone="no"?>
<!DOCTYPE svg PUBLIC "-//W3C//DTD SVG 1.1//EN"
  "http://www.w3.org/Graphics/SVG/1.1/DTD/svg11.dtd">
<svg xmlns:xlink="http://www.w3.org/1999/xlink" width="727.164687pt" height="334.057969pt" viewBox="0 0 727.164687 334.057969" xmlns="http://www.w3.org/2000/svg" version="1.1">
 <metadata>
  <rdf:RDF xmlns:dc="http://purl.org/dc/elements/1.1/" xmlns:cc="http://creativecommons.org/ns#" xmlns:rdf="http://www.w3.org/1999/02/22-rdf-syntax-ns#">
   <cc:Work>
    <dc:type rdf:resource="http://purl.org/dc/dcmitype/StillImage"/>
    <dc:date>2026-06-21T21:08:23.683986</dc:date>
    <dc:format>image/svg+xml</dc:format>
    <dc:creator>
     <cc:Agent>
      <dc:title>Matplotlib v3.9.4, https://matplotlib.org/</dc:title>
     </cc:Agent>
    </dc:creator>
   </cc:Work>
  </rdf:RDF>
 </metadata>
 <defs>
  <style type="text/css">*{stroke-linejoin: round; stroke-linecap: butt}</style>
 </defs>
 <g id="figure_1">
  <g id="patch_1">
   <path d="M 0 334.057969 
L 727.164688 334.057969 
L 727.164688 0 
L 0 0 
z
" style="fill: #ffffff"/>
  </g>
  <g id="axes_1">
   <g id="patch_2">
    <path d="M 50.364688 300.696406 
L 719.964688 300.696406 
L 719.964688 23.496406 
L 50.364688 23.496406 
z
" style="fill: #ffffff"/>
   </g>
   <g id="patch_3">
    <path d="M 80.801051 300.696406 
L 122.070697 300.696406 
L 122.070697 208.408271 
L 80.801051 208.408271 
z
" clip-path="url(#pfa937790dc)" style="fill: #2e7d32; stroke: #000000; stroke-width: 0.4; stroke-linejoin: miter"/>
   </g>
   <g id="patch_4">
    <path d="M 132.388108 300.696406 
L 173.657754 300.696406 
L 173.657754 156.87074 
L 132.388108 156.87074 
z
" clip-path="url(#pfa937790dc)" style="fill: #2e7d32; stroke: #000000; stroke-width: 0.4; stroke-linejoin: miter"/>
   </g>
   <g id="patch_5">
    <path d="M 183.975165 300.696406 
L 225.244811 300.696406 
L 225.244811 203.614082 
L 183.975165 203.614082 
z
" clip-path="url(#pfa937790dc)" style="fill: #2e7d32; stroke: #000000; stroke-width: 0.4; stroke-linejoin: miter"/>
   </g>
   <g id="patch_6">
    <path d="M 235.562222 300.696406 
L 276.831868 300.696406 
L 276.831868 156.87074 
L 235.562222 156.87074 
z
" clip-path="url(#pfa937790dc)" style="fill: #2e7d32; stroke: #000000; stroke-width: 0.4; stroke-linejoin: miter"/>
   </g>
   <g id="patch_7">
    <path d="M 287.149279 300.696406 
L 328.418925 300.696406 
L 328.418925 206.011176 
L 287.149279 206.011176 
z
" clip-path="url(#pfa937790dc)" style="fill: #2e7d32; stroke: #000000; stroke-width: 0.4; stroke-linejoin: miter"/>
   </g>
   <g id="patch_8">
    <path d="M 338.736336 300.696406 
L 380.005982 300.696406 
L 380.005982 174.848949 
L 338.736336 174.848949 
z
" clip-path="url(#pfa937790dc)" style="fill: #2e7d32; stroke: #000000; stroke-width: 0.4; stroke-linejoin: miter"/>
   </g>
   <g id="patch_9">
    <path d="M 390.323393 300.696406 
L 431.593039 300.696406 
L 431.593039 66.979699 
L 390.323393 66.979699 
z
" clip-path="url(#pfa937790dc)" style="fill: #c62828; stroke: #000000; stroke-width: 0.4; stroke-linejoin: miter"/>
   </g>
   <g id="patch_10">
    <path d="M 441.91045 300.696406 
L 483.180096 300.696406 
L 483.180096 74.170983 
L 441.91045 74.170983 
z
" clip-path="url(#pfa937790dc)" style="fill: #c62828; stroke: #000000; stroke-width: 0.4; stroke-linejoin: miter"/>
   </g>
   <g id="patch_11">
    <path d="M 493.497507 300.696406 
L 534.767153 300.696406 
L 534.767153 183.238779 
L 493.497507 183.238779 
z
" clip-path="url(#pfa937790dc)" style="fill: #2e7d32; stroke: #000000; stroke-width: 0.4; stroke-linejoin: miter"/>
   </g>
   <g id="patch_12">
    <path d="M 545.084564 300.696406 
L 586.35421 300.696406 
L 586.35421 156.87074 
L 545.084564 156.87074 
z
" clip-path="url(#pfa937790dc)" style="fill: #2e7d32; stroke: #000000; stroke-width: 0.4; stroke-linejoin: miter"/>
   </g>
   <g id="patch_13">
    <path d="M 596.671621 300.696406 
L 637.941267 300.696406 
L 637.941267 65.781152 
L 596.671621 65.781152 
z
" clip-path="url(#pfa937790dc)" style="fill: #c62828; stroke: #000000; stroke-width: 0.4; stroke-linejoin: miter"/>
   </g>
   <g id="patch_14">
    <path d="M 648.258678 300.696406 
L 689.528324 300.696406 
L 689.528324 72.972435 
L 648.258678 72.972435 
z
" clip-path="url(#pfa937790dc)" style="fill: #c62828; stroke: #000000; stroke-width: 0.4; stroke-linejoin: miter"/>
   </g>
   <g id="matplotlib.axis_1">
    <g id="xtick_1">
     <g id="line2d_1">
      <defs>
       <path id="maf4791d7f0" d="M 0 0 
L 0 3.5 
" style="stroke: #000000; stroke-width: 0.8"/>
      </defs>
      <g>
       <use xlink:href="#maf4791d7f0" x="101.435874" y="300.696406" style="stroke: #000000; stroke-width: 0.8"/>
      </g>
     </g>
     <g id="text_1">
      <!-- Float32 -->
      <g transform="translate(84.165015 314.634844) scale(0.09 -0.09)">
       <defs>
        <path id="HiraginoSans-W4-46" d="M 1133 2285 
L 2598 2285 
C 2950 2285 3149 2272 3366 2240 
L 3366 2867 
C 3130 2835 2938 2822 2598 2822 
L 1133 2822 
L 1133 4390 
L 2944 4390 
C 3296 4390 3494 4378 3712 4346 
L 3712 4979 
C 3469 4947 3270 4934 2938 4934 
L 1210 4934 
C 896 4934 698 4941 480 4954 
C 518 4698 531 4493 531 4198 
L 531 794 
C 531 429 518 218 480 0 
L 1184 0 
C 1146 237 1133 429 1133 800 
L 1133 2285 
z
" transform="scale(0.015625)"/>
        <path id="HiraginoSans-W4-6c" d="M 442 4934 
C 474 4704 486 4518 486 4179 
L 486 755 
C 486 429 474 250 442 0 
L 1120 0 
C 1088 262 1075 448 1075 755 
L 1075 4179 
C 1075 4512 1088 4698 1120 4934 
L 442 4934 
z
" transform="scale(0.015625)"/>
        <path id="HiraginoSans-W4-6f" d="M 2054 -90 
C 3110 -90 3802 640 3802 1766 
C 3802 2893 3117 3610 2042 3610 
C 966 3610 282 2886 282 1760 
C 282 627 966 -90 2054 -90 
z
M 2054 3130 
C 2771 3130 3213 2605 3213 1754 
C 3213 909 2771 397 2042 397 
C 1318 397 870 922 870 1766 
C 870 2611 1325 3130 2054 3130 
z
" transform="scale(0.015625)"/>
        <path id="HiraginoSans-W4-61" d="M 2765 0 
L 3373 0 
C 3334 269 3322 422 3322 736 
L 3322 2515 
C 3322 2867 3238 3110 3046 3290 
C 2816 3514 2464 3622 1978 3622 
C 1485 3622 1094 3507 813 3270 
C 627 3123 531 2976 416 2656 
L 1011 2541 
C 1069 2714 1114 2797 1197 2886 
C 1370 3066 1626 3155 1971 3155 
C 2515 3155 2765 2950 2765 2515 
L 2765 2182 
C 1933 2163 1581 2118 1197 1997 
C 646 1818 333 1434 333 941 
C 333 320 774 -58 1491 -58 
C 1741 -58 1978 -19 2195 64 
C 2406 141 2522 218 2765 429 
L 2765 0 
z
M 2765 1363 
C 2765 1126 2707 973 2554 813 
C 2304 557 1920 397 1568 397 
C 1165 397 915 608 915 941 
C 915 1235 1075 1440 1395 1568 
C 1677 1683 2035 1728 2765 1747 
L 2765 1363 
z
" transform="scale(0.015625)"/>
        <path id="HiraginoSans-W4-74" d="M 851 4480 
C 877 4262 896 4006 896 3750 
L 896 3520 
L 646 3520 
C 378 3520 250 3526 70 3558 
L 70 2995 
C 275 3021 416 3034 640 3034 
L 896 3034 
L 896 787 
C 896 461 954 269 1094 134 
C 1235 6 1466 -64 1773 -64 
C 2042 -64 2246 -26 2515 83 
L 2374 602 
C 2176 486 2048 448 1875 448 
C 1741 448 1632 486 1568 544 
C 1504 608 1478 698 1478 883 
L 1478 3034 
L 1779 3034 
C 2074 3034 2221 3027 2426 2995 
L 2426 3558 
C 2214 3526 2074 3520 1773 3520 
L 1478 3520 
L 1478 3750 
C 1478 4026 1498 4275 1523 4480 
L 851 4480 
z
" transform="scale(0.015625)"/>
        <path id="HiraginoSans-W4-33" d="M 282 1101 
C 397 768 474 621 621 448 
C 934 90 1434 -96 2112 -96 
C 2720 -96 3213 70 3533 384 
C 3770 614 3904 954 3904 1306 
C 3904 1677 3802 1958 3597 2182 
C 3379 2419 3130 2528 2688 2586 
C 2995 2650 3130 2701 3290 2816 
C 3578 3021 3738 3366 3738 3757 
C 3738 4538 3117 5043 2157 5043 
C 1594 5043 1146 4883 845 4576 
C 666 4390 582 4237 467 3891 
L 1107 3757 
C 1171 3981 1216 4083 1306 4192 
C 1478 4416 1741 4525 2125 4525 
C 2746 4525 3110 4224 3110 3725 
C 3110 3482 3021 3264 2867 3110 
C 2669 2918 2374 2829 1965 2829 
C 1779 2829 1613 2842 1459 2861 
L 1459 2272 
C 1651 2298 1811 2310 2003 2310 
C 2829 2310 3264 1990 3264 1376 
C 3264 794 2816 429 2106 429 
C 1779 429 1510 506 1293 666 
C 1107 800 1024 928 928 1248 
L 282 1101 
z
" transform="scale(0.015625)"/>
        <path id="HiraginoSans-W4-32" d="M 3078 0 
C 3424 0 3642 -6 3917 -32 
L 3917 589 
C 3693 557 3430 544 3091 544 
L 1114 544 
C 1280 1114 1606 1478 2451 2042 
C 3181 2528 3341 2656 3546 2912 
C 3738 3142 3846 3443 3846 3744 
C 3846 4525 3200 5030 2202 5030 
C 1613 5030 1158 4858 858 4518 
C 640 4269 531 4026 442 3565 
L 1088 3469 
C 1139 3782 1190 3936 1306 4102 
C 1491 4371 1792 4506 2208 4506 
C 2816 4506 3206 4211 3206 3744 
C 3206 3360 2995 3085 2387 2675 
C 1754 2246 1600 2138 1389 1952 
C 979 1594 710 1229 544 806 
C 448 563 429 461 365 -26 
C 576 -6 678 0 1107 0 
L 3078 0 
z
" transform="scale(0.015625)"/>
       </defs>
       <use xlink:href="#HiraginoSans-W4-46"/>
       <use xlink:href="#HiraginoSans-W4-6c" x="61.399994"/>
       <use xlink:href="#HiraginoSans-W4-6f" x="85.699982"/>
       <use xlink:href="#HiraginoSans-W4-61" x="149.499969"/>
       <use xlink:href="#HiraginoSans-W4-74" x="208.699966"/>
       <use xlink:href="#HiraginoSans-W4-33" x="249.199951"/>
       <use xlink:href="#HiraginoSans-W4-32" x="316.499939"/>
      </g>
      <!-- cpuOnly -->
      <g transform="translate(82.77353 324.967969) scale(0.09 -0.09)">
       <defs>
        <path id="HiraginoSans-W4-63" d="M 3475 2573 
C 3405 2758 3347 2867 3251 3002 
C 2970 3405 2522 3616 1965 3616 
C 947 3616 282 2874 282 1747 
C 282 627 954 -90 1990 -90 
C 2534 -90 2970 102 3258 480 
C 3366 621 3430 742 3520 986 
L 2950 1126 
C 2899 966 2867 890 2816 806 
C 2650 550 2362 410 2010 410 
C 1312 410 870 934 870 1760 
C 870 2598 1299 3130 1984 3130 
C 2438 3130 2739 2899 2912 2413 
L 3475 2573 
z
" transform="scale(0.015625)"/>
        <path id="HiraginoSans-W4-70" d="M 1101 -1312 
C 1069 -1075 1056 -877 1056 -550 
L 1056 128 
C 1056 301 1050 397 1037 570 
C 1363 154 1792 -51 2349 -51 
C 3334 -51 3968 659 3968 1773 
C 3968 2906 3354 3590 2336 3590 
C 1766 3590 1344 3379 1037 2944 
C 1050 3078 1050 3117 1050 3194 
L 1050 3520 
L 442 3520 
C 474 3277 486 3078 486 2752 
L 486 -557 
C 486 -845 474 -1056 442 -1312 
L 1101 -1312 
z
M 2272 442 
C 1952 442 1626 570 1421 781 
C 1197 1005 1062 1376 1062 1766 
C 1062 2547 1555 3091 2278 3091 
C 2976 3091 3373 2611 3373 1773 
C 3373 941 2957 442 2272 442 
z
" transform="scale(0.015625)"/>
        <path id="HiraginoSans-W4-75" d="M 2944 3520 
C 2976 3264 2989 3046 2989 2765 
L 2989 1510 
C 2918 1248 2835 1094 2662 890 
C 2400 576 2125 435 1792 435 
C 1306 435 1056 723 1056 1286 
L 1056 2765 
C 1056 3066 1069 3251 1101 3520 
L 429 3520 
C 461 3302 474 3104 474 2771 
L 474 1197 
C 474 858 538 608 666 416 
C 877 109 1242 -58 1709 -58 
C 2272 -58 2682 166 3002 653 
C 2989 493 2989 461 2989 378 
L 2989 0 
L 3616 0 
C 3578 256 3565 442 3565 755 
L 3565 2765 
C 3565 3091 3578 3264 3616 3520 
L 2944 3520 
z
" transform="scale(0.015625)"/>
        <path id="HiraginoSans-W4-4f" d="M 2586 5030 
C 1210 5030 320 4026 320 2470 
C 320 902 1203 -96 2579 -96 
C 3962 -96 4845 909 4845 2470 
C 4845 4038 3968 5030 2586 5030 
z
M 2592 442 
C 1594 442 941 1248 941 2470 
C 941 3699 1587 4493 2586 4493 
C 3008 4493 3386 4346 3667 4064 
C 4026 3706 4218 3155 4218 2464 
C 4218 1229 3584 442 2592 442 
z
" transform="scale(0.015625)"/>
        <path id="HiraginoSans-W4-6e" d="M 1114 0 
C 1082 256 1069 474 1069 755 
L 1069 2010 
C 1139 2272 1222 2426 1395 2630 
C 1658 2944 1933 3085 2266 3085 
C 2752 3085 3002 2797 3002 2234 
L 3002 755 
C 3002 454 2989 269 2957 0 
L 3629 0 
C 3597 218 3584 416 3584 749 
L 3584 2323 
C 3584 2662 3520 2912 3392 3110 
C 3181 3418 2816 3584 2349 3584 
C 1779 3584 1376 3360 1056 2867 
C 1069 3027 1069 3059 1069 3142 
L 1069 3520 
L 442 3520 
C 480 3264 493 3078 493 2765 
L 493 755 
C 493 429 480 256 442 0 
L 1114 0 
z
" transform="scale(0.015625)"/>
        <path id="HiraginoSans-W4-79" d="M 1600 154 
L 1325 -486 
C 1229 -710 1069 -832 858 -832 
C 730 -832 621 -800 442 -717 
L 301 -1274 
C 550 -1325 710 -1344 864 -1344 
C 1357 -1344 1664 -1146 1843 -717 
L 3283 2758 
C 3462 3181 3571 3437 3603 3520 
L 2912 3520 
C 2880 3334 2829 3168 2694 2816 
L 1901 768 
L 1011 2822 
C 902 3072 819 3341 787 3520 
L 64 3520 
C 134 3386 134 3386 422 2758 
L 1600 154 
z
" transform="scale(0.015625)"/>
       </defs>
       <use xlink:href="#HiraginoSans-W4-63"/>
       <use xlink:href="#HiraginoSans-W4-70" x="59.099991"/>
       <use xlink:href="#HiraginoSans-W4-75" x="125.499985"/>
       <use xlink:href="#HiraginoSans-W4-4f" x="188.899979"/>
       <use xlink:href="#HiraginoSans-W4-6e" x="269.59996"/>
       <use xlink:href="#HiraginoSans-W4-6c" x="332.999954"/>
       <use xlink:href="#HiraginoSans-W4-79" x="357.299942"/>
      </g>
     </g>
    </g>
    <g id="xtick_2">
     <g id="line2d_2">
      <g>
       <use xlink:href="#maf4791d7f0" x="153.022931" y="300.696406" style="stroke: #000000; stroke-width: 0.8"/>
      </g>
     </g>
     <g id="text_2">
      <!-- Float32 -->
      <g transform="translate(135.752072 314.634844) scale(0.09 -0.09)">
       <use xlink:href="#HiraginoSans-W4-46"/>
       <use xlink:href="#HiraginoSans-W4-6c" x="61.399994"/>
       <use xlink:href="#HiraginoSans-W4-6f" x="85.699982"/>
       <use xlink:href="#HiraginoSans-W4-61" x="149.499969"/>
       <use xlink:href="#HiraginoSans-W4-74" x="208.699966"/>
       <use xlink:href="#HiraginoSans-W4-33" x="249.199951"/>
       <use xlink:href="#HiraginoSans-W4-32" x="316.499939"/>
      </g>
      <!-- cpuAndGPU -->
      <g transform="translate(125.208009 324.989906) scale(0.09 -0.09)">
       <defs>
        <path id="HiraginoSans-W4-41" d="M 4826 0 
C 4730 166 4646 352 4486 742 
L 3053 4326 
C 2899 4710 2867 4806 2835 4934 
L 2054 4934 
C 2022 4781 1971 4634 1850 4326 
L 422 742 
C 269 358 198 205 83 0 
L 858 0 
C 902 230 954 397 1056 659 
L 1363 1453 
L 3546 1453 
L 3859 659 
C 3930 467 4006 218 4051 0 
L 4826 0 
z
M 3366 1978 
L 1542 1978 
L 2317 4026 
C 2330 4058 2349 4122 2381 4211 
C 2394 4256 2419 4333 2451 4422 
C 2566 4083 2566 4083 2586 4026 
L 3366 1978 
z
" transform="scale(0.015625)"/>
        <path id="HiraginoSans-W4-64" d="M 3187 0 
L 3802 0 
C 3770 250 3757 442 3757 774 
L 3757 4173 
C 3757 4467 3770 4666 3802 4934 
L 3142 4934 
C 3174 4691 3187 4486 3187 4173 
L 3187 3398 
C 3187 3296 3187 3194 3194 3149 
C 3200 3040 3200 3040 3206 2970 
C 2918 3379 2470 3597 1901 3597 
C 909 3597 282 2886 282 1766 
C 282 1171 461 672 794 339 
C 1069 70 1446 -64 1914 -64 
C 2483 -64 2880 128 3206 563 
C 3200 480 3187 365 3187 288 
L 3187 0 
z
M 1971 3098 
C 2310 3098 2618 2976 2842 2752 
C 3059 2541 3181 2189 3181 1786 
C 3181 966 2707 429 1978 429 
C 1709 429 1459 512 1274 672 
C 1024 890 883 1280 883 1786 
C 883 2598 1293 3098 1971 3098 
z
" transform="scale(0.015625)"/>
        <path id="HiraginoSans-W4-47" d="M 3859 2010 
L 3859 794 
C 3494 557 3104 448 2618 448 
C 2125 448 1734 602 1459 909 
C 1126 1274 947 1824 947 2496 
C 947 3731 1568 4506 2560 4506 
C 3258 4506 3648 4243 3872 3629 
L 4486 3808 
C 4346 4160 4224 4346 4013 4550 
C 3667 4877 3187 5043 2592 5043 
C 1210 5043 320 4051 320 2496 
C 320 1664 576 947 1037 493 
C 1427 115 1939 -70 2630 -70 
C 3334 -70 3808 64 4480 467 
C 4442 736 4435 890 4435 1210 
L 4435 1818 
C 4435 2125 4442 2278 4480 2566 
C 4294 2547 4115 2541 3776 2541 
L 3552 2541 
C 3181 2541 3021 2547 2835 2579 
L 2835 1971 
C 3008 2003 3162 2010 3494 2010 
L 3859 2010 
z
" transform="scale(0.015625)"/>
        <path id="HiraginoSans-W4-50" d="M 1178 0 
C 1139 230 1126 435 1126 755 
L 1126 1965 
L 2496 1965 
C 3533 1965 4128 2522 4128 3494 
C 4128 4416 3558 4934 2528 4934 
L 1210 4934 
C 909 4934 710 4941 480 4954 
C 518 4678 531 4480 531 4198 
L 531 749 
C 531 429 518 243 480 0 
L 1178 0 
z
M 1126 2490 
L 1126 4410 
L 2496 4410 
C 3162 4410 3507 4083 3507 3469 
C 3507 2842 3142 2490 2496 2490 
L 1126 2490 
z
" transform="scale(0.015625)"/>
        <path id="HiraginoSans-W4-55" d="M 3872 4934 
C 3910 4710 3923 4506 3923 4160 
L 3923 1843 
C 3923 934 3430 435 2528 435 
C 1626 435 1126 941 1126 1843 
L 1126 4160 
C 1126 4518 1139 4730 1178 4934 
L 474 4934 
C 512 4717 525 4506 525 4160 
L 525 1824 
C 525 589 1235 -96 2515 -96 
C 3155 -96 3686 90 4019 429 
C 4352 768 4525 1242 4525 1824 
L 4525 4173 
C 4525 4512 4538 4710 4576 4934 
L 3872 4934 
z
" transform="scale(0.015625)"/>
       </defs>
       <use xlink:href="#HiraginoSans-W4-63"/>
       <use xlink:href="#HiraginoSans-W4-70" x="59.099991"/>
       <use xlink:href="#HiraginoSans-W4-75" x="125.499985"/>
       <use xlink:href="#HiraginoSans-W4-41" x="188.899979"/>
       <use xlink:href="#HiraginoSans-W4-6e" x="265.499969"/>
       <use xlink:href="#HiraginoSans-W4-64" x="328.899963"/>
       <use xlink:href="#HiraginoSans-W4-47" x="395.199951"/>
       <use xlink:href="#HiraginoSans-W4-50" x="471.599945"/>
       <use xlink:href="#HiraginoSans-W4-55" x="539.199936"/>
      </g>
     </g>
    </g>
    <g id="xtick_3">
     <g id="line2d_3">
      <g>
       <use xlink:href="#maf4791d7f0" x="204.609988" y="300.696406" style="stroke: #000000; stroke-width: 0.8"/>
      </g>
     </g>
     <g id="text_3">
      <!-- Float32 -->
      <g transform="translate(187.339129 314.634844) scale(0.09 -0.09)">
       <use xlink:href="#HiraginoSans-W4-46"/>
       <use xlink:href="#HiraginoSans-W4-6c" x="61.399994"/>
       <use xlink:href="#HiraginoSans-W4-6f" x="85.699982"/>
       <use xlink:href="#HiraginoSans-W4-61" x="149.499969"/>
       <use xlink:href="#HiraginoSans-W4-74" x="208.699966"/>
       <use xlink:href="#HiraginoSans-W4-33" x="249.199951"/>
       <use xlink:href="#HiraginoSans-W4-32" x="316.499939"/>
      </g>
      <!-- cpuAndNE -->
      <g transform="translate(180.345847 324.881906) scale(0.09 -0.09)">
       <defs>
        <path id="HiraginoSans-W4-4e" d="M 480 4934 
C 518 4698 531 4493 531 4186 
L 531 819 
C 531 454 518 198 480 0 
L 1171 0 
C 1133 218 1120 454 1120 819 
L 1120 3078 
C 1120 3347 1107 3795 1082 4186 
C 1190 3974 1389 3635 1459 3526 
L 3392 608 
C 3578 326 3654 205 3750 0 
L 4538 0 
C 4499 218 4486 416 4486 749 
L 4486 4154 
C 4486 4499 4499 4698 4538 4934 
L 3846 4934 
C 3885 4704 3898 4486 3898 4160 
L 3898 1843 
C 3898 1638 3910 1248 3936 736 
C 3795 992 3603 1306 3494 1466 
L 1587 4326 
C 1395 4621 1299 4794 1248 4934 
L 480 4934 
z
" transform="scale(0.015625)"/>
        <path id="HiraginoSans-W4-45" d="M 3872 582 
C 3629 550 3450 538 3130 538 
L 1133 538 
L 1133 2323 
L 2778 2323 
C 3130 2323 3302 2310 3533 2278 
L 3533 2899 
C 3283 2867 3078 2854 2778 2854 
L 1133 2854 
L 1133 4397 
L 3066 4397 
C 3405 4397 3597 4384 3814 4352 
L 3814 4979 
C 3603 4947 3366 4934 3066 4934 
L 1210 4934 
C 896 4934 698 4941 480 4954 
C 518 4659 531 4486 531 4192 
L 531 768 
C 531 429 518 224 480 -13 
C 717 0 870 0 1210 0 
L 3130 0 
C 3482 0 3654 -6 3872 -38 
L 3872 582 
z
" transform="scale(0.015625)"/>
       </defs>
       <use xlink:href="#HiraginoSans-W4-63"/>
       <use xlink:href="#HiraginoSans-W4-70" x="59.099991"/>
       <use xlink:href="#HiraginoSans-W4-75" x="125.499985"/>
       <use xlink:href="#HiraginoSans-W4-41" x="188.899979"/>
       <use xlink:href="#HiraginoSans-W4-6e" x="265.499969"/>
       <use xlink:href="#HiraginoSans-W4-64" x="328.899963"/>
       <use xlink:href="#HiraginoSans-W4-4e" x="395.199951"/>
       <use xlink:href="#HiraginoSans-W4-45" x="473.699936"/>
      </g>
     </g>
    </g>
    <g id="xtick_4">
     <g id="line2d_4">
      <g>
       <use xlink:href="#maf4791d7f0" x="256.197045" y="300.696406" style="stroke: #000000; stroke-width: 0.8"/>
      </g>
     </g>
     <g id="text_4">
      <!-- Float32 -->
      <g transform="translate(238.926186 314.634844) scale(0.09 -0.09)">
       <use xlink:href="#HiraginoSans-W4-46"/>
       <use xlink:href="#HiraginoSans-W4-6c" x="61.399994"/>
       <use xlink:href="#HiraginoSans-W4-6f" x="85.699982"/>
       <use xlink:href="#HiraginoSans-W4-61" x="149.499969"/>
       <use xlink:href="#HiraginoSans-W4-74" x="208.699966"/>
       <use xlink:href="#HiraginoSans-W4-33" x="249.199951"/>
       <use xlink:href="#HiraginoSans-W4-32" x="316.499939"/>
      </g>
      <!-- all -->
      <g transform="translate(251.346186 324.805969) scale(0.09 -0.09)">
       <use xlink:href="#HiraginoSans-W4-61"/>
       <use xlink:href="#HiraginoSans-W4-6c" x="59.199997"/>
       <use xlink:href="#HiraginoSans-W4-6c" x="83.499985"/>
      </g>
     </g>
    </g>
    <g id="xtick_5">
     <g id="line2d_5">
      <g>
       <use xlink:href="#maf4791d7f0" x="307.784102" y="300.696406" style="stroke: #000000; stroke-width: 0.8"/>
      </g>
     </g>
     <g id="text_5">
      <!-- Float16 -->
      <g transform="translate(290.513243 314.634844) scale(0.09 -0.09)">
       <defs>
        <path id="HiraginoSans-W4-31" d="M 1018 4371 
C 1222 4397 1389 4410 1606 4410 
L 1939 4410 
L 1939 755 
C 1939 454 1926 237 1888 0 
L 2598 0 
C 2560 250 2547 448 2547 755 
L 2547 3904 
C 2547 4256 2566 4582 2605 4966 
C 2387 4941 2278 4934 2035 4934 
L 1581 4934 
C 1325 4934 1197 4941 1018 4966 
L 1018 4371 
z
" transform="scale(0.015625)"/>
        <path id="HiraginoSans-W4-36" d="M 3846 3994 
C 3706 4301 3616 4442 3462 4602 
C 3187 4877 2784 5024 2304 5024 
C 1683 5024 1222 4794 864 4307 
C 557 3891 371 3162 371 2355 
C 371 1446 614 704 1043 320 
C 1331 58 1773 -90 2253 -90 
C 3277 -90 3968 589 3968 1587 
C 3968 2586 3334 3213 2323 3213 
C 1894 3213 1568 3104 1274 2854 
C 1133 2739 1062 2656 941 2458 
C 979 3085 1043 3392 1210 3763 
C 1434 4262 1798 4518 2285 4518 
C 2765 4518 3040 4314 3238 3821 
L 3846 3994 
z
M 2266 2714 
C 2950 2714 3366 2285 3366 1574 
C 3366 1325 3309 1088 3206 922 
C 3008 614 2643 422 2234 422 
C 1568 422 1069 915 1069 1574 
C 1069 2234 1574 2714 2266 2714 
z
" transform="scale(0.015625)"/>
       </defs>
       <use xlink:href="#HiraginoSans-W4-46"/>
       <use xlink:href="#HiraginoSans-W4-6c" x="61.399994"/>
       <use xlink:href="#HiraginoSans-W4-6f" x="85.699982"/>
       <use xlink:href="#HiraginoSans-W4-61" x="149.499969"/>
       <use xlink:href="#HiraginoSans-W4-74" x="208.699966"/>
       <use xlink:href="#HiraginoSans-W4-31" x="249.199951"/>
       <use xlink:href="#HiraginoSans-W4-36" x="316.499939"/>
      </g>
      <!-- cpuOnly -->
      <g transform="translate(289.121758 324.967969) scale(0.09 -0.09)">
       <use xlink:href="#HiraginoSans-W4-63"/>
       <use xlink:href="#HiraginoSans-W4-70" x="59.099991"/>
       <use xlink:href="#HiraginoSans-W4-75" x="125.499985"/>
       <use xlink:href="#HiraginoSans-W4-4f" x="188.899979"/>
       <use xlink:href="#HiraginoSans-W4-6e" x="269.59996"/>
       <use xlink:href="#HiraginoSans-W4-6c" x="332.999954"/>
       <use xlink:href="#HiraginoSans-W4-79" x="357.299942"/>
      </g>
     </g>
    </g>
    <g id="xtick_6">
     <g id="line2d_6">
      <g>
       <use xlink:href="#maf4791d7f0" x="359.371159" y="300.696406" style="stroke: #000000; stroke-width: 0.8"/>
      </g>
     </g>
     <g id="text_6">
      <!-- Float16 -->
      <g transform="translate(342.1003 314.634844) scale(0.09 -0.09)">
       <use xlink:href="#HiraginoSans-W4-46"/>
       <use xlink:href="#HiraginoSans-W4-6c" x="61.399994"/>
       <use xlink:href="#HiraginoSans-W4-6f" x="85.699982"/>
       <use xlink:href="#HiraginoSans-W4-61" x="149.499969"/>
       <use xlink:href="#HiraginoSans-W4-74" x="208.699966"/>
       <use xlink:href="#HiraginoSans-W4-31" x="249.199951"/>
       <use xlink:href="#HiraginoSans-W4-36" x="316.499939"/>
      </g>
      <!-- cpuAndGPU -->
      <g transform="translate(331.556237 324.989906) scale(0.09 -0.09)">
       <use xlink:href="#HiraginoSans-W4-63"/>
       <use xlink:href="#HiraginoSans-W4-70" x="59.099991"/>
       <use xlink:href="#HiraginoSans-W4-75" x="125.499985"/>
       <use xlink:href="#HiraginoSans-W4-41" x="188.899979"/>
       <use xlink:href="#HiraginoSans-W4-6e" x="265.499969"/>
       <use xlink:href="#HiraginoSans-W4-64" x="328.899963"/>
       <use xlink:href="#HiraginoSans-W4-47" x="395.199951"/>
       <use xlink:href="#HiraginoSans-W4-50" x="471.599945"/>
       <use xlink:href="#HiraginoSans-W4-55" x="539.199936"/>
      </g>
     </g>
    </g>
    <g id="xtick_7">
     <g id="line2d_7">
      <g>
       <use xlink:href="#maf4791d7f0" x="410.958216" y="300.696406" style="stroke: #000000; stroke-width: 0.8"/>
      </g>
     </g>
     <g id="text_7">
      <!-- Float16 -->
      <g transform="translate(393.687357 314.634844) scale(0.09 -0.09)">
       <use xlink:href="#HiraginoSans-W4-46"/>
       <use xlink:href="#HiraginoSans-W4-6c" x="61.399994"/>
       <use xlink:href="#HiraginoSans-W4-6f" x="85.699982"/>
       <use xlink:href="#HiraginoSans-W4-61" x="149.499969"/>
       <use xlink:href="#HiraginoSans-W4-74" x="208.699966"/>
       <use xlink:href="#HiraginoSans-W4-31" x="249.199951"/>
       <use xlink:href="#HiraginoSans-W4-36" x="316.499939"/>
      </g>
      <!-- cpuAndNE -->
      <g transform="translate(386.694075 324.881906) scale(0.09 -0.09)">
       <use xlink:href="#HiraginoSans-W4-63"/>
       <use xlink:href="#HiraginoSans-W4-70" x="59.099991"/>
       <use xlink:href="#HiraginoSans-W4-75" x="125.499985"/>
       <use xlink:href="#HiraginoSans-W4-41" x="188.899979"/>
       <use xlink:href="#HiraginoSans-W4-6e" x="265.499969"/>
       <use xlink:href="#HiraginoSans-W4-64" x="328.899963"/>
       <use xlink:href="#HiraginoSans-W4-4e" x="395.199951"/>
       <use xlink:href="#HiraginoSans-W4-45" x="473.699936"/>
      </g>
     </g>
    </g>
    <g id="xtick_8">
     <g id="line2d_8">
      <g>
       <use xlink:href="#maf4791d7f0" x="462.545273" y="300.696406" style="stroke: #000000; stroke-width: 0.8"/>
      </g>
     </g>
     <g id="text_8">
      <!-- Float16 -->
      <g transform="translate(445.274414 314.634844) scale(0.09 -0.09)">
       <use xlink:href="#HiraginoSans-W4-46"/>
       <use xlink:href="#HiraginoSans-W4-6c" x="61.399994"/>
       <use xlink:href="#HiraginoSans-W4-6f" x="85.699982"/>
       <use xlink:href="#HiraginoSans-W4-61" x="149.499969"/>
       <use xlink:href="#HiraginoSans-W4-74" x="208.699966"/>
       <use xlink:href="#HiraginoSans-W4-31" x="249.199951"/>
       <use xlink:href="#HiraginoSans-W4-36" x="316.499939"/>
      </g>
      <!-- all -->
      <g transform="translate(457.694414 324.805969) scale(0.09 -0.09)">
       <use xlink:href="#HiraginoSans-W4-61"/>
       <use xlink:href="#HiraginoSans-W4-6c" x="59.199997"/>
       <use xlink:href="#HiraginoSans-W4-6c" x="83.499985"/>
      </g>
     </g>
    </g>
    <g id="xtick_9">
     <g id="line2d_9">
      <g>
       <use xlink:href="#maf4791d7f0" x="514.13233" y="300.696406" style="stroke: #000000; stroke-width: 0.8"/>
      </g>
     </g>
     <g id="text_9">
      <!-- Int8 -->
      <g transform="translate(505.253971 314.634844) scale(0.09 -0.09)">
       <defs>
        <path id="HiraginoSans-W4-49" d="M 480 4934 
C 518 4698 531 4531 531 4186 
L 531 749 
C 531 410 518 243 480 0 
L 1190 0 
C 1152 224 1139 442 1139 749 
L 1139 4186 
C 1139 4486 1152 4704 1190 4934 
L 480 4934 
z
" transform="scale(0.015625)"/>
        <path id="HiraginoSans-W4-38" d="M 1446 2586 
C 1203 2547 1056 2490 851 2355 
C 480 2106 294 1754 294 1299 
C 294 397 966 -102 2163 -102 
C 3347 -102 4006 397 4006 1299 
C 4006 1728 3853 2061 3539 2304 
C 3322 2470 3136 2547 2867 2586 
C 3437 2714 3789 3162 3789 3757 
C 3789 4550 3162 5043 2150 5043 
C 1146 5043 512 4544 512 3750 
C 512 3162 877 2701 1446 2586 
z
M 2150 4538 
C 2784 4538 3187 4211 3187 3699 
C 3187 3155 2797 2829 2157 2829 
C 1510 2829 1114 3162 1114 3699 
C 1114 4211 1523 4538 2150 4538 
z
M 2157 2304 
C 2912 2304 3373 1939 3373 1344 
C 3373 749 2925 410 2144 410 
C 1376 410 928 749 928 1338 
C 928 1939 1389 2304 2157 2304 
z
" transform="scale(0.015625)"/>
       </defs>
       <use xlink:href="#HiraginoSans-W4-49"/>
       <use xlink:href="#HiraginoSans-W4-6e" x="26.099991"/>
       <use xlink:href="#HiraginoSans-W4-74" x="89.499985"/>
       <use xlink:href="#HiraginoSans-W4-38" x="129.999969"/>
      </g>
      <!-- cpuOnly -->
      <g transform="translate(495.469986 324.967969) scale(0.09 -0.09)">
       <use xlink:href="#HiraginoSans-W4-63"/>
       <use xlink:href="#HiraginoSans-W4-70" x="59.099991"/>
       <use xlink:href="#HiraginoSans-W4-75" x="125.499985"/>
       <use xlink:href="#HiraginoSans-W4-4f" x="188.899979"/>
       <use xlink:href="#HiraginoSans-W4-6e" x="269.59996"/>
       <use xlink:href="#HiraginoSans-W4-6c" x="332.999954"/>
       <use xlink:href="#HiraginoSans-W4-79" x="357.299942"/>
      </g>
     </g>
    </g>
    <g id="xtick_10">
     <g id="line2d_10">
      <g>
       <use xlink:href="#maf4791d7f0" x="565.719387" y="300.696406" style="stroke: #000000; stroke-width: 0.8"/>
      </g>
     </g>
     <g id="text_10">
      <!-- Int8 -->
      <g transform="translate(556.841028 314.634844) scale(0.09 -0.09)">
       <use xlink:href="#HiraginoSans-W4-49"/>
       <use xlink:href="#HiraginoSans-W4-6e" x="26.099991"/>
       <use xlink:href="#HiraginoSans-W4-74" x="89.499985"/>
       <use xlink:href="#HiraginoSans-W4-38" x="129.999969"/>
      </g>
      <!-- cpuAndGPU -->
      <g transform="translate(537.904465 324.989906) scale(0.09 -0.09)">
       <use xlink:href="#HiraginoSans-W4-63"/>
       <use xlink:href="#HiraginoSans-W4-70" x="59.099991"/>
       <use xlink:href="#HiraginoSans-W4-75" x="125.499985"/>
       <use xlink:href="#HiraginoSans-W4-41" x="188.899979"/>
       <use xlink:href="#HiraginoSans-W4-6e" x="265.499969"/>
       <use xlink:href="#HiraginoSans-W4-64" x="328.899963"/>
       <use xlink:href="#HiraginoSans-W4-47" x="395.199951"/>
       <use xlink:href="#HiraginoSans-W4-50" x="471.599945"/>
       <use xlink:href="#HiraginoSans-W4-55" x="539.199936"/>
      </g>
     </g>
    </g>
    <g id="xtick_11">
     <g id="line2d_11">
      <g>
       <use xlink:href="#maf4791d7f0" x="617.306444" y="300.696406" style="stroke: #000000; stroke-width: 0.8"/>
      </g>
     </g>
     <g id="text_11">
      <!-- Int8 -->
      <g transform="translate(608.428085 314.634844) scale(0.09 -0.09)">
       <use xlink:href="#HiraginoSans-W4-49"/>
       <use xlink:href="#HiraginoSans-W4-6e" x="26.099991"/>
       <use xlink:href="#HiraginoSans-W4-74" x="89.499985"/>
       <use xlink:href="#HiraginoSans-W4-38" x="129.999969"/>
      </g>
      <!-- cpuAndNE -->
      <g transform="translate(593.042303 324.881906) scale(0.09 -0.09)">
       <use xlink:href="#HiraginoSans-W4-63"/>
       <use xlink:href="#HiraginoSans-W4-70" x="59.099991"/>
       <use xlink:href="#HiraginoSans-W4-75" x="125.499985"/>
       <use xlink:href="#HiraginoSans-W4-41" x="188.899979"/>
       <use xlink:href="#HiraginoSans-W4-6e" x="265.499969"/>
       <use xlink:href="#HiraginoSans-W4-64" x="328.899963"/>
       <use xlink:href="#HiraginoSans-W4-4e" x="395.199951"/>
       <use xlink:href="#HiraginoSans-W4-45" x="473.699936"/>
      </g>
     </g>
    </g>
    <g id="xtick_12">
     <g id="line2d_12">
      <g>
       <use xlink:href="#maf4791d7f0" x="668.893501" y="300.696406" style="stroke: #000000; stroke-width: 0.8"/>
      </g>
     </g>
     <g id="text_12">
      <!-- Int8 -->
      <g transform="translate(660.015142 314.634844) scale(0.09 -0.09)">
       <use xlink:href="#HiraginoSans-W4-49"/>
       <use xlink:href="#HiraginoSans-W4-6e" x="26.099991"/>
       <use xlink:href="#HiraginoSans-W4-74" x="89.499985"/>
       <use xlink:href="#HiraginoSans-W4-38" x="129.999969"/>
      </g>
      <!-- all -->
      <g transform="translate(664.042642 324.805969) scale(0.09 -0.09)">
       <use xlink:href="#HiraginoSans-W4-61"/>
       <use xlink:href="#HiraginoSans-W4-6c" x="59.199997"/>
       <use xlink:href="#HiraginoSans-W4-6c" x="83.499985"/>
      </g>
     </g>
    </g>
   </g>
   <g id="matplotlib.axis_2">
    <g id="ytick_1">
     <g id="line2d_13">
      <path d="M 50.364688 300.696406 
L 719.964688 300.696406 
" clip-path="url(#pfa937790dc)" style="fill: none; stroke-dasharray: 0.8,1.32; stroke-dashoffset: 0; stroke: #b0b0b0; stroke-opacity: 0.5; stroke-width: 0.8"/>
     </g>
     <g id="line2d_14">
      <defs>
       <path id="mf7b536d24f" d="M 0 0 
L -3.5 0 
" style="stroke: #000000; stroke-width: 0.8"/>
      </defs>
      <g>
       <use xlink:href="#mf7b536d24f" x="50.364688" y="300.696406" style="stroke: #000000; stroke-width: 0.8"/>
      </g>
     </g>
     <g id="text_13">
      <!-- 0 -->
      <g transform="translate(36.635 304.551094) scale(0.1 -0.1)">
       <defs>
        <path id="HiraginoSans-W4-30" d="M 2144 -90 
C 2758 -90 3232 141 3565 602 
C 3846 998 4019 1696 4019 2464 
C 4019 3002 3936 3501 3770 3949 
C 3693 4160 3558 4371 3379 4550 
C 3078 4858 2650 5024 2157 5024 
C 1498 5024 986 4742 666 4205 
C 435 3834 288 3142 288 2458 
C 288 1939 371 1434 538 986 
C 614 768 749 563 928 384 
C 1242 70 1651 -90 2144 -90 
z
M 2144 4499 
C 2592 4499 2918 4307 3123 3923 
C 3283 3629 3398 3014 3398 2470 
C 3398 2022 3341 1619 3213 1235 
C 3155 1043 3046 870 2912 730 
C 2726 538 2458 435 2150 435 
C 1734 435 1414 614 1197 973 
C 1024 1261 902 1875 902 2451 
C 902 2906 966 3328 1088 3699 
C 1139 3866 1235 4026 1370 4173 
C 1568 4397 1818 4499 2144 4499 
z
" transform="scale(0.015625)"/>
       </defs>
       <use xlink:href="#HiraginoSans-W4-30"/>
      </g>
     </g>
    </g>
    <g id="ytick_2">
     <g id="line2d_15">
      <path d="M 50.364688 240.769045 
L 719.964688 240.769045 
" clip-path="url(#pfa937790dc)" style="fill: none; stroke-dasharray: 0.8,1.32; stroke-dashoffset: 0; stroke: #b0b0b0; stroke-opacity: 0.5; stroke-width: 0.8"/>
     </g>
     <g id="line2d_16">
      <g>
       <use xlink:href="#mf7b536d24f" x="50.364688" y="240.769045" style="stroke: #000000; stroke-width: 0.8"/>
      </g>
     </g>
     <g id="text_14">
      <!-- 50 -->
      <g transform="translate(29.905313 244.623733) scale(0.1 -0.1)">
       <defs>
        <path id="HiraginoSans-W4-35" d="M 1331 4416 
L 2835 4416 
C 3155 4416 3366 4403 3622 4365 
L 3622 4986 
C 3360 4947 3206 4934 2829 4934 
L 1446 4934 
C 1082 4934 954 4941 762 4966 
C 774 4768 774 4762 774 4742 
C 774 4563 774 4518 749 4307 
L 608 2822 
C 589 2566 570 2445 518 2157 
L 1088 2106 
C 1146 2240 1178 2291 1261 2374 
C 1485 2605 1811 2739 2131 2739 
C 2842 2739 3264 2317 3264 1613 
C 3264 902 2803 435 2106 435 
C 1747 435 1440 563 1235 794 
C 1146 902 1101 986 1037 1171 
L 410 1005 
C 557 685 646 544 813 378 
C 1133 64 1562 -96 2099 -96 
C 3194 -96 3885 576 3885 1638 
C 3885 2605 3245 3238 2272 3238 
C 1830 3238 1472 3098 1158 2803 
C 1197 2982 1197 2982 1203 3091 
L 1331 4416 
z
" transform="scale(0.015625)"/>
       </defs>
       <use xlink:href="#HiraginoSans-W4-35"/>
       <use xlink:href="#HiraginoSans-W4-30" x="67.299988"/>
      </g>
     </g>
    </g>
    <g id="ytick_3">
     <g id="line2d_17">
      <path d="M 50.364688 180.841685 
L 719.964688 180.841685 
" clip-path="url(#pfa937790dc)" style="fill: none; stroke-dasharray: 0.8,1.32; stroke-dashoffset: 0; stroke: #b0b0b0; stroke-opacity: 0.5; stroke-width: 0.8"/>
     </g>
     <g id="line2d_18">
      <g>
       <use xlink:href="#mf7b536d24f" x="50.364688" y="180.841685" style="stroke: #000000; stroke-width: 0.8"/>
      </g>
     </g>
     <g id="text_15">
      <!-- 100 -->
      <g transform="translate(23.175625 184.696372) scale(0.1 -0.1)">
       <use xlink:href="#HiraginoSans-W4-31"/>
       <use xlink:href="#HiraginoSans-W4-30" x="67.299988"/>
       <use xlink:href="#HiraginoSans-W4-30" x="134.599976"/>
      </g>
     </g>
    </g>
    <g id="ytick_4">
     <g id="line2d_19">
      <path d="M 50.364688 120.914324 
L 719.964688 120.914324 
" clip-path="url(#pfa937790dc)" style="fill: none; stroke-dasharray: 0.8,1.32; stroke-dashoffset: 0; stroke: #b0b0b0; stroke-opacity: 0.5; stroke-width: 0.8"/>
     </g>
     <g id="line2d_20">
      <g>
       <use xlink:href="#mf7b536d24f" x="50.364688" y="120.914324" style="stroke: #000000; stroke-width: 0.8"/>
      </g>
     </g>
     <g id="text_16">
      <!-- 150 -->
      <g transform="translate(23.175625 124.769011) scale(0.1 -0.1)">
       <use xlink:href="#HiraginoSans-W4-31"/>
       <use xlink:href="#HiraginoSans-W4-35" x="67.299988"/>
       <use xlink:href="#HiraginoSans-W4-30" x="134.599976"/>
      </g>
     </g>
    </g>
    <g id="ytick_5">
     <g id="line2d_21">
      <path d="M 50.364688 60.986963 
L 719.964688 60.986963 
" clip-path="url(#pfa937790dc)" style="fill: none; stroke-dasharray: 0.8,1.32; stroke-dashoffset: 0; stroke: #b0b0b0; stroke-opacity: 0.5; stroke-width: 0.8"/>
     </g>
     <g id="line2d_22">
      <g>
       <use xlink:href="#mf7b536d24f" x="50.364688" y="60.986963" style="stroke: #000000; stroke-width: 0.8"/>
      </g>
     </g>
     <g id="text_17">
      <!-- 200 -->
      <g transform="translate(23.175625 64.841651) scale(0.1 -0.1)">
       <use xlink:href="#HiraginoSans-W4-32"/>
       <use xlink:href="#HiraginoSans-W4-30" x="67.299988"/>
       <use xlink:href="#HiraginoSans-W4-30" x="134.599976"/>
      </g>
     </g>
    </g>
    <g id="text_18">
     <!-- キャッシュ後ロード時間 [ミリ秒] -->
     <g transform="translate(16.715625 252.449844) rotate(-90) scale(0.12 -0.12)">
      <defs>
       <path id="HiraginoSans-W4-30ad" d="M 2662 3878 
L 1421 3680 
C 1126 3635 934 3616 710 3610 
L 806 3034 
C 979 3085 1190 3130 1504 3181 
L 2752 3379 
L 2970 2150 
L 1344 1888 
C 1043 1843 877 1824 659 1824 
L 755 1254 
C 947 1312 1062 1338 1414 1395 
L 3059 1651 
L 3302 326 
C 3360 19 3386 -166 3392 -365 
L 4006 -250 
C 3936 -38 3917 58 3846 435 
L 3603 1741 
L 5146 1984 
C 5261 2003 5350 2016 5427 2029 
C 5466 2035 5498 2042 5530 2048 
C 5658 2067 5690 2074 5818 2074 
L 5715 2637 
C 5536 2579 5350 2534 5030 2483 
L 3507 2240 
L 3283 3462 
L 4646 3674 
C 5088 3744 5094 3744 5286 3757 
L 5184 4314 
C 5037 4269 4826 4218 4544 4173 
L 3187 3962 
L 3072 4595 
C 3021 4883 3002 5005 2995 5184 
L 2394 5088 
C 2464 4922 2490 4813 2547 4493 
L 2662 3878 
z
" transform="scale(0.015625)"/>
       <path id="HiraginoSans-W4-30e3" d="M 2125 2995 
L 1549 2906 
C 1293 2861 1139 2848 934 2842 
L 1037 2310 
C 1216 2368 1370 2406 1632 2445 
L 2202 2541 
L 2630 224 
C 2688 -77 2701 -192 2707 -384 
L 3290 -282 
C 3226 -102 3226 -102 3149 314 
L 2707 2624 
L 4499 2925 
C 4595 2938 4627 2944 4685 2963 
C 4672 2931 4666 2925 4653 2906 
C 4378 2362 4070 2035 3526 1715 
C 3718 1606 3789 1555 3942 1389 
C 4538 1805 4902 2259 5190 2931 
C 5261 3098 5280 3142 5338 3226 
L 5024 3507 
C 4922 3469 4851 3450 4646 3418 
L 2624 3078 
L 2528 3584 
C 2470 3898 2458 3942 2451 4102 
L 1901 4013 
C 1958 3859 1978 3808 2029 3514 
L 2125 2995 
z
" transform="scale(0.015625)"/>
       <path id="HiraginoSans-W4-30c3" d="M 1120 3392 
C 1395 2925 1562 2509 1715 1933 
L 2234 2106 
C 1984 2810 1862 3098 1600 3552 
L 1120 3392 
z
M 2451 3661 
C 2726 3174 2918 2701 3040 2234 
L 3546 2406 
C 3379 2925 3264 3181 2925 3808 
L 2451 3661 
z
M 4666 3686 
C 4666 3443 4582 3046 4435 2630 
C 4019 1434 3277 672 2016 141 
C 2202 -32 2266 -102 2381 -294 
C 3206 115 3776 550 4224 1133 
C 4653 1696 4922 2317 5146 3270 
C 5178 3405 5190 3450 5229 3565 
L 4666 3686 
z
" transform="scale(0.015625)"/>
       <path id="HiraginoSans-W4-30b7" d="M 1370 4506 
C 1856 4339 2496 4000 2982 3654 
L 3283 4154 
C 2733 4493 2291 4717 1664 4966 
L 1370 4506 
z
M 864 2970 
C 1472 2733 2048 2426 2528 2074 
L 2816 2586 
C 2272 2931 1779 3181 1171 3430 
L 864 2970 
z
M 1120 -102 
C 1216 -70 1242 -64 1376 -38 
C 1504 -13 1613 13 1722 32 
C 2246 141 2931 371 3386 595 
C 4518 1158 5299 2035 5862 3366 
C 5645 3520 5574 3578 5382 3776 
C 5190 3206 4979 2816 4621 2349 
C 4109 1677 3507 1222 2726 928 
C 2074 678 1408 525 966 525 
L 1120 -102 
z
" transform="scale(0.015625)"/>
       <path id="HiraginoSans-W4-30e5" d="M 4038 454 
C 4160 1088 4211 1389 4352 2381 
C 4410 2771 4410 2771 4474 2906 
L 4224 3123 
C 4115 3085 4045 3078 3872 3078 
L 2227 3078 
C 1946 3078 1786 3091 1606 3117 
L 1606 2586 
C 1786 2605 1869 2611 2214 2611 
L 3846 2611 
C 3789 2029 3642 1088 3507 454 
L 1626 454 
C 1299 454 1178 461 998 493 
L 998 -51 
C 1178 -26 1312 -19 1626 -19 
L 4736 -19 
C 5030 -19 5190 -26 5357 -51 
L 5357 493 
C 5178 461 5062 454 4736 454 
L 4038 454 
z
" transform="scale(0.015625)"/>
       <path id="HiraginoSans-W4-5f8c" d="M 3597 5382 
C 3520 5152 3219 4730 2861 4346 
C 2726 4454 2675 4493 2464 4653 
L 2150 4301 
C 2733 3885 3002 3667 3392 3283 
C 3258 3149 3258 3149 3117 3021 
C 3085 2989 3040 2944 2976 2886 
C 2400 2867 2400 2867 2291 2867 
C 2099 2867 1958 2874 1850 2886 
L 1926 2387 
C 2035 2406 2061 2406 2189 2413 
C 2387 2426 2387 2426 3040 2464 
C 3059 2464 3072 2464 3194 2470 
C 2899 1920 2432 1491 1702 1120 
C 1850 992 1946 877 2029 742 
C 2387 960 2611 1133 2874 1389 
C 3066 1126 3251 934 3558 666 
C 2970 320 2381 102 1664 -19 
C 1818 -211 1843 -256 1926 -461 
C 2746 -275 3315 -38 3936 378 
C 4128 250 4256 173 4538 45 
C 5069 -205 5318 -288 5939 -435 
C 5952 -397 5965 -371 5971 -352 
C 6010 -269 6035 -211 6042 -192 
C 6067 -134 6099 -77 6176 51 
C 5542 147 4896 365 4339 672 
C 4691 947 5056 1325 5280 1632 
C 5350 1741 5357 1747 5408 1811 
L 5114 2086 
C 4998 2067 4819 2054 4589 2054 
L 3443 2054 
C 3552 2221 3597 2298 3712 2509 
C 4352 2554 4352 2554 5427 2669 
C 5549 2483 5600 2413 5754 2157 
L 6157 2432 
C 5741 3021 5498 3328 5088 3782 
L 4717 3539 
C 4947 3296 5024 3213 5165 3027 
C 4723 2982 4467 2963 4397 2957 
C 4282 2944 4019 2931 3610 2912 
C 4154 3418 4550 3840 4947 4320 
C 5088 4499 5133 4550 5197 4614 
L 4723 4883 
C 4582 4602 4282 4224 3712 3610 
C 3539 3776 3456 3853 3187 4083 
C 3443 4352 3706 4666 3891 4934 
C 3987 5075 4000 5088 4058 5158 
L 3597 5382 
z
M 4704 1670 
C 4493 1382 4294 1190 3942 922 
C 3622 1165 3437 1350 3194 1670 
L 4704 1670 
z
M 1600 5408 
C 1510 5216 1434 5094 1274 4902 
C 1024 4595 646 4282 288 4070 
C 442 3917 480 3859 570 3680 
C 1082 4026 1510 4435 1882 4947 
C 1965 5056 1965 5056 2016 5120 
L 1600 5408 
z
M 1005 262 
C 1005 -64 992 -282 966 -467 
L 1510 -467 
C 1485 -275 1478 -51 1478 288 
L 1478 2918 
C 1664 3162 1824 3379 1894 3494 
C 1971 3622 2016 3693 2074 3776 
L 1651 4045 
C 1581 3859 1459 3654 1274 3398 
C 954 2950 608 2611 173 2298 
C 301 2131 346 2054 429 1856 
C 691 2067 845 2221 1018 2438 
C 1011 2080 1011 2080 1011 2035 
C 1011 1946 1005 1798 1005 1600 
L 1005 262 
z
" transform="scale(0.015625)"/>
       <path id="HiraginoSans-W4-30ed" d="M 4864 480 
L 4864 32 
L 5453 32 
C 5434 179 5427 371 5427 666 
L 5427 3994 
C 5427 4282 5434 4410 5453 4576 
C 5261 4557 5139 4550 4819 4550 
L 1587 4550 
C 1293 4550 1146 4557 947 4570 
C 966 4403 973 4282 973 3994 
L 973 659 
C 973 378 966 179 947 32 
L 1536 32 
L 1536 480 
L 4864 480 
z
M 4864 986 
L 1536 986 
L 1536 4045 
L 4864 4045 
L 4864 986 
z
" transform="scale(0.015625)"/>
       <path id="HiraginoSans-W4-30fc" d="M 531 2131 
C 755 2157 915 2163 1421 2163 
L 5005 2163 
C 5446 2163 5632 2157 5875 2131 
L 5875 2765 
C 5651 2733 5523 2726 5011 2726 
L 1414 2726 
C 973 2726 736 2739 531 2765 
L 531 2131 
z
" transform="scale(0.015625)"/>
       <path id="HiraginoSans-W4-30c9" d="M 2426 -224 
C 2400 -26 2394 179 2394 518 
L 2394 2189 
C 2394 2445 2387 2554 2368 2714 
C 2464 2662 2483 2650 2579 2611 
C 3488 2221 4371 1747 4934 1350 
L 5254 1907 
C 4166 2534 3296 2944 2394 3258 
L 2394 4403 
C 2394 4762 2400 4941 2426 5120 
L 1779 5120 
C 1811 4954 1818 4806 1818 4416 
L 1818 518 
C 1818 154 1811 -13 1779 -224 
L 2426 -224 
z
M 4006 4666 
C 4269 4371 4474 4051 4672 3654 
L 5050 3866 
C 4826 4282 4678 4499 4378 4858 
L 4006 4666 
z
M 4749 5011 
C 5030 4678 5222 4390 5408 4019 
L 5779 4230 
C 5549 4653 5408 4851 5107 5203 
L 4749 5011 
z
" transform="scale(0.015625)"/>
       <path id="HiraginoSans-W4-6642" d="M 3898 4154 
L 3898 3386 
L 3104 3386 
C 2822 3386 2605 3398 2445 3424 
L 2445 2925 
C 2650 2950 2835 2963 3104 2963 
L 4826 2963 
L 4826 2266 
L 3104 2266 
C 2797 2266 2598 2278 2445 2304 
L 2445 1792 
C 2637 1818 2861 1830 3098 1830 
L 4826 1830 
L 4826 179 
C 4826 38 4787 13 4538 13 
C 4339 13 4038 45 3827 83 
C 3891 -70 3923 -211 3936 -410 
C 4352 -429 4397 -429 4499 -429 
C 5146 -429 5306 -320 5306 134 
L 5306 1830 
L 5466 1830 
C 5734 1830 5914 1818 6086 1792 
L 6086 2304 
C 5933 2278 5754 2266 5466 2266 
L 5306 2266 
L 5306 2963 
L 5478 2963 
C 5754 2963 5920 2950 6099 2925 
L 6099 3424 
C 5939 3398 5728 3386 5440 3386 
L 4384 3386 
L 4384 4154 
L 5235 4154 
C 5478 4154 5690 4141 5850 4122 
L 5850 4614 
C 5683 4589 5491 4576 5229 4576 
L 4384 4576 
L 4384 4774 
C 4384 4979 4397 5126 4422 5280 
L 3859 5280 
C 3885 5114 3898 4973 3898 4774 
L 3898 4576 
L 3251 4576 
C 2989 4576 2797 4589 2630 4614 
L 2630 4122 
C 2784 4141 3040 4154 3264 4154 
L 3898 4154 
z
M 589 672 
C 589 384 576 166 550 -32 
L 1037 -32 
L 1037 499 
L 1805 499 
L 1805 173 
L 2278 173 
C 2266 314 2259 480 2259 800 
L 2259 4352 
C 2259 4730 2259 4832 2278 4979 
C 2131 4966 2029 4960 1709 4960 
L 1146 4960 
C 691 4966 691 4966 563 4979 
C 582 4813 589 4621 589 4358 
L 589 672 
z
M 1043 4531 
L 1805 4531 
L 1805 3014 
L 1043 3014 
L 1043 4531 
z
M 1043 2598 
L 1805 2598 
L 1805 934 
L 1043 934 
L 1043 2598 
z
M 4096 602 
C 3789 1030 3558 1293 3200 1632 
L 2822 1363 
C 3168 1024 3386 762 3693 301 
L 4096 602 
z
" transform="scale(0.015625)"/>
       <path id="HiraginoSans-W4-9593" d="M 1075 3104 
L 2240 3104 
C 2496 3104 2694 3098 2874 3085 
C 2861 3251 2854 3405 2854 3667 
L 2854 4518 
C 2854 4768 2861 4934 2874 5126 
C 2694 5107 2541 5101 2221 5101 
L 1242 5101 
C 922 5101 755 5107 576 5126 
C 595 4922 602 4736 602 4416 
L 602 275 
C 602 -90 589 -288 563 -467 
L 1114 -467 
C 1088 -301 1075 -96 1075 269 
L 1075 3104 
z
M 1075 4730 
L 2413 4730 
L 2413 4282 
L 1075 4282 
L 1075 4730 
z
M 1075 3917 
L 2413 3917 
L 2413 3462 
L 1075 3462 
L 1075 3917 
z
M 5818 4422 
C 5818 4710 5824 4870 5850 5126 
C 5664 5107 5510 5101 5178 5101 
L 4070 5101 
C 3750 5101 3597 5107 3418 5126 
C 3430 4934 3437 4742 3437 4518 
L 3437 3667 
C 3437 3424 3430 3264 3418 3085 
C 3584 3098 3802 3104 4051 3104 
L 5350 3104 
L 5350 243 
C 5350 96 5299 64 5043 64 
C 4909 64 4646 90 4339 128 
C 4410 -38 4442 -154 4474 -365 
C 4602 -371 4960 -384 5094 -384 
C 5670 -384 5818 -262 5818 198 
L 5818 4422 
z
M 3878 4730 
L 5350 4730 
L 5350 4282 
L 3878 4282 
L 3878 4730 
z
M 3878 3917 
L 5350 3917 
L 5350 3462 
L 3878 3462 
L 3878 3917 
z
M 4416 2042 
C 4416 2285 4422 2458 4435 2630 
C 4250 2611 4096 2605 3814 2605 
L 2573 2605 
C 2291 2605 2131 2611 1946 2630 
C 1958 2445 1965 2266 1965 2042 
L 1965 576 
C 1965 314 1958 141 1933 -38 
L 2413 -38 
L 2413 384 
L 3795 384 
C 4064 384 4237 378 4435 365 
C 4422 531 4416 698 4416 941 
L 4416 2042 
z
M 2413 2221 
L 3974 2221 
L 3974 1709 
L 2413 1709 
L 2413 2221 
z
M 2413 1325 
L 3974 1325 
L 3974 768 
L 2413 768 
L 2413 1325 
z
" transform="scale(0.015625)"/>
       <path id="HiraginoSans-W4-20" transform="scale(0.015625)"/>
       <path id="HiraginoSans-W4-5b" d="M 2176 -480 
L 1382 -480 
L 1382 4435 
L 2176 4435 
L 2176 4934 
L 813 4934 
L 813 -979 
L 2176 -979 
L 2176 -480 
z
" transform="scale(0.015625)"/>
       <path id="HiraginoSans-W4-30df" d="M 1536 4461 
C 2611 4339 3955 4038 4851 3718 
L 5043 4275 
C 3750 4646 2867 4838 1754 4979 
L 1536 4461 
z
M 1421 2707 
C 2598 2554 3750 2272 4659 1926 
L 4851 2477 
C 3661 2848 2701 3072 1645 3226 
L 1421 2707 
z
M 915 909 
C 1568 819 2080 723 2874 525 
C 3898 275 4448 90 5069 -192 
L 5274 378 
C 3866 896 2714 1184 1139 1427 
L 915 909 
z
" transform="scale(0.015625)"/>
       <path id="HiraginoSans-W4-30ea" d="M 1446 4960 
C 1472 4794 1478 4653 1478 4352 
L 1478 2790 
C 1478 2496 1472 2330 1446 2144 
L 2080 2144 
C 2061 2310 2054 2464 2054 2790 
L 2054 4358 
C 2054 4621 2061 4819 2080 4960 
L 1446 4960 
z
M 4301 4954 
C 4320 4800 4326 4710 4326 4320 
L 4326 3635 
C 4326 2912 4320 2771 4301 2496 
C 4224 1626 3994 1210 3373 794 
C 3008 544 2669 416 2003 275 
C 2195 45 2240 -32 2323 -256 
C 2886 -90 3200 32 3514 205 
C 4147 563 4557 1043 4736 1651 
C 4851 2029 4902 2592 4902 3603 
L 4902 4326 
C 4902 4672 4909 4787 4934 4954 
L 4301 4954 
z
" transform="scale(0.015625)"/>
       <path id="HiraginoSans-W4-79d2" d="M 1357 3706 
L 890 3706 
C 653 3706 525 3712 378 3738 
L 378 3251 
C 531 3277 672 3283 877 3283 
L 1299 3283 
C 1248 3072 1107 2701 954 2400 
C 736 1965 499 1613 224 1306 
C 333 1165 397 1043 474 851 
C 877 1331 1178 1901 1389 2586 
C 1370 2189 1357 1837 1357 1638 
L 1357 237 
C 1357 -102 1344 -307 1318 -499 
L 1862 -499 
C 1830 -320 1824 -128 1824 243 
L 1824 1837 
C 1824 2035 1811 2336 1792 2682 
C 1965 2227 2099 1984 2355 1677 
C 2451 1882 2464 1907 2598 2086 
C 2234 2451 2054 2733 1830 3283 
L 2125 3283 
C 2285 3283 2406 3277 2547 3258 
L 2547 3731 
C 2426 3712 2317 3706 2131 3706 
L 1824 3706 
L 1824 4685 
C 2016 4742 2182 4806 2451 4928 
C 2573 4979 2573 4979 2611 4998 
L 2310 5395 
C 1978 5146 1312 4947 422 4832 
C 531 4666 557 4614 621 4422 
C 986 4486 1107 4512 1357 4563 
L 1357 3706 
z
M 4557 4646 
C 4557 4922 4563 5088 4589 5293 
L 4045 5293 
C 4077 5120 4083 4954 4083 4653 
L 4083 2099 
C 4083 1971 4045 1933 3910 1933 
C 3738 1933 3488 1952 3296 1990 
C 3354 1811 3373 1702 3386 1523 
C 3610 1510 3718 1504 3891 1504 
C 4397 1504 4557 1619 4557 1997 
L 4557 4646 
z
M 4954 4352 
C 5190 3482 5453 2874 5862 2278 
C 6125 2554 6125 2554 6240 2643 
C 5862 3130 5594 3706 5382 4480 
L 4954 4352 
z
M 3117 4435 
C 3021 3475 2848 2848 2528 2330 
C 2720 2227 2797 2170 2944 2029 
C 3258 2611 3456 3328 3571 4326 
L 3117 4435 
z
M 5261 2573 
C 5216 2394 5158 2259 5056 2048 
C 4749 1427 4282 928 3642 531 
C 3219 269 2816 109 2227 -38 
C 2362 -205 2413 -294 2496 -499 
C 2867 -390 3034 -333 3232 -237 
C 3629 -64 4058 192 4352 429 
C 4864 845 5229 1312 5562 1997 
C 5638 2157 5658 2182 5702 2266 
L 5261 2573 
z
" transform="scale(0.015625)"/>
       <path id="HiraginoSans-W4-5d" d="M 141 -480 
L 141 -979 
L 1504 -979 
L 1504 4934 
L 141 4934 
L 141 4435 
L 934 4435 
L 934 -480 
L 141 -480 
z
" transform="scale(0.015625)"/>
      </defs>
      <use xlink:href="#HiraginoSans-W4-30ad"/>
      <use xlink:href="#HiraginoSans-W4-30e3" x="99.999985"/>
      <use xlink:href="#HiraginoSans-W4-30c3" x="199.999969"/>
      <use xlink:href="#HiraginoSans-W4-30b7" x="299.999954"/>
      <use xlink:href="#HiraginoSans-W4-30e5" x="399.999939"/>
      <use xlink:href="#HiraginoSans-W4-5f8c" x="499.999924"/>
      <use xlink:href="#HiraginoSans-W4-30ed" x="599.999908"/>
      <use xlink:href="#HiraginoSans-W4-30fc" x="699.999893"/>
      <use xlink:href="#HiraginoSans-W4-30c9" x="799.999878"/>
      <use xlink:href="#HiraginoSans-W4-6642" x="899.999863"/>
      <use xlink:href="#HiraginoSans-W4-9593" x="999.999847"/>
      <use xlink:href="#HiraginoSans-W4-20" x="1099.999832"/>
      <use xlink:href="#HiraginoSans-W4-5b" x="1133.29982"/>
      <use xlink:href="#HiraginoSans-W4-30df" x="1169.599808"/>
      <use xlink:href="#HiraginoSans-W4-30ea" x="1269.599792"/>
      <use xlink:href="#HiraginoSans-W4-79d2" x="1369.599777"/>
      <use xlink:href="#HiraginoSans-W4-5d" x="1469.599762"/>
     </g>
    </g>
   </g>
   <g id="patch_15">
    <path d="M 50.364688 300.696406 
L 50.364688 23.496406 
" style="fill: none; stroke: #000000; stroke-width: 0.8; stroke-linejoin: miter; stroke-linecap: square"/>
   </g>
   <g id="patch_16">
    <path d="M 719.964688 300.696406 
L 719.964688 23.496406 
" style="fill: none; stroke: #000000; stroke-width: 0.8; stroke-linejoin: miter; stroke-linecap: square"/>
   </g>
   <g id="patch_17">
    <path d="M 50.364688 300.696406 
L 719.964687 300.696406 
" style="fill: none; stroke: #000000; stroke-width: 0.8; stroke-linejoin: miter; stroke-linecap: square"/>
   </g>
   <g id="patch_18">
    <path d="M 50.364688 23.496406 
L 719.964687 23.496406 
" style="fill: none; stroke: #000000; stroke-width: 0.8; stroke-linejoin: miter; stroke-linecap: square"/>
   </g>
   <g id="text_19">
    <!-- 77 -->
    <g transform="translate(96.052124 204.419118) scale(0.08 -0.08)">
     <defs>
      <path id="HiraginoSans-W4-37" d="M 3898 4966 
C 3661 4941 3526 4934 3117 4934 
L 1165 4934 
C 838 4934 646 4947 390 4979 
L 390 4346 
C 634 4378 819 4390 1146 4390 
L 3200 4390 
C 2643 3635 2368 3187 2054 2541 
C 1664 1741 1491 1171 1280 0 
L 2003 0 
C 2099 685 2163 992 2317 1491 
C 2554 2291 2829 2861 3373 3718 
C 3642 4141 3763 4301 3898 4422 
L 3898 4966 
z
" transform="scale(0.015625)"/>
     </defs>
     <use xlink:href="#HiraginoSans-W4-37"/>
     <use xlink:href="#HiraginoSans-W4-37" x="67.299988"/>
    </g>
   </g>
   <g id="text_20">
    <!-- 120 -->
    <g transform="translate(144.947306 152.881588) scale(0.08 -0.08)">
     <use xlink:href="#HiraginoSans-W4-31"/>
     <use xlink:href="#HiraginoSans-W4-32" x="67.299988"/>
     <use xlink:href="#HiraginoSans-W4-30" x="134.599976"/>
    </g>
   </g>
   <g id="text_21">
    <!-- 81 -->
    <g transform="translate(199.226238 199.624929) scale(0.08 -0.08)">
     <use xlink:href="#HiraginoSans-W4-38"/>
     <use xlink:href="#HiraginoSans-W4-31" x="67.299988"/>
    </g>
   </g>
   <g id="text_22">
    <!-- 120 -->
    <g transform="translate(248.12142 152.881588) scale(0.08 -0.08)">
     <use xlink:href="#HiraginoSans-W4-31"/>
     <use xlink:href="#HiraginoSans-W4-32" x="67.299988"/>
     <use xlink:href="#HiraginoSans-W4-30" x="134.599976"/>
    </g>
   </g>
   <g id="text_23">
    <!-- 79 -->
    <g transform="translate(302.400352 202.022024) scale(0.08 -0.08)">
     <defs>
      <path id="HiraginoSans-W4-39" d="M 410 934 
C 582 576 698 422 896 262 
C 1178 32 1542 -77 2003 -77 
C 2586 -77 3014 102 3341 486 
C 3712 928 3910 1664 3910 2624 
C 3910 3302 3814 3821 3610 4186 
C 3315 4723 2765 5037 2118 5037 
C 1030 5037 326 4358 326 3315 
C 326 2861 486 2438 768 2157 
C 1050 1875 1472 1722 1958 1722 
C 2426 1722 2765 1843 3085 2125 
C 3213 2240 3270 2310 3366 2483 
C 3354 2189 3334 1958 3315 1818 
C 3270 1517 3168 1216 3046 1011 
C 2816 621 2496 435 2042 435 
C 1702 435 1427 538 1254 723 
C 1158 826 1114 915 1037 1120 
L 410 934 
z
M 2029 2221 
C 1357 2221 928 2662 928 3360 
C 928 3706 1030 3981 1248 4192 
C 1459 4403 1754 4525 2067 4525 
C 2733 4525 3232 4032 3232 3366 
C 3232 2707 2720 2221 2029 2221 
z
" transform="scale(0.015625)"/>
     </defs>
     <use xlink:href="#HiraginoSans-W4-37"/>
     <use xlink:href="#HiraginoSans-W4-39" x="67.299988"/>
    </g>
   </g>
   <g id="text_24">
    <!-- 105 -->
    <g transform="translate(351.295534 170.859796) scale(0.08 -0.08)">
     <use xlink:href="#HiraginoSans-W4-31"/>
     <use xlink:href="#HiraginoSans-W4-30" x="67.299988"/>
     <use xlink:href="#HiraginoSans-W4-35" x="134.599976"/>
    </g>
   </g>
   <g id="text_25">
    <!-- 195 -->
    <g transform="translate(402.882591 62.990547) scale(0.08 -0.08)">
     <use xlink:href="#HiraginoSans-W4-31"/>
     <use xlink:href="#HiraginoSans-W4-39" x="67.299988"/>
     <use xlink:href="#HiraginoSans-W4-35" x="134.599976"/>
    </g>
   </g>
   <g id="text_26">
    <!-- 189 -->
    <g transform="translate(454.469648 70.18183) scale(0.08 -0.08)">
     <use xlink:href="#HiraginoSans-W4-31"/>
     <use xlink:href="#HiraginoSans-W4-38" x="67.299988"/>
     <use xlink:href="#HiraginoSans-W4-39" x="134.599976"/>
    </g>
   </g>
   <g id="text_27">
    <!-- 98 -->
    <g transform="translate(508.74858 179.249627) scale(0.08 -0.08)">
     <use xlink:href="#HiraginoSans-W4-39"/>
     <use xlink:href="#HiraginoSans-W4-38" x="67.299988"/>
    </g>
   </g>
   <g id="text_28">
    <!-- 120 -->
    <g transform="translate(557.643762 152.881588) scale(0.08 -0.08)">
     <use xlink:href="#HiraginoSans-W4-31"/>
     <use xlink:href="#HiraginoSans-W4-32" x="67.299988"/>
     <use xlink:href="#HiraginoSans-W4-30" x="134.599976"/>
    </g>
   </g>
   <g id="text_29">
    <!-- 196 -->
    <g transform="translate(609.230819 61.791999) scale(0.08 -0.08)">
     <use xlink:href="#HiraginoSans-W4-31"/>
     <use xlink:href="#HiraginoSans-W4-39" x="67.299988"/>
     <use xlink:href="#HiraginoSans-W4-36" x="134.599976"/>
    </g>
   </g>
   <g id="text_30">
    <!-- 190 -->
    <g transform="translate(660.817876 68.983283) scale(0.08 -0.08)">
     <use xlink:href="#HiraginoSans-W4-31"/>
     <use xlink:href="#HiraginoSans-W4-39" x="67.299988"/>
     <use xlink:href="#HiraginoSans-W4-30" x="134.599976"/>
    </g>
   </g>
   <g id="text_31">
    <!-- ①速い軸（補足）── キャッシュ後は全セル ~0.1〜0.2秒に収束 -->
    <g transform="translate(191.174219 17.496406) scale(0.13 -0.13)">
     <defs>
      <path id="HiraginoSans-W7-2460" d="M 2010 3686 
C 2240 3712 2394 3725 2618 3725 
L 2835 3725 
L 2835 979 
C 2835 666 2822 454 2797 224 
L 3834 224 
C 3808 467 3795 653 3795 979 
L 3795 3699 
C 3795 4013 3808 4314 3834 4557 
C 3642 4538 3533 4531 3219 4531 
L 2611 4531 
C 2509 4531 2451 4538 2438 4538 
C 2330 4538 2330 4538 2298 4538 
C 2195 4544 2125 4550 2010 4570 
L 2010 3686 
z
M 6266 2438 
C 6266 4128 4890 5504 3200 5504 
C 1504 5504 128 4128 128 2438 
C 128 742 1504 -634 3200 -634 
C 4896 -634 6266 742 6266 2438 
z
M 6016 2438 
C 6016 883 4749 -384 3200 -384 
C 1638 -384 378 883 378 2438 
C 378 3994 1638 5254 3200 5254 
C 4755 5254 6016 3994 6016 2438 
z
" transform="scale(0.015625)"/>
      <path id="HiraginoSans-W7-901f" d="M 1958 4256 
C 1587 4704 1331 4966 870 5376 
L 256 4794 
C 730 4365 1030 4032 1376 3565 
L 1997 4179 
C 2144 4198 2310 4205 2566 4205 
L 3571 4205 
L 3571 3904 
L 2746 3904 
C 2451 3904 2304 3910 2106 3930 
C 2125 3725 2131 3603 2131 3347 
L 2131 2707 
C 2131 2458 2125 2336 2106 2131 
C 2291 2150 2445 2157 2739 2157 
L 3219 2157 
C 2778 1773 2445 1568 1811 1312 
C 2029 1062 2125 922 2285 621 
C 2918 986 3251 1248 3584 1632 
C 3571 1466 3571 1344 3571 1261 
L 3571 883 
C 3571 717 3565 602 3539 480 
L 4371 480 
C 4346 602 4339 710 4339 877 
L 4339 1248 
C 4339 1427 4333 1542 4320 1645 
C 4595 1357 4755 1222 5056 1018 
C 5344 826 5523 723 5875 570 
C 6003 909 6067 1037 6259 1338 
C 5536 1568 5229 1734 4736 2157 
L 5267 2157 
C 5574 2157 5722 2150 5894 2131 
C 5875 2310 5869 2458 5869 2714 
L 5869 3360 
C 5869 3610 5875 3750 5894 3930 
C 5696 3910 5555 3904 5280 3904 
L 4339 3904 
L 4339 4205 
L 5517 4205 
C 5792 4205 5914 4198 6112 4173 
L 6112 4966 
C 5894 4934 5741 4928 5370 4928 
L 4339 4928 
L 4339 5088 
C 4339 5210 4346 5306 4371 5414 
L 3539 5414 
C 3558 5325 3571 5178 3571 5043 
L 3571 4928 
L 2707 4928 
C 2355 4928 2176 4934 1958 4966 
L 1958 4256 
z
M 3571 3258 
L 3571 2803 
L 2906 2803 
L 2906 3258 
L 3571 3258 
z
M 4339 3258 
L 5069 3258 
L 5069 2803 
L 4339 2803 
L 4339 3258 
z
M 269 2189 
C 429 2214 525 2221 685 2221 
L 986 2221 
L 986 915 
C 698 678 339 442 122 358 
L 486 -512 
C 570 -448 576 -448 595 -435 
C 1005 -147 1178 -6 1408 211 
C 1901 -371 2221 -454 4038 -454 
C 4691 -454 5523 -442 6086 -416 
C 6144 -26 6170 90 6304 474 
C 5587 384 4640 339 3277 339 
C 2406 339 2118 448 1792 896 
L 1792 2298 
C 1792 2656 1798 2816 1818 3008 
C 1664 2989 1517 2982 1325 2982 
L 787 2982 
C 550 2982 448 2989 269 3014 
L 269 2189 
z
" transform="scale(0.015625)"/>
      <path id="HiraginoSans-W7-3044" d="M 595 4781 
C 614 4634 614 4582 621 4352 
C 659 2413 749 1600 1011 947 
C 1280 282 1658 -58 2125 -58 
C 2714 -58 3130 512 3469 1766 
C 3104 2022 2976 2144 2714 2458 
C 2637 2054 2528 1670 2374 1318 
C 2304 1146 2227 1056 2144 1056 
C 1818 1056 1581 2189 1581 3718 
C 1581 4160 1600 4525 1638 4774 
L 595 4781 
z
M 3808 4134 
C 4205 3642 4512 3098 4730 2496 
C 4954 1888 5094 1197 5120 582 
L 6086 941 
C 5914 2394 5446 3533 4627 4518 
L 3808 4134 
z
" transform="scale(0.015625)"/>
      <path id="HiraginoSans-W7-8ef8" d="M 2061 320 
L 2426 320 
C 2669 320 2822 314 3002 288 
L 3002 1056 
C 2816 1024 2669 1018 2419 1018 
L 2061 1018 
L 2061 1325 
L 2342 1325 
C 2669 1325 2765 1325 2925 1312 
C 2912 1485 2906 1677 2906 2003 
L 2906 3213 
C 2906 3507 2912 3718 2925 3866 
C 2790 3853 2682 3846 2362 3846 
L 2061 3846 
L 2061 4147 
L 2445 4147 
C 2771 4147 2874 4141 3053 4122 
L 3053 4877 
C 2854 4851 2765 4845 2445 4845 
L 2061 4845 
L 2061 4877 
C 2061 5133 2067 5261 2099 5414 
L 1286 5414 
C 1312 5254 1325 5107 1325 4877 
L 1325 4845 
L 890 4845 
C 570 4845 474 4851 282 4877 
L 282 4122 
C 486 4141 602 4147 890 4147 
L 1325 4147 
L 1325 3846 
L 1069 3846 
C 723 3846 602 3853 422 3866 
C 442 3674 448 3475 448 3155 
L 448 2048 
C 448 1709 442 1498 422 1306 
C 698 1325 755 1325 1069 1325 
L 1325 1325 
L 1325 1018 
L 845 1018 
C 531 1018 422 1024 237 1050 
L 237 288 
C 422 314 538 320 845 320 
L 1325 320 
L 1325 77 
C 1325 -186 1312 -384 1286 -557 
L 2093 -557 
C 2074 -384 2061 -205 2061 38 
L 2061 320 
z
M 2016 1952 
L 2016 2298 
L 2317 2298 
L 2317 1952 
L 2016 1952 
z
M 2016 2886 
L 2016 3219 
L 2317 3219 
L 2317 2886 
L 2016 2886 
z
M 1376 3219 
L 1376 2886 
L 1062 2886 
L 1062 3219 
L 1376 3219 
z
M 1376 2298 
L 1376 1952 
L 1062 1952 
L 1062 2298 
L 1376 2298 
z
M 4947 4237 
L 4947 4749 
C 4947 5037 4960 5210 4986 5414 
L 4147 5414 
C 4173 5222 4186 5043 4186 4781 
L 4186 4237 
L 3712 4237 
C 3437 4237 3264 4243 3110 4262 
C 3130 4090 3136 3930 3136 3603 
L 3136 218 
C 3136 -90 3123 -307 3104 -550 
L 3853 -550 
L 3853 -275 
L 5299 -275 
L 5299 -557 
L 6074 -557 
C 6048 -282 6035 -13 6035 282 
L 6035 3565 
C 6035 3891 6042 4045 6061 4269 
C 5875 4250 5670 4237 5434 4237 
L 4947 4237 
z
M 4922 467 
L 4922 1670 
L 5331 1670 
L 5331 467 
L 4922 467 
z
M 4922 2394 
L 4922 3482 
L 5331 3482 
L 5331 2394 
L 4922 2394 
z
M 4211 3482 
L 4211 2394 
L 3814 2394 
L 3814 3482 
L 4211 3482 
z
M 4211 1670 
L 4211 467 
L 3814 467 
L 3814 1670 
L 4211 1670 
z
" transform="scale(0.015625)"/>
      <path id="HiraginoSans-W7-ff08" d="M 6240 -589 
C 5830 -26 5658 256 5491 666 
C 5274 1197 5152 1837 5152 2432 
C 5152 3027 5274 3667 5491 4198 
C 5658 4608 5830 4890 6240 5453 
L 5197 5453 
C 4845 4902 4691 4621 4538 4211 
C 4320 3648 4205 3034 4205 2432 
C 4205 1830 4320 1216 4538 653 
C 4691 243 4845 -38 5197 -589 
L 6240 -589 
z
" transform="scale(0.015625)"/>
      <path id="HiraginoSans-W7-88dc" d="M 2477 154 
C 2477 -173 2470 -365 2445 -570 
L 3283 -570 
C 3264 -410 3258 -230 3258 160 
L 3258 832 
L 3814 832 
L 3814 102 
C 3814 -237 3808 -378 3789 -486 
L 4582 -486 
C 4570 -307 4563 -192 4563 115 
L 4563 832 
L 5184 832 
L 5184 422 
C 5184 301 5165 275 5069 275 
C 4960 275 4845 288 4666 314 
C 4813 45 4851 -109 4870 -493 
C 4986 -493 5056 -493 5094 -493 
C 5466 -493 5632 -474 5741 -416 
C 5894 -326 5958 -173 5958 115 
L 5958 3034 
C 5958 3334 5965 3520 5984 3706 
C 5843 3693 5696 3686 5414 3686 
L 4563 3686 
L 4563 4051 
L 5478 4051 
C 5722 4051 5933 4038 6099 4019 
L 6099 4832 
C 5971 4819 5933 4813 5747 4806 
C 5619 5043 5523 5178 5338 5408 
L 4762 5210 
C 4909 5043 4954 4973 5069 4800 
L 4563 4800 
L 4563 4896 
C 4563 5146 4570 5267 4595 5421 
L 3776 5421 
C 3802 5280 3808 5133 3808 4896 
L 3808 4800 
L 3021 4800 
C 2720 4800 2509 4813 2342 4838 
L 2342 4160 
L 2099 4461 
C 2035 4442 1958 4435 1766 4435 
L 1709 4435 
L 1709 4934 
C 1709 5126 1722 5286 1741 5421 
L 883 5421 
C 902 5274 915 5107 915 4922 
L 915 4435 
L 794 4435 
C 563 4435 448 4442 333 4467 
L 333 3667 
C 512 3693 678 3699 864 3699 
L 1434 3699 
C 1248 3238 1043 2906 742 2547 
C 582 2368 429 2221 186 2035 
C 326 1760 390 1562 480 1184 
C 627 1325 627 1325 864 1581 
C 883 1606 909 1638 947 1677 
C 928 1312 922 1107 922 1075 
L 922 205 
C 922 -70 909 -358 883 -570 
L 1747 -570 
C 1722 -365 1709 -45 1709 205 
L 1715 1018 
C 1715 1050 1715 1082 1715 1107 
C 1715 1286 1709 1414 1696 1594 
C 1862 1402 1933 1318 2138 1114 
C 2272 1402 2323 1491 2477 1696 
L 2477 154 
z
M 3808 4051 
L 3808 3686 
L 3110 3686 
C 2771 3686 2650 3693 2458 3706 
C 2477 3539 2477 3443 2477 3040 
L 2477 2803 
L 2176 3046 
C 2048 2778 1958 2624 1818 2426 
C 1760 2496 1741 2522 1683 2598 
C 1926 3002 2131 3411 2285 3789 
C 2298 3827 2298 3834 2323 3878 
C 2336 3910 2355 3962 2387 4026 
C 2534 4045 2746 4051 2938 4051 
L 3808 4051 
z
M 2477 1792 
C 2310 1914 2278 1939 2150 2061 
C 2253 2182 2336 2298 2477 2509 
L 2477 1792 
z
M 3258 1478 
L 3258 1926 
L 3814 1926 
L 3814 1478 
L 3258 1478 
z
M 3258 2573 
L 3258 3008 
L 3814 3008 
L 3814 2573 
L 3258 2573 
z
M 4563 1478 
L 4563 1926 
L 5184 1926 
L 5184 1478 
L 4563 1478 
z
M 4563 2573 
L 4563 3008 
L 5184 3008 
L 5184 2573 
L 4563 2573 
z
" transform="scale(0.015625)"/>
      <path id="HiraginoSans-W7-8db3" d="M 2880 672 
C 2445 922 2195 1197 1971 1683 
C 2010 1837 2035 1946 2067 2106 
C 2112 2304 2125 2368 2150 2458 
L 1306 2618 
C 1299 2093 1056 1344 717 755 
C 550 467 461 358 160 45 
C 429 -141 576 -275 806 -557 
C 1165 -147 1382 192 1651 781 
C 1952 301 2419 -64 2931 -237 
C 3392 -390 4058 -467 4890 -467 
C 5203 -467 5574 -454 5939 -442 
C 5978 -96 6022 83 6157 416 
C 5606 371 5280 358 4851 358 
C 4461 358 4032 384 3718 429 
L 3718 1350 
L 5030 1350 
C 5331 1350 5523 1344 5728 1318 
L 5728 2144 
C 5555 2118 5395 2112 5030 2112 
L 3718 2112 
L 3718 2861 
L 4800 2861 
C 5075 2861 5261 2854 5453 2835 
C 5434 3008 5427 3162 5427 3405 
L 5427 4646 
C 5427 4890 5434 5024 5453 5197 
C 5280 5178 5082 5171 4723 5171 
L 1709 5171 
C 1382 5171 1171 5178 979 5197 
C 998 5037 1005 4877 1005 4646 
L 1005 3405 
C 1005 3162 998 3008 979 2835 
C 1171 2854 1357 2861 1638 2861 
L 2880 2861 
L 2880 672 
z
M 4595 4416 
L 4595 3590 
L 1837 3590 
L 1837 4416 
L 4595 4416 
z
" transform="scale(0.015625)"/>
      <path id="HiraginoSans-W7-ff09" d="M 1203 -589 
C 1555 -38 1709 243 1862 653 
C 2080 1216 2195 1824 2195 2432 
C 2195 3040 2080 3648 1862 4211 
C 1709 4621 1555 4902 1203 5453 
L 160 5453 
C 570 4890 742 4608 909 4198 
C 1126 3667 1248 3027 1248 2432 
C 1248 1837 1126 1197 909 666 
C 742 256 570 -26 160 -589 
L 1203 -589 
z
" transform="scale(0.015625)"/>
      <path id="HiraginoSans-W7-2500" d="M 0 2560 
L 0 2304 
L 6400 2304 
L 6400 2560 
L 0 2560 
z
" transform="scale(0.015625)"/>
      <path id="HiraginoSans-W7-20" transform="scale(0.015625)"/>
      <path id="HiraginoSans-W7-30ad" d="M 2387 4032 
L 1389 3878 
C 922 3808 806 3795 525 3789 
L 672 2854 
C 1024 2938 1094 2957 1542 3027 
L 2541 3181 
L 2707 2240 
L 1363 2029 
C 941 1965 781 1946 518 1939 
L 672 1011 
C 934 1088 1082 1114 1478 1178 
L 2861 1395 
L 3040 416 
C 3117 6 3155 -294 3162 -480 
L 4198 -307 
C 4115 -51 4083 90 3994 589 
L 3814 1542 
L 5114 1741 
C 5728 1843 5728 1843 5952 1856 
L 5792 2778 
C 5530 2694 5357 2656 4934 2592 
L 3654 2387 
L 3482 3322 
L 4608 3501 
C 5133 3578 5133 3578 5414 3603 
L 5261 4525 
C 5011 4448 4864 4416 4448 4352 
L 3322 4179 
L 3245 4557 
C 3181 4902 3155 5088 3149 5293 
L 2144 5133 
C 2221 4928 2221 4928 2317 4397 
L 2387 4032 
z
" transform="scale(0.015625)"/>
      <path id="HiraginoSans-W7-30e3" d="M 1901 3174 
L 1517 3117 
C 1152 3053 1024 3040 800 3034 
L 954 2189 
C 1184 2259 1286 2285 1626 2342 
L 2035 2413 
L 2419 262 
C 2477 -58 2502 -230 2522 -480 
L 3469 -314 
C 3386 -64 3360 38 3283 422 
L 2880 2554 
L 4461 2829 
C 4218 2381 3891 2035 3430 1741 
C 3744 1581 3859 1491 4134 1210 
C 4762 1728 5126 2227 5402 2950 
C 5472 3142 5504 3194 5562 3277 
L 5043 3750 
C 4922 3686 4845 3667 4576 3622 
L 2739 3315 
L 2662 3693 
C 2624 3891 2605 4064 2592 4275 
L 1690 4141 
C 1754 3968 1773 3878 1830 3571 
L 1901 3174 
z
" transform="scale(0.015625)"/>
      <path id="HiraginoSans-W7-30c3" d="M 941 3526 
C 1222 2957 1344 2624 1517 1926 
L 2374 2189 
C 2150 2912 2022 3232 1741 3757 
L 941 3526 
z
M 2336 3802 
C 2586 3302 2790 2752 2912 2246 
L 3750 2502 
C 3590 3085 3469 3373 3130 4019 
L 2336 3802 
z
M 4538 3891 
C 4531 3680 4499 3469 4422 3155 
C 4160 2131 3738 1472 2995 934 
C 2630 678 2355 531 1869 346 
C 2189 38 2278 -77 2477 -416 
C 3488 96 4058 550 4512 1203 
C 4890 1754 5165 2458 5350 3322 
C 5402 3552 5408 3571 5446 3680 
L 4538 3891 
z
" transform="scale(0.015625)"/>
      <path id="HiraginoSans-W7-30b7" d="M 1133 4365 
C 1728 4154 2266 3885 2899 3469 
L 3386 4301 
C 2842 4627 2310 4877 1619 5133 
L 1133 4365 
z
M 627 2797 
C 1312 2534 1882 2227 2406 1830 
L 2874 2688 
C 2310 3059 1837 3296 1133 3578 
L 627 2797 
z
M 1056 -294 
C 1190 -250 1312 -224 1510 -186 
C 3149 128 4211 672 5062 1645 
C 5453 2093 5709 2522 6042 3290 
C 5715 3494 5600 3590 5242 3968 
C 5043 3392 4851 3014 4512 2554 
C 4013 1875 3482 1466 2694 1158 
C 2022 896 1363 749 787 736 
L 1056 -294 
z
" transform="scale(0.015625)"/>
      <path id="HiraginoSans-W7-30e5" d="M 4262 646 
C 4390 1370 4486 2003 4570 2688 
C 4595 2906 4608 2957 4685 3117 
L 4269 3475 
C 4122 3424 4051 3411 3846 3411 
L 2298 3411 
C 1907 3411 1798 3418 1542 3450 
L 1542 2605 
C 1773 2624 1888 2630 2272 2630 
L 3654 2630 
C 3590 1997 3494 1376 3360 646 
L 1658 646 
C 1248 646 1133 653 902 685 
L 902 -160 
C 1088 -141 1318 -134 1658 -134 
L 4742 -134 
C 5062 -134 5331 -141 5498 -160 
L 5498 685 
C 5293 653 5139 646 4749 646 
L 4262 646 
z
" transform="scale(0.015625)"/>
      <path id="HiraginoSans-W7-5f8c" d="M 3424 5485 
C 3347 5286 3072 4890 2803 4602 
C 2714 4666 2650 4710 2502 4819 
L 1965 4224 
C 2502 3853 2790 3622 3117 3296 
L 2880 3085 
C 2515 3078 2515 3078 2426 3072 
C 2330 3072 2285 3072 2227 3072 
C 2163 3072 2067 3078 2029 3078 
C 1920 3091 1920 3091 1882 3098 
L 1965 2278 
C 2150 2310 2176 2310 2682 2342 
C 2816 2355 2829 2355 3014 2368 
C 2816 2067 2586 1856 2221 1626 
C 2016 1491 1837 1395 1651 1325 
L 1651 2790 
C 1888 3117 2016 3296 2042 3334 
C 2099 3430 2157 3520 2214 3590 
L 1542 4045 
C 1472 3885 1344 3667 1165 3437 
C 890 3072 525 2720 122 2432 
C 282 2138 346 1984 448 1600 
C 634 1747 742 1856 851 1984 
C 845 1632 845 1632 845 1581 
C 845 1498 845 1376 845 1229 
L 845 160 
C 845 -147 832 -365 806 -531 
L 1677 -531 
C 1658 -333 1651 -141 1651 218 
L 1651 1254 
C 1818 1082 1946 896 2080 646 
C 2342 794 2502 909 2771 1120 
C 2944 922 3034 832 3245 653 
C 2733 397 2278 262 1658 166 
C 1824 -83 1914 -269 2016 -570 
C 2758 -429 3379 -198 3930 147 
C 4486 -179 5146 -410 5907 -531 
C 6016 -179 6086 -13 6259 301 
C 5613 358 5158 461 4640 672 
C 4998 986 5312 1325 5562 1651 
C 5594 1702 5613 1728 5658 1786 
L 5210 2195 
C 5082 2176 4902 2170 4704 2170 
L 3725 2170 
C 3802 2285 3821 2317 3891 2432 
C 4294 2464 4762 2509 5299 2566 
C 5382 2400 5414 2336 5536 2099 
L 6246 2502 
C 5965 3008 5632 3520 5312 3949 
L 4659 3584 
C 4813 3366 4851 3315 4941 3181 
C 4544 3149 4218 3130 3955 3117 
C 4282 3424 4864 4026 5056 4262 
C 5197 4442 5197 4442 5338 4595 
L 4595 5037 
C 4467 4787 4179 4416 3674 3866 
C 3558 3981 3507 4026 3360 4154 
C 3584 4397 3859 4723 4038 4960 
C 4141 5101 4141 5101 4198 5178 
L 3424 5485 
z
M 4454 1530 
C 4237 1312 4134 1222 3917 1056 
C 3686 1216 3565 1331 3405 1530 
L 4454 1530 
z
M 1498 5504 
C 1414 5350 1357 5267 1248 5139 
C 960 4794 666 4563 192 4307 
C 397 4051 480 3898 608 3584 
C 1050 3853 1510 4237 1811 4589 
C 2010 4826 2010 4826 2163 5018 
L 1498 5504 
z
" transform="scale(0.015625)"/>
      <path id="HiraginoSans-W7-306f" d="M 2291 3091 
C 2310 3098 2323 3098 2330 3098 
C 2413 3098 2413 3098 2515 3091 
C 2790 3072 3360 3053 3590 3053 
C 3731 3053 3840 3053 4026 3059 
C 4045 2381 4058 2093 4064 1875 
C 3885 1914 3776 1926 3603 1926 
C 2758 1926 2202 1472 2202 781 
C 2202 90 2739 -333 3622 -333 
C 4435 -333 4947 26 4947 589 
C 4947 627 4947 640 4941 698 
C 5312 461 5619 218 5766 38 
L 6118 960 
C 6048 1005 6029 1018 5933 1082 
C 5613 1312 5427 1414 4954 1638 
C 4902 2458 4896 2598 4890 3117 
C 5229 3155 5478 3194 5702 3245 
C 5862 3277 5875 3277 5952 3283 
L 5920 4154 
C 5651 4064 5306 3994 4883 3942 
C 4883 4640 4890 4902 4928 5114 
L 3981 5114 
C 4000 5037 4006 4902 4006 4781 
C 4013 4352 4013 4352 4013 3878 
C 3795 3872 3680 3872 3501 3872 
C 2976 3872 2586 3904 2304 3968 
L 2291 3091 
z
M 4083 1050 
C 4090 1050 4090 973 4090 915 
C 4090 595 3930 454 3558 454 
C 3245 454 3053 582 3053 787 
C 3053 1005 3277 1146 3616 1146 
C 3789 1146 3898 1120 4083 1050 
z
M 960 5139 
C 954 4998 934 4858 883 4595 
C 755 3904 755 3904 730 3712 
C 646 3162 608 2592 608 1990 
C 608 1306 653 742 781 -109 
C 800 -243 800 -282 806 -365 
L 1722 -320 
C 1715 -205 1709 -141 1709 -115 
C 1709 371 1946 1165 2285 1837 
L 1741 2054 
C 1638 1850 1594 1734 1453 1389 
C 1453 1491 1459 1741 1459 1869 
C 1466 2240 1491 2688 1542 3104 
C 1638 3872 1830 4781 1965 5050 
L 960 5139 
z
" transform="scale(0.015625)"/>
      <path id="HiraginoSans-W7-5168" d="M 2733 2592 
L 2733 1939 
L 1850 1939 
C 1517 1939 1312 1952 1094 1978 
L 1094 1139 
C 1267 1165 1523 1178 1850 1178 
L 2733 1178 
L 2733 416 
L 1254 416 
C 883 416 582 429 390 454 
L 390 -397 
C 608 -371 877 -358 1235 -358 
L 5139 -358 
C 5498 -358 5786 -371 6003 -397 
L 6003 454 
C 5786 429 5498 416 5126 416 
L 3590 416 
L 3590 1178 
L 4557 1178 
C 4890 1178 5139 1165 5318 1139 
L 5318 1978 
C 5139 1952 4909 1939 4563 1939 
L 3590 1939 
L 3590 2592 
L 4429 2592 
C 4749 2592 4960 2579 5158 2554 
L 5158 2995 
C 5472 2816 5555 2778 5850 2650 
C 5971 2982 6067 3168 6291 3514 
C 5683 3712 5280 3910 4749 4275 
C 4269 4602 3962 4902 3622 5350 
L 2694 5350 
C 2419 4934 2093 4595 1632 4256 
C 1171 3923 723 3686 128 3475 
C 365 3155 416 3066 582 2675 
C 858 2790 941 2835 1222 2989 
L 1222 2554 
C 1395 2579 1638 2592 1971 2592 
L 2733 2592 
z
M 1811 3347 
C 2477 3802 2829 4128 3181 4621 
C 3603 4083 3910 3808 4582 3347 
L 1907 3347 
L 1811 3347 
z
" transform="scale(0.015625)"/>
      <path id="HiraginoSans-W7-30bb" d="M 1722 3699 
L 1190 3642 
C 890 3610 672 3590 544 3590 
C 506 3590 435 3590 352 3597 
L 448 2656 
C 723 2720 749 2726 1286 2790 
L 1722 2848 
L 1722 1414 
C 1722 858 1728 755 1786 550 
C 1862 275 2093 38 2362 -45 
C 2598 -122 3008 -160 3539 -160 
C 3891 -160 4346 -134 4870 -83 
C 5440 -26 5440 -26 5581 -26 
L 5542 992 
C 5229 896 5037 858 4685 806 
C 4346 762 3853 730 3552 730 
C 3334 730 3136 742 2989 768 
C 2810 800 2726 877 2701 1030 
C 2682 1133 2682 1133 2675 1549 
L 2675 2950 
L 4672 3206 
C 4506 2912 4390 2765 4173 2560 
C 3936 2336 3738 2189 3443 2022 
C 3789 1818 3904 1728 4211 1395 
C 4672 1754 4883 1952 5114 2234 
C 5382 2573 5600 2918 5798 3341 
C 5894 3546 5907 3565 5990 3667 
L 5440 4173 
C 5306 4109 5254 4096 4966 4064 
L 2682 3802 
L 2682 4422 
C 2682 4781 2694 4947 2726 5146 
L 1677 5146 
C 1715 4915 1722 4768 1722 4403 
L 1722 3699 
z
" transform="scale(0.015625)"/>
      <path id="HiraginoSans-W7-30eb" d="M 1376 5069 
C 1395 4902 1402 4781 1402 4422 
C 1402 4077 1389 3642 1376 3328 
C 1338 2650 1280 2278 1146 1856 
C 954 1235 678 826 186 390 
C 531 147 653 32 960 -358 
C 1376 64 1613 397 1837 864 
C 2176 1562 2298 2227 2342 3558 
C 2387 4819 2387 4819 2413 5011 
L 1376 5069 
z
M 3130 5114 
C 3149 4954 3155 4806 3155 4525 
C 3155 4467 3155 4410 3155 4346 
L 3130 749 
C 3123 442 3110 314 3066 134 
L 3539 -371 
C 3622 -320 3674 -301 3834 -243 
C 4486 0 4813 186 5184 506 
C 5638 902 5978 1395 6246 2061 
C 5894 2342 5792 2445 5530 2778 
C 5395 2323 5222 1978 4960 1645 
C 4717 1338 4480 1146 4083 928 
L 4115 4333 
C 4122 4768 4128 4845 4166 5107 
L 3130 5114 
z
" transform="scale(0.015625)"/>
      <path id="HiraginoSans-W7-7e" d="M 3386 2336 
C 3136 2093 2963 2010 2701 2010 
C 2541 2010 2374 2054 2074 2163 
C 1690 2310 1491 2362 1280 2362 
C 1101 2362 909 2317 736 2240 
C 525 2144 390 2048 154 1792 
L 710 1037 
C 960 1280 1133 1363 1389 1363 
C 1542 1363 1690 1325 2029 1197 
C 2387 1062 2605 1011 2816 1011 
C 3002 1011 3187 1056 3360 1133 
C 3578 1229 3706 1331 3942 1587 
L 3386 2336 
z
" transform="scale(0.015625)"/>
      <path id="HiraginoSans-W7-30" d="M 2368 -243 
C 3130 -243 3757 96 4122 698 
C 4358 1088 4512 1798 4512 2470 
C 4512 2995 4429 3494 4262 3942 
C 4173 4192 4019 4422 3821 4621 
C 3456 4986 2950 5178 2374 5178 
C 1613 5178 992 4845 627 4230 
C 384 3834 230 3136 230 2458 
C 230 1939 314 1440 480 992 
C 576 742 723 512 922 314 
C 1286 -51 1786 -243 2368 -243 
z
M 2374 4275 
C 3066 4275 3424 3654 3424 2445 
C 3424 1741 3277 1190 3008 915 
C 2848 749 2630 659 2374 659 
C 1677 659 1318 1286 1318 2502 
C 1318 3622 1709 4275 2374 4275 
z
" transform="scale(0.015625)"/>
      <path id="HiraginoSans-W7-2e" d="M 365 973 
L 365 -134 
L 1472 -134 
L 1472 973 
L 365 973 
z
" transform="scale(0.015625)"/>
      <path id="HiraginoSans-W7-31" d="M 947 4122 
C 1216 4154 1414 4166 1664 4166 
L 1946 4166 
L 1946 762 
C 1946 410 1926 122 1894 -134 
L 3066 -134 
C 3027 160 3014 403 3014 762 
L 3014 4058 
C 3014 4461 3027 4736 3066 5094 
C 2816 5075 2726 5069 2342 5069 
L 1645 5069 
C 1318 5069 1158 5075 947 5107 
L 947 4122 
z
" transform="scale(0.015625)"/>
      <path id="HiraginoSans-W7-301c" d="M 832 1837 
C 1210 2259 1498 2413 1901 2413 
C 2214 2413 2387 2349 2970 1997 
C 3443 1722 3520 1677 3712 1600 
C 3930 1510 4141 1472 4384 1472 
C 4685 1472 4992 1542 5242 1664 
C 5574 1830 5805 2042 6176 2509 
L 5568 3136 
C 5222 2682 4851 2445 4486 2445 
C 4179 2445 3885 2554 3392 2854 
C 2976 3110 2976 3110 2816 3181 
C 2534 3315 2278 3373 1990 3373 
C 1594 3373 1222 3251 851 3002 
C 608 2835 474 2701 230 2413 
L 832 1837 
z
" transform="scale(0.015625)"/>
      <path id="HiraginoSans-W7-32" d="M 3354 -134 
C 3782 -134 4045 -147 4384 -179 
L 4384 845 
C 4147 806 3846 794 3405 794 
L 1786 794 
C 1869 998 1939 1107 2086 1267 
C 2234 1421 2528 1670 2790 1856 
C 3546 2381 3597 2419 3750 2560 
C 4122 2893 4314 3283 4314 3712 
C 4314 4608 3565 5178 2387 5178 
C 1696 5178 1158 4966 813 4570 
C 570 4275 454 4006 358 3488 
L 1491 3360 
C 1530 3648 1568 3789 1664 3930 
C 1818 4154 2074 4275 2406 4275 
C 2867 4275 3187 4032 3187 3680 
C 3187 3347 3046 3168 2458 2771 
C 1792 2317 1600 2176 1363 1958 
C 941 1574 640 1126 474 627 
C 390 397 352 179 320 -160 
C 563 -134 666 -134 1210 -134 
L 3354 -134 
z
" transform="scale(0.015625)"/>
      <path id="HiraginoSans-W7-79d2" d="M 5683 2227 
C 6106 2669 6106 2669 6291 2829 
C 6112 3078 5978 3322 5818 3680 
C 5677 3987 5606 4192 5491 4646 
L 4838 4422 
C 5018 3514 5248 2899 5645 2253 
L 5158 2547 
C 5107 2394 5069 2304 4979 2118 
C 4691 1549 4269 1120 3616 736 
C 3187 486 2810 339 2234 205 
C 2445 -83 2534 -243 2662 -582 
C 3059 -461 3232 -397 3424 -307 
C 3674 -198 4058 19 4301 192 
C 4864 582 5344 1120 5683 1754 
C 5811 1984 5830 2016 5882 2099 
L 5683 2227 
z
M 1126 3750 
L 755 3750 
C 544 3750 448 3757 288 3782 
L 288 2976 
C 461 3002 570 3008 730 3008 
L 1056 3008 
C 909 2477 531 1805 147 1389 
C 307 1107 390 909 480 570 
C 768 896 966 1242 1152 1747 
C 1139 1478 1139 1472 1133 1440 
C 1126 1280 1126 1280 1126 1082 
L 1126 198 
C 1126 -128 1114 -346 1088 -563 
L 1952 -563 
C 1926 -378 1920 -186 1920 198 
L 1920 1440 
C 1920 1632 1920 1696 1894 1984 
C 2048 1651 2170 1459 2374 1235 
C 2477 1530 2534 1651 2707 1952 
C 2342 2291 2176 2515 1926 3008 
L 2118 3008 
C 2278 3008 2387 3002 2522 2982 
L 2522 3776 
C 2413 3757 2310 3750 2138 3750 
L 1920 3750 
L 1920 4525 
C 2067 4570 2170 4608 2342 4678 
C 2451 4723 2534 4755 2573 4774 
C 2630 4794 2630 4794 2675 4813 
L 2170 5485 
C 1824 5248 1114 5056 250 4954 
C 397 4666 448 4531 538 4237 
C 826 4282 902 4294 1126 4333 
L 1126 3750 
z
M 4685 4755 
C 4685 5037 4691 5190 4717 5389 
L 3859 5389 
C 3885 5210 3891 5050 3891 4774 
L 3891 2355 
C 3891 2208 3859 2176 3706 2176 
C 3603 2176 3450 2189 3238 2221 
C 3328 1926 3360 1773 3386 1472 
C 3494 1466 3578 1466 3635 1466 
C 4467 1466 4685 1594 4685 2099 
L 4685 4755 
z
M 2957 4589 
C 2861 3590 2694 2995 2362 2438 
C 2643 2259 2803 2125 3027 1894 
C 3373 2586 3571 3360 3674 4403 
L 2957 4589 
z
" transform="scale(0.015625)"/>
      <path id="HiraginoSans-W7-306b" d="M 992 5158 
C 973 4973 966 4915 890 4518 
C 717 3584 640 2810 640 2016 
C 640 1395 685 877 806 64 
C 826 -83 832 -134 838 -250 
L 1766 -205 
C 1760 -115 1760 -83 1760 -19 
C 1760 486 1946 1165 2285 1907 
L 1722 2138 
L 1600 1830 
C 1568 1754 1568 1754 1485 1504 
C 1504 2861 1709 4301 1990 5062 
L 992 5158 
z
M 2573 3610 
C 2669 3603 2720 3603 2752 3597 
C 3149 3558 3379 3546 3782 3546 
C 4314 3546 4954 3590 5478 3661 
C 5549 3667 5555 3667 5613 3667 
L 5568 4595 
C 5158 4486 4518 4422 3814 4422 
C 3232 4422 2899 4448 2586 4531 
L 2573 3610 
z
M 2995 2656 
C 2598 2150 2400 1690 2400 1286 
C 2400 1050 2470 806 2592 634 
C 2880 230 3411 38 4224 38 
C 4666 38 5005 70 5568 160 
C 5709 179 5747 186 5850 198 
L 5786 1165 
C 5344 1005 4787 915 4230 915 
C 3642 915 3315 1094 3315 1414 
C 3315 1651 3462 1939 3763 2317 
L 2995 2656 
z
" transform="scale(0.015625)"/>
      <path id="HiraginoSans-W7-53ce" d="M 1357 4013 
C 1357 4378 1363 4557 1395 4781 
L 518 4781 
C 550 4531 557 4371 557 4013 
L 557 1389 
C 435 1357 390 1350 173 1318 
L 320 435 
C 454 486 486 499 627 550 
C 1094 710 1574 890 1882 1018 
L 1882 230 
C 1882 -128 1875 -288 1843 -544 
L 2746 -544 
C 2720 -333 2707 -179 2707 147 
C 2758 77 2758 77 2778 51 
C 2976 -218 3014 -282 3136 -570 
C 3674 -192 4064 179 4461 685 
C 4845 243 5338 -192 5882 -563 
C 6022 -179 6106 -6 6298 307 
C 5728 646 5357 960 4954 1427 
C 5517 2445 5824 3494 5952 4851 
C 5971 5037 5971 5037 5984 5126 
C 5805 5107 5664 5101 5459 5101 
L 3571 5101 
C 3270 5101 3085 5114 2848 5139 
L 2848 4288 
C 2995 4307 3142 4314 3494 4314 
L 3827 4314 
L 3021 4006 
C 3085 3795 3085 3795 3200 3322 
C 3398 2515 3629 1926 3962 1370 
C 3757 1094 3584 902 3315 659 
C 3078 448 2970 365 2707 211 
L 2707 4614 
C 2707 4979 2714 5158 2746 5382 
L 1843 5382 
C 1875 5126 1882 4966 1882 4614 
L 1882 1798 
C 1638 1702 1555 1677 1357 1613 
L 1357 4013 
z
M 5030 4314 
C 4922 3450 4762 2867 4448 2189 
C 4154 2771 4019 3258 3846 4314 
L 5030 4314 
z
" transform="scale(0.015625)"/>
      <path id="HiraginoSans-W7-675f" d="M 2726 4096 
L 2726 3725 
L 1472 3725 
C 1133 3725 922 3731 781 3744 
C 800 3533 806 3411 806 3104 
L 806 2278 
C 806 1946 800 1811 781 1632 
C 954 1658 1139 1664 1491 1664 
L 2266 1664 
C 1805 1101 1088 653 115 320 
C 326 64 429 -128 557 -454 
C 1542 -32 2189 442 2752 1139 
C 2739 1037 2726 768 2726 710 
L 2726 83 
C 2726 -205 2714 -352 2682 -557 
L 3590 -557 
C 3558 -384 3552 -211 3552 90 
L 3552 704 
C 3539 902 3533 1005 3533 1011 
C 3533 1069 3533 1075 3526 1139 
C 4134 390 4787 -70 5824 -480 
C 5984 -77 6061 64 6259 339 
C 5286 602 4538 1037 3994 1664 
L 4896 1664 
C 5203 1664 5421 1658 5600 1632 
C 5594 1690 5587 1907 5574 2278 
L 5574 3110 
C 5574 3354 5581 3507 5600 3744 
C 5434 3731 5434 3731 4902 3725 
L 3552 3725 
L 3552 4096 
L 5421 4096 
C 5651 4096 5888 4083 6112 4064 
L 6112 4915 
C 5894 4883 5747 4877 5402 4877 
L 3552 4877 
C 3552 5094 3558 5222 3590 5414 
L 2682 5414 
C 2714 5229 2726 5088 2726 4877 
L 979 4877 
C 646 4877 493 4883 282 4915 
L 282 4064 
C 499 4083 736 4096 960 4096 
L 2726 4096 
z
M 2726 2995 
L 2726 2368 
L 1600 2368 
L 1600 2995 
L 2726 2995 
z
M 3552 2995 
L 4781 2995 
L 4781 2368 
L 3552 2368 
L 3552 2995 
z
" transform="scale(0.015625)"/>
     </defs>
     <use xlink:href="#HiraginoSans-W7-2460"/>
     <use xlink:href="#HiraginoSans-W7-901f" x="99.999985"/>
     <use xlink:href="#HiraginoSans-W7-3044" x="199.999969"/>
     <use xlink:href="#HiraginoSans-W7-8ef8" x="299.999954"/>
     <use xlink:href="#HiraginoSans-W7-ff08" x="399.999939"/>
     <use xlink:href="#HiraginoSans-W7-88dc" x="499.999924"/>
     <use xlink:href="#HiraginoSans-W7-8db3" x="599.999908"/>
     <use xlink:href="#HiraginoSans-W7-ff09" x="699.999893"/>
     <use xlink:href="#HiraginoSans-W7-2500" x="799.999878"/>
     <use xlink:href="#HiraginoSans-W7-2500" x="899.999863"/>
     <use xlink:href="#HiraginoSans-W7-20" x="999.999847"/>
     <use xlink:href="#HiraginoSans-W7-30ad" x="1033.299835"/>
     <use xlink:href="#HiraginoSans-W7-30e3" x="1133.29982"/>
     <use xlink:href="#HiraginoSans-W7-30c3" x="1233.299805"/>
     <use xlink:href="#HiraginoSans-W7-30b7" x="1333.299789"/>
     <use xlink:href="#HiraginoSans-W7-30e5" x="1433.299774"/>
     <use xlink:href="#HiraginoSans-W7-5f8c" x="1533.299759"/>
     <use xlink:href="#HiraginoSans-W7-306f" x="1633.299744"/>
     <use xlink:href="#HiraginoSans-W7-5168" x="1733.299728"/>
     <use xlink:href="#HiraginoSans-W7-30bb" x="1833.299713"/>
     <use xlink:href="#HiraginoSans-W7-30eb" x="1933.299698"/>
     <use xlink:href="#HiraginoSans-W7-20" x="2033.299683"/>
     <use xlink:href="#HiraginoSans-W7-7e" x="2066.59967"/>
     <use xlink:href="#HiraginoSans-W7-30" x="2130.699661"/>
     <use xlink:href="#HiraginoSans-W7-2e" x="2204.799652"/>
     <use xlink:href="#HiraginoSans-W7-31" x="2233.499649"/>
     <use xlink:href="#HiraginoSans-W7-301c" x="2307.59964"/>
     <use xlink:href="#HiraginoSans-W7-30" x="2407.599625"/>
     <use xlink:href="#HiraginoSans-W7-2e" x="2481.699615"/>
     <use xlink:href="#HiraginoSans-W7-32" x="2510.399612"/>
     <use xlink:href="#HiraginoSans-W7-79d2" x="2584.499603"/>
     <use xlink:href="#HiraginoSans-W7-306b" x="2684.499588"/>
     <use xlink:href="#HiraginoSans-W7-53ce" x="2784.499573"/>
     <use xlink:href="#HiraginoSans-W7-675f" x="2884.499557"/>
    </g>
   </g>
   <g id="legend_1">
    <g id="patch_19">
     <path d="M 57.364688 61.226094 
L 212.164688 61.226094 
Q 214.164688 61.226094 214.164688 59.226094 
L 214.164688 30.496406 
Q 214.164688 28.496406 212.164688 28.496406 
L 57.364688 28.496406 
Q 55.364688 28.496406 55.364688 30.496406 
L 55.364688 59.226094 
Q 55.364688 61.226094 57.364688 61.226094 
z
" style="fill: #ffffff; opacity: 0.8; stroke: #cccccc; stroke-linejoin: miter"/>
    </g>
    <g id="patch_20">
     <path d="M 59.364688 40.416719 
L 79.364688 40.416719 
L 79.364688 33.416719 
L 59.364688 33.416719 
z
" style="fill: #2e7d32; stroke: #2e7d32; stroke-linejoin: miter"/>
    </g>
    <g id="text_32">
     <!-- 成立候補（CPU/GPU 系） -->
     <g transform="translate(87.364688 40.416719) scale(0.1 -0.1)">
      <defs>
       <path id="HiraginoSans-W4-6210" d="M 5133 3360 
C 5062 2906 4768 2227 4397 1670 
C 4192 2246 4058 3008 4013 3872 
L 5306 3872 
C 5645 3872 5843 3866 6042 3840 
L 6042 4352 
C 5888 4320 5709 4314 5357 4314 
L 3994 4314 
C 3987 4576 3987 4666 3987 4742 
C 3987 4992 3994 5178 4019 5312 
L 3456 5312 
C 3482 5152 3482 5114 3507 4314 
L 1626 4314 
C 1299 4314 1069 4320 838 4346 
C 870 4128 877 3981 877 3565 
C 877 2362 813 1510 678 934 
C 595 563 467 275 224 -70 
C 390 -173 480 -250 627 -435 
C 890 -26 1011 256 1120 723 
C 1229 1178 1293 1702 1325 2445 
L 2509 2445 
C 2496 1914 2464 1446 2426 1216 
C 2374 966 2323 915 2112 915 
C 1914 915 1766 934 1402 1005 
C 1466 819 1485 723 1504 518 
C 1747 480 1926 467 2125 467 
C 2541 467 2701 544 2797 794 
C 2880 1005 2950 1536 2982 2336 
C 3002 2733 3002 2752 3021 2906 
C 2886 2886 2784 2880 2547 2880 
L 1344 2880 
C 1350 3162 1350 3354 1357 3872 
L 3526 3872 
C 3603 2714 3757 1946 4058 1235 
C 3552 666 2957 256 2208 -45 
C 2374 -179 2438 -250 2566 -442 
C 3258 -109 3789 275 4275 794 
C 4454 493 4608 288 4787 109 
C 5050 -147 5312 -301 5485 -301 
C 5798 -301 5984 19 6138 832 
C 5997 909 5875 998 5728 1152 
C 5651 582 5549 243 5459 243 
C 5408 243 5293 320 5178 416 
C 4941 634 4800 826 4608 1184 
C 4915 1587 5075 1869 5306 2387 
C 5478 2784 5478 2784 5485 2803 
C 5568 3002 5594 3053 5638 3162 
L 5133 3360 
z
M 5536 4646 
C 5165 4979 5082 5050 4698 5286 
L 4352 5037 
C 4755 4781 4883 4672 5197 4352 
L 5536 4646 
z
" transform="scale(0.015625)"/>
       <path id="HiraginoSans-W4-7acb" d="M 2893 4282 
L 1312 4282 
C 986 4282 762 4294 576 4326 
L 576 3763 
C 774 3789 1005 3802 1312 3802 
L 5056 3802 
C 5376 3802 5606 3789 5818 3763 
L 5818 4326 
C 5619 4294 5389 4282 5056 4282 
L 3398 4282 
L 3398 4781 
C 3398 4954 3411 5120 3443 5293 
L 2848 5293 
C 2880 5088 2893 4954 2893 4774 
L 2893 4282 
z
M 1101 390 
C 774 390 550 403 333 429 
L 333 -141 
C 538 -109 768 -96 1101 -96 
L 5331 -96 
C 5651 -96 5856 -109 6067 -141 
L 6067 429 
C 5869 403 5638 390 5331 390 
L 3942 390 
C 4243 1024 4557 1850 4768 2528 
C 4973 3206 4973 3206 5037 3347 
L 4454 3533 
C 4358 2822 3866 1325 3411 390 
L 1101 390 
z
M 1402 3283 
C 1709 2522 1933 1715 2106 755 
L 2605 947 
C 2362 2067 2202 2637 1901 3462 
L 1402 3283 
z
" transform="scale(0.015625)"/>
       <path id="HiraginoSans-W4-5019" d="M 3994 2515 
C 3987 2138 3981 2042 3930 1747 
L 3053 1747 
C 2822 1747 2650 1760 2496 1779 
L 2496 1286 
C 2675 1312 2829 1325 3053 1325 
L 3834 1325 
C 3558 582 3059 198 2054 -38 
C 2189 -211 2266 -346 2304 -467 
C 3322 -160 3859 275 4192 1069 
C 4570 390 5203 -154 5971 -467 
C 6061 -262 6131 -147 6234 0 
C 5786 134 5434 326 5082 634 
C 4851 832 4672 1050 4518 1325 
L 5491 1325 
C 5747 1325 5971 1312 6131 1286 
L 6131 1786 
C 5958 1760 5773 1747 5498 1747 
L 4378 1747 
C 4416 1997 4429 2170 4448 2515 
L 5178 2515 
C 5427 2515 5600 2509 5805 2483 
L 5805 2963 
C 5664 2938 5478 2925 5171 2925 
L 3526 2925 
C 3597 3059 3622 3123 3699 3309 
L 3251 3430 
C 3168 3155 3110 3027 2982 2816 
C 2842 2579 2733 2445 2477 2202 
C 2598 2125 2720 2029 2829 1920 
C 3059 2176 3136 2278 3290 2515 
L 3994 2515 
z
M 4659 3936 
L 3072 3936 
C 2778 3936 2624 3942 2470 3968 
L 2470 3494 
C 2630 3514 2752 3520 3034 3520 
L 5459 3520 
C 5734 3520 5952 3507 6112 3482 
L 6112 3974 
C 5952 3949 5741 3936 5485 3936 
L 5133 3936 
L 5267 4806 
C 5286 4954 5306 5062 5318 5126 
C 5171 5114 5037 5107 4813 5107 
L 3462 5107 
C 3194 5107 3021 5120 2848 5146 
L 2848 4659 
C 3027 4685 3206 4691 3424 4691 
L 4774 4691 
L 4659 3936 
z
M 909 288 
C 909 -58 896 -256 870 -493 
L 1395 -493 
C 1376 -256 1370 -70 1370 294 
L 1370 3789 
C 1587 4275 1696 4531 1811 4915 
C 1869 5101 1882 5133 1920 5216 
L 1414 5370 
C 1254 4467 742 3418 109 2707 
C 186 2611 320 2394 384 2240 
C 634 2547 762 2758 928 3110 
C 915 2810 909 2554 909 2221 
L 909 288 
z
M 1798 4262 
C 1824 4077 1830 3981 1830 3731 
L 1830 1088 
C 1830 787 1818 640 1792 461 
L 2304 461 
C 2278 614 2272 749 2272 1056 
L 2272 3763 
C 2272 3987 2278 4109 2298 4262 
L 1798 4262 
z
" transform="scale(0.015625)"/>
       <path id="HiraginoSans-W4-88dc" d="M 2131 3027 
C 1978 2707 1882 2534 1722 2310 
C 1613 2438 1574 2496 1491 2618 
C 1741 2976 1869 3206 2106 3725 
C 2227 3987 2227 3994 2253 4032 
L 2048 4288 
C 1984 4275 1926 4269 1741 4269 
L 1504 4269 
L 1504 4870 
C 1504 5037 1517 5210 1536 5350 
L 1011 5350 
C 1037 5216 1043 5069 1043 4858 
L 1043 4269 
L 851 4269 
C 595 4269 480 4275 358 4301 
L 358 3808 
C 506 3827 672 3840 877 3840 
L 1677 3840 
C 1350 3014 877 2362 211 1830 
C 333 1651 378 1562 435 1376 
C 717 1638 864 1786 1062 2029 
C 1056 1952 1050 1638 1050 1555 
L 1050 173 
C 1050 -83 1037 -326 1005 -512 
L 1542 -512 
C 1517 -346 1504 -96 1504 173 
L 1504 1632 
C 1504 1786 1504 1786 1498 2016 
C 1690 1760 1843 1587 2118 1331 
C 2208 1510 2234 1549 2368 1709 
C 2176 1850 2118 1894 1965 2048 
C 2131 2259 2253 2445 2451 2771 
L 2131 3027 
z
M 2944 960 
L 3872 960 
L 3872 141 
C 3872 -154 3866 -301 3846 -429 
L 4346 -429 
C 4326 -269 4320 -134 4320 141 
L 4320 960 
L 5370 960 
L 5370 218 
C 5370 90 5344 64 5210 64 
C 5030 64 4979 70 4672 109 
C 4755 -77 4774 -160 4794 -378 
C 4966 -384 5056 -390 5190 -390 
C 5498 -390 5600 -371 5690 -301 
C 5779 -224 5818 -109 5818 96 
L 5818 2970 
C 5818 3277 5824 3450 5843 3597 
C 5709 3578 5517 3571 5248 3571 
L 4320 3571 
L 4320 4160 
L 5434 4160 
C 5683 4160 5862 4154 6010 4134 
L 6010 4634 
C 5843 4608 5664 4595 5440 4595 
L 4320 4595 
L 4320 4774 
C 4320 5024 4326 5171 4358 5350 
L 3834 5350 
C 3859 5171 3872 5011 3872 4781 
L 3872 4595 
L 2848 4595 
C 2598 4595 2445 4608 2298 4627 
L 2298 4134 
C 2464 4154 2611 4160 2816 4160 
L 3872 4160 
L 3872 3571 
L 3091 3571 
C 2829 3571 2643 3578 2477 3597 
C 2490 3450 2496 3328 2496 2982 
L 2496 154 
C 2496 -128 2483 -320 2458 -512 
L 2970 -512 
C 2950 -365 2944 -166 2944 160 
L 2944 960 
z
M 2944 1363 
L 2944 2080 
L 3872 2080 
L 3872 1363 
L 2944 1363 
z
M 2944 2477 
L 2944 3168 
L 3872 3168 
L 3872 2477 
L 2944 2477 
z
M 4320 1363 
L 4320 2080 
L 5370 2080 
L 5370 1363 
L 4320 1363 
z
M 4320 2477 
L 4320 3168 
L 5370 3168 
L 5370 2477 
L 4320 2477 
z
M 4582 5133 
C 4883 4979 5075 4845 5350 4614 
L 5664 4896 
C 5344 5146 5299 5171 4890 5395 
L 4582 5133 
z
" transform="scale(0.015625)"/>
       <path id="HiraginoSans-W4-ff08" d="M 6170 -531 
C 5690 -26 5491 256 5280 698 
C 5024 1235 4902 1805 4902 2432 
C 4902 3059 5024 3629 5280 4166 
C 5491 4608 5690 4890 6170 5395 
L 5517 5395 
C 5139 4947 4966 4685 4774 4275 
C 4499 3686 4365 3085 4365 2432 
C 4365 1779 4499 1178 4774 589 
C 4966 179 5139 -83 5517 -531 
L 6170 -531 
z
" transform="scale(0.015625)"/>
       <path id="HiraginoSans-W4-43" d="M 4544 3654 
C 4390 4064 4269 4269 4026 4506 
C 3661 4858 3174 5030 2560 5030 
C 1946 5030 1453 4845 1075 4480 
C 589 4006 320 3296 320 2458 
C 320 1651 570 947 1018 493 
C 1389 109 1920 -90 2554 -90 
C 3277 -90 3878 173 4237 640 
C 4403 858 4493 1062 4608 1459 
L 3968 1594 
C 3910 1306 3853 1152 3718 966 
C 3475 634 3066 448 2573 448 
C 1581 448 947 1235 947 2477 
C 947 3718 1568 4493 2573 4493 
C 3014 4493 3386 4339 3629 4051 
C 3763 3891 3834 3763 3923 3488 
L 4544 3654 
z
" transform="scale(0.015625)"/>
       <path id="HiraginoSans-W4-2f" d="M 2432 4934 
L 122 -979 
L 691 -979 
L 2995 4934 
L 2432 4934 
z
" transform="scale(0.015625)"/>
       <path id="HiraginoSans-W4-7cfb" d="M 582 1715 
C 704 1734 742 1741 870 1741 
C 1933 1779 2618 1811 2918 1824 
L 2918 160 
C 2918 -160 2912 -294 2880 -467 
L 3456 -467 
C 3424 -294 3418 -160 3418 160 
L 3418 1850 
C 4282 1888 4422 1901 5331 1984 
C 5472 1786 5536 1690 5728 1395 
L 6138 1690 
C 5632 2387 5472 2573 4902 3174 
L 4525 2938 
C 4787 2662 4877 2560 5024 2387 
C 4294 2323 4294 2323 3098 2278 
C 3443 2592 4045 3206 4301 3501 
C 4614 3866 4678 3942 4749 4000 
L 4269 4262 
C 4141 4051 4096 3987 3846 3693 
C 3661 3475 3661 3475 3021 2816 
C 2739 3066 2669 3123 2368 3360 
C 2790 3789 3053 4109 3398 4602 
C 3968 4672 4666 4781 5024 4858 
C 5344 4928 5344 4928 5459 4947 
L 5120 5402 
C 4730 5254 4589 5222 4058 5126 
C 3226 4986 1843 4877 890 4877 
C 832 4877 768 4877 672 4877 
C 774 4691 813 4602 858 4422 
C 1651 4454 2074 4480 2765 4538 
C 2534 4198 2349 3968 2022 3622 
C 1786 3795 1747 3821 1510 3994 
L 1152 3674 
C 1901 3174 2035 3072 2701 2496 
C 2618 2413 2586 2387 2451 2266 
C 1434 2246 1434 2246 1248 2246 
C 858 2246 698 2253 525 2278 
L 582 1715 
z
M 1843 1523 
C 1478 960 998 518 358 160 
C 499 45 602 -77 717 -250 
C 1382 205 1805 621 2253 1267 
L 1843 1523 
z
M 4083 1344 
C 4614 621 4954 282 5670 -237 
C 5786 -64 5875 45 6016 179 
C 5414 550 5011 915 4486 1581 
L 4083 1344 
z
" transform="scale(0.015625)"/>
       <path id="HiraginoSans-W4-ff09" d="M 890 -531 
C 1261 -83 1434 179 1626 589 
C 1901 1178 2035 1773 2035 2432 
C 2035 3091 1901 3686 1626 4275 
C 1434 4685 1261 4947 890 5395 
L 230 5395 
C 710 4890 909 4608 1120 4166 
C 1376 3629 1498 3072 1498 2432 
C 1498 1792 1376 1235 1120 698 
C 909 256 710 -26 230 -531 
L 890 -531 
z
" transform="scale(0.015625)"/>
      </defs>
      <use xlink:href="#HiraginoSans-W4-6210"/>
      <use xlink:href="#HiraginoSans-W4-7acb" x="99.999985"/>
      <use xlink:href="#HiraginoSans-W4-5019" x="199.999969"/>
      <use xlink:href="#HiraginoSans-W4-88dc" x="299.999954"/>
      <use xlink:href="#HiraginoSans-W4-ff08" x="399.999939"/>
      <use xlink:href="#HiraginoSans-W4-43" x="499.999924"/>
      <use xlink:href="#HiraginoSans-W4-50" x="576.599915"/>
      <use xlink:href="#HiraginoSans-W4-55" x="644.199905"/>
      <use xlink:href="#HiraginoSans-W4-2f" x="723.099899"/>
      <use xlink:href="#HiraginoSans-W4-47" x="771.799896"/>
      <use xlink:href="#HiraginoSans-W4-50" x="848.19989"/>
      <use xlink:href="#HiraginoSans-W4-55" x="915.799881"/>
      <use xlink:href="#HiraginoSans-W4-20" x="994.699875"/>
      <use xlink:href="#HiraginoSans-W4-7cfb" x="1027.999863"/>
      <use xlink:href="#HiraginoSans-W4-ff09" x="1127.999847"/>
     </g>
    </g>
    <g id="patch_21">
     <path d="M 59.364688 55.176094 
L 79.364688 55.176094 
L 79.364688 48.176094 
L 59.364688 48.176094 
z
" style="fill: #c62828; stroke: #c62828; stroke-linejoin: miter"/>
    </g>
    <g id="text_33">
     <!-- 不成立 ANE 系 -->
     <g transform="translate(87.364688 55.176094) scale(0.1 -0.1)">
      <defs>
       <path id="HiraginoSans-W4-4e0d" d="M 3194 4454 
C 2874 3866 2662 3571 2208 3098 
C 1638 2496 1088 2086 211 1606 
C 384 1427 467 1312 550 1152 
C 1619 1818 2246 2349 2854 3117 
C 2842 2835 2842 2694 2842 2426 
L 2842 243 
C 2842 0 2822 -262 2797 -480 
L 3411 -480 
C 3379 -256 3366 -32 3366 243 
L 3366 3738 
C 3584 4070 3642 4173 3789 4454 
L 5306 4454 
C 5562 4454 5818 4442 6035 4416 
L 6035 4966 
C 5843 4941 5626 4928 5293 4928 
L 1088 4928 
C 800 4928 563 4941 352 4966 
L 352 4416 
C 563 4442 851 4454 1101 4454 
L 3194 4454 
z
M 3610 3110 
C 4294 2266 4941 1722 5888 1190 
C 6010 1408 6093 1530 6227 1670 
C 5760 1888 5350 2138 4941 2464 
C 4576 2752 4320 3008 3968 3443 
L 3610 3110 
z
" transform="scale(0.015625)"/>
      </defs>
      <use xlink:href="#HiraginoSans-W4-4e0d"/>
      <use xlink:href="#HiraginoSans-W4-6210" x="99.999985"/>
      <use xlink:href="#HiraginoSans-W4-7acb" x="199.999969"/>
      <use xlink:href="#HiraginoSans-W4-20" x="299.999954"/>
      <use xlink:href="#HiraginoSans-W4-41" x="333.299942"/>
      <use xlink:href="#HiraginoSans-W4-4e" x="409.899933"/>
      <use xlink:href="#HiraginoSans-W4-45" x="488.399918"/>
      <use xlink:href="#HiraginoSans-W4-20" x="553.899902"/>
      <use xlink:href="#HiraginoSans-W4-7cfb" x="587.19989"/>
     </g>
    </g>
   </g>
  </g>
 </g>
 <defs>
  <clipPath id="pfa937790dc">
   <rect x="50.364688" y="23.496406" width="669.6" height="277.2"/>
  </clipPath>
 </defs>
</svg>
