<?xml version="1.0" encoding="utf-8" standalone="no"?>
<!DOCTYPE svg PUBLIC "-//W3C//DTD SVG 1.1//EN"
  "http://www.w3.org/Graphics/SVG/1.1/DTD/svg11.dtd">
<svg xmlns:xlink="http://www.w3.org/1999/xlink" width="528.911562pt" height="270.428pt" viewBox="0 0 528.911562 270.428" xmlns="http://www.w3.org/2000/svg" version="1.1">
 <metadata>
  <rdf:RDF xmlns:dc="http://purl.org/dc/elements/1.1/" xmlns:cc="http://creativecommons.org/ns#" xmlns:rdf="http://www.w3.org/1999/02/22-rdf-syntax-ns#">
   <cc:Work>
    <dc:type rdf:resource="http://purl.org/dc/dcmitype/StillImage"/>
    <dc:date>2026-06-21T21:08:23.863045</dc:date>
    <dc:format>image/svg+xml</dc:format>
    <dc:creator>
     <cc:Agent>
      <dc:title>Matplotlib v3.9.4, https://matplotlib.org/</dc:title>
     </cc:Agent>
    </dc:creator>
   </cc:Work>
  </rdf:RDF>
 </metadata>
 <defs>
  <style type="text/css">*{stroke-linejoin: round; stroke-linecap: butt}</style>
 </defs>
 <g id="figure_1">
  <g id="patch_1">
   <path d="M 0 270.428 
L 528.911562 270.428 
L 528.911562 0 
L 0 0 
z
" style="fill: #ffffff"/>
  </g>
  <g id="axes_1">
   <g id="patch_2">
    <path d="M 113.795781 146.804 
L 214.235781 146.804 
L 214.235781 88.592 
L 113.795781 88.592 
z
" clip-path="url(#p4bfe775c28)" style="fill: #a5d6a7; stroke: #ffffff; stroke-width: 3; stroke-linejoin: miter"/>
   </g>
   <g id="patch_3">
    <path d="M 214.235781 146.804 
L 314.675781 146.804 
L 314.675781 88.592 
L 214.235781 88.592 
z
" clip-path="url(#p4bfe775c28)" style="fill: #a5d6a7; stroke: #ffffff; stroke-width: 3; stroke-linejoin: miter"/>
   </g>
   <g id="patch_4">
    <path d="M 314.675781 146.804 
L 415.115781 146.804 
L 415.115781 88.592 
L 314.675781 88.592 
z
" clip-path="url(#p4bfe775c28)" style="fill: #a5d6a7; stroke: #ffffff; stroke-width: 3; stroke-linejoin: miter"/>
   </g>
   <g id="patch_5">
    <path d="M 415.115781 146.804 
L 515.555781 146.804 
L 515.555781 88.592 
L 415.115781 88.592 
z
" clip-path="url(#p4bfe775c28)" style="fill: #a5d6a7; stroke: #ffffff; stroke-width: 3; stroke-linejoin: miter"/>
   </g>
   <g id="patch_6">
    <path d="M 113.795781 205.016 
L 214.235781 205.016 
L 214.235781 146.804 
L 113.795781 146.804 
z
" clip-path="url(#p4bfe775c28)" style="fill: #a5d6a7; stroke: #ffffff; stroke-width: 3; stroke-linejoin: miter"/>
   </g>
   <g id="patch_7">
    <path d="M 214.235781 205.016 
L 314.675781 205.016 
L 314.675781 146.804 
L 214.235781 146.804 
z
" clip-path="url(#p4bfe775c28)" style="fill: #a5d6a7; stroke: #ffffff; stroke-width: 3; stroke-linejoin: miter"/>
   </g>
   <g id="patch_8">
    <path d="M 314.675781 205.016 
L 415.115781 205.016 
L 415.115781 146.804 
L 314.675781 146.804 
z
" clip-path="url(#p4bfe775c28)" style="fill: #ef9a9a; stroke: #ffffff; stroke-width: 3; stroke-linejoin: miter"/>
   </g>
   <g id="patch_9">
    <path d="M 415.115781 205.016 
L 515.555781 205.016 
L 515.555781 146.804 
L 415.115781 146.804 
z
" clip-path="url(#p4bfe775c28)" style="fill: #ef9a9a; stroke: #ffffff; stroke-width: 3; stroke-linejoin: miter"/>
   </g>
   <g id="patch_10">
    <path d="M 113.795781 263.228 
L 214.235781 263.228 
L 214.235781 205.016 
L 113.795781 205.016 
z
" clip-path="url(#p4bfe775c28)" style="fill: #a5d6a7; stroke: #ffffff; stroke-width: 3; stroke-linejoin: miter"/>
   </g>
   <g id="patch_11">
    <path d="M 214.235781 263.228 
L 314.675781 263.228 
L 314.675781 205.016 
L 214.235781 205.016 
z
" clip-path="url(#p4bfe775c28)" style="fill: #a5d6a7; stroke: #ffffff; stroke-width: 3; stroke-linejoin: miter"/>
   </g>
   <g id="patch_12">
    <path d="M 314.675781 263.228 
L 415.115781 263.228 
L 415.115781 205.016 
L 314.675781 205.016 
z
" clip-path="url(#p4bfe775c28)" style="fill: #ef9a9a; stroke: #ffffff; stroke-width: 3; stroke-linejoin: miter"/>
   </g>
   <g id="patch_13">
    <path d="M 415.115781 263.228 
L 515.555781 263.228 
L 515.555781 205.016 
L 415.115781 205.016 
z
" clip-path="url(#p4bfe775c28)" style="fill: #ef9a9a; stroke: #ffffff; stroke-width: 3; stroke-linejoin: miter"/>
   </g>
   <g id="text_1">
    <!-- cpuOnly -->
    <g transform="translate(136.379219 63.086) scale(0.12 -0.12)">
     <defs>
      <path id="HiraginoSans-W7-63" d="M 3917 2541 
C 3840 2765 3789 2886 3693 3034 
C 3373 3526 2835 3789 2150 3789 
C 1587 3789 1114 3610 774 3270 
C 416 2912 211 2368 211 1760 
C 211 1152 410 602 762 243 
C 1088 -90 1581 -269 2150 -269 
C 2835 -269 3360 -32 3686 429 
C 3808 602 3878 755 3962 1011 
L 2989 1184 
C 2950 1030 2925 954 2861 870 
C 2720 659 2477 544 2189 544 
C 1606 544 1242 1018 1242 1773 
C 1242 2528 1587 2982 2170 2982 
C 2426 2982 2630 2893 2778 2707 
C 2854 2611 2893 2528 2950 2330 
L 3917 2541 
z
" transform="scale(0.015625)"/>
      <path id="HiraginoSans-W7-70" d="M 1466 -1338 
C 1434 -1062 1421 -832 1421 -410 
L 1421 6 
C 1421 102 1414 134 1408 179 
C 1408 275 1408 275 1402 346 
C 1562 179 1664 102 1830 19 
C 2080 -96 2400 -166 2714 -166 
C 3226 -166 3667 0 3981 314 
C 4333 659 4512 1171 4512 1818 
C 4512 2458 4339 2950 4000 3283 
C 3686 3597 3258 3757 2720 3757 
C 2176 3757 1779 3603 1402 3245 
C 1408 3309 1414 3379 1414 3437 
L 1414 3654 
L 371 3654 
C 410 3360 422 3123 422 2726 
L 422 -416 
C 422 -787 403 -1050 371 -1338 
L 1466 -1338 
z
M 2502 646 
C 1882 646 1440 1126 1440 1798 
C 1440 2451 1888 2938 2502 2938 
C 3110 2938 3482 2515 3482 1818 
C 3482 1088 3110 646 2502 646 
z
" transform="scale(0.015625)"/>
      <path id="HiraginoSans-W7-75" d="M 3008 3654 
C 3046 3341 3059 3104 3059 2758 
L 3059 1459 
C 2790 986 2381 678 2010 678 
C 1856 678 1728 717 1632 787 
C 1478 902 1427 1050 1427 1389 
L 1427 2758 
C 1427 3117 1440 3354 1478 3654 
L 358 3654 
C 397 3392 410 3149 410 2758 
L 410 1146 
C 410 698 525 371 755 134 
C 986 -96 1325 -218 1734 -218 
C 2278 -218 2682 -38 3072 378 
C 3066 256 3059 173 3059 122 
L 3059 -134 
L 4122 -134 
C 4083 109 4070 352 4070 762 
L 4070 2758 
C 4070 3130 4083 3366 4122 3654 
L 3008 3654 
z
" transform="scale(0.015625)"/>
      <path id="HiraginoSans-W7-4f" d="M 2746 5178 
C 1235 5178 262 4122 262 2477 
C 262 819 1235 -250 2746 -250 
C 4243 -250 5229 832 5229 2483 
C 5229 3322 4973 4038 4493 4512 
C 4051 4960 3469 5178 2746 5178 
z
M 2752 678 
C 1894 678 1357 1376 1357 2490 
C 1357 3571 1894 4256 2746 4256 
C 3104 4256 3418 4134 3654 3898 
C 3962 3590 4128 3104 4128 2477 
C 4128 1363 3603 678 2752 678 
z
" transform="scale(0.015625)"/>
      <path id="HiraginoSans-W7-6e" d="M 1485 -134 
C 1446 179 1434 416 1434 762 
L 1434 2061 
C 1709 2541 2106 2835 2483 2835 
C 2637 2835 2765 2797 2861 2726 
C 3014 2611 3066 2464 3066 2131 
L 3066 762 
C 3066 403 3053 166 3014 -134 
L 4134 -134 
C 4096 128 4083 371 4083 762 
L 4083 2374 
C 4083 3245 3610 3731 2758 3731 
C 2214 3731 1811 3552 1414 3142 
C 1421 3264 1427 3347 1427 3398 
L 1427 3654 
L 371 3654 
C 410 3411 422 3168 422 2758 
L 422 762 
C 422 390 410 154 371 -134 
L 1485 -134 
z
" transform="scale(0.015625)"/>
      <path id="HiraginoSans-W7-6c" d="M 371 5069 
C 410 4819 422 4589 422 4173 
L 422 762 
C 422 339 410 147 371 -134 
L 1491 -134 
C 1459 166 1446 397 1446 762 
L 1446 4173 
C 1446 4582 1459 4813 1491 5069 
L 371 5069 
z
" transform="scale(0.015625)"/>
      <path id="HiraginoSans-W7-79" d="M 1619 179 
L 1459 -173 
C 1357 -384 1190 -486 947 -486 
C 787 -486 672 -454 461 -358 
L 320 -1248 
C 646 -1312 864 -1338 1088 -1338 
C 1754 -1338 2163 -1088 2400 -550 
L 3859 2835 
C 4045 3283 4045 3283 4090 3373 
C 4179 3558 4179 3558 4224 3654 
L 3059 3654 
C 3021 3437 2957 3245 2803 2854 
L 2157 1229 
L 1453 2912 
C 1344 3155 1254 3469 1222 3654 
L 51 3654 
C 128 3501 160 3437 429 2835 
L 1619 179 
z
" transform="scale(0.015625)"/>
     </defs>
     <use xlink:href="#HiraginoSans-W7-63"/>
     <use xlink:href="#HiraginoSans-W7-70" x="64.799988"/>
     <use xlink:href="#HiraginoSans-W7-75" x="138.499969"/>
     <use xlink:href="#HiraginoSans-W7-4f" x="208.699951"/>
     <use xlink:href="#HiraginoSans-W7-6e" x="294.599945"/>
     <use xlink:href="#HiraginoSans-W7-6c" x="364.799927"/>
     <use xlink:href="#HiraginoSans-W7-79" x="393.899918"/>
    </g>
   </g>
   <g id="text_2">
    <!-- cpuAndGPU -->
    <g transform="translate(223.847031 63.091625) scale(0.12 -0.12)">
     <defs>
      <path id="HiraginoSans-W7-41" d="M 5299 -134 
C 5222 26 5107 307 4986 634 
L 3578 4403 
C 3437 4768 3398 4902 3360 5069 
L 1984 5069 
C 1946 4890 1894 4723 1779 4403 
L 384 634 
C 250 269 160 58 58 -134 
L 1325 -134 
C 1357 83 1395 256 1498 544 
L 1715 1165 
L 3648 1165 
L 3866 544 
C 3930 352 3987 128 4032 -134 
L 5299 -134 
z
M 3379 2067 
L 1984 2067 
L 2586 3878 
C 2630 4006 2637 4038 2675 4173 
C 2726 4000 2752 3936 2771 3878 
L 3379 2067 
z
" transform="scale(0.015625)"/>
      <path id="HiraginoSans-W7-64" d="M 3296 -134 
L 4339 -134 
C 4301 173 4288 390 4288 800 
L 4288 4147 
C 4288 4518 4301 4774 4339 5069 
L 3245 5069 
C 3283 4794 3296 4557 3296 4141 
L 3296 3597 
C 3296 3475 3296 3398 3302 3309 
L 3309 3219 
C 3168 3373 3091 3437 2925 3526 
C 2643 3680 2349 3750 2003 3750 
C 902 3750 211 2989 211 1766 
C 211 1114 403 576 768 211 
C 1075 -90 1485 -237 2003 -237 
C 2586 -237 2963 -83 3309 294 
C 3302 192 3296 173 3296 102 
L 3296 -134 
z
M 3277 1773 
C 3277 1402 3142 1050 2918 845 
C 2746 691 2464 589 2202 589 
C 1971 589 1722 685 1562 838 
C 1350 1037 1235 1370 1235 1760 
C 1235 2458 1613 2931 2176 2931 
C 2835 2931 3277 2470 3277 1773 
z
" transform="scale(0.015625)"/>
      <path id="HiraginoSans-W7-47" d="M 3814 1837 
L 3814 941 
C 3494 755 3194 678 2810 678 
C 2362 678 2016 813 1786 1075 
C 1510 1389 1363 1882 1363 2496 
C 1363 3123 1517 3597 1811 3904 
C 2035 4134 2362 4262 2714 4262 
C 3014 4262 3226 4211 3405 4090 
C 3590 3968 3686 3827 3789 3533 
L 4870 3802 
C 4736 4173 4621 4365 4403 4589 
C 4019 4973 3462 5184 2816 5184 
C 2291 5184 1850 5088 1491 4883 
C 710 4454 262 3590 262 2502 
C 262 1715 486 992 877 525 
C 1306 26 1971 -243 2797 -243 
C 3136 -243 3514 -192 3821 -109 
C 4186 -13 4435 96 4858 352 
C 4819 634 4813 819 4813 1235 
L 4813 1933 
C 4813 2323 4826 2522 4858 2765 
C 4595 2739 4371 2733 4064 2733 
L 3642 2733 
C 3219 2733 3078 2739 2842 2771 
L 2842 1805 
C 3034 1830 3162 1837 3488 1837 
L 3814 1837 
z
" transform="scale(0.015625)"/>
      <path id="HiraginoSans-W7-50" d="M 1581 -134 
C 1542 122 1530 397 1530 762 
L 1530 1709 
L 2650 1709 
C 3270 1709 3744 1869 4070 2202 
C 4371 2502 4525 2925 4525 3437 
C 4525 3917 4378 4320 4109 4589 
C 3789 4909 3315 5069 2669 5069 
L 1306 5069 
C 928 5069 717 5075 429 5088 
C 467 4781 480 4538 480 4211 
L 480 749 
C 480 384 467 128 429 -134 
L 1581 -134 
z
M 1530 2611 
L 1530 4166 
L 2624 4166 
C 2912 4166 3110 4102 3245 3955 
C 3373 3827 3437 3635 3437 3405 
C 3437 2899 3142 2611 2624 2611 
L 1530 2611 
z
" transform="scale(0.015625)"/>
      <path id="HiraginoSans-W7-55" d="M 3910 5069 
C 3949 4813 3962 4595 3962 4147 
L 3962 1920 
C 3962 1549 3891 1267 3744 1069 
C 3552 806 3194 659 2746 659 
C 2310 659 1984 781 1779 1024 
C 1600 1242 1523 1517 1523 1920 
L 1523 4147 
C 1523 4589 1536 4845 1574 5069 
L 416 5069 
C 454 4832 467 4570 467 4147 
L 467 1920 
C 467 1248 640 736 986 358 
C 1350 -38 1971 -256 2733 -256 
C 4186 -256 5018 531 5018 1914 
L 5018 4154 
C 5018 4576 5030 4813 5069 5069 
L 3910 5069 
z
" transform="scale(0.015625)"/>
     </defs>
     <use xlink:href="#HiraginoSans-W7-63"/>
     <use xlink:href="#HiraginoSans-W7-70" x="64.799988"/>
     <use xlink:href="#HiraginoSans-W7-75" x="138.499969"/>
     <use xlink:href="#HiraginoSans-W7-41" x="208.699951"/>
     <use xlink:href="#HiraginoSans-W7-6e" x="292.399933"/>
     <use xlink:href="#HiraginoSans-W7-64" x="362.599915"/>
     <use xlink:href="#HiraginoSans-W7-47" x="436.099899"/>
     <use xlink:href="#HiraginoSans-W7-50" x="517.499893"/>
     <use xlink:href="#HiraginoSans-W7-55" x="591.099884"/>
    </g>
   </g>
   <g id="text_3">
    <!-- cpuAndNE -->
    <g transform="translate(329.417969 63.026) scale(0.12 -0.12)">
     <defs>
      <path id="HiraginoSans-W7-4e" d="M 2035 4333 
C 1805 4672 1677 4902 1619 5069 
L 429 5069 
C 467 4787 480 4531 480 4179 
L 480 851 
C 480 397 467 96 429 -134 
L 1568 -134 
C 1530 115 1517 410 1517 845 
L 1517 2714 
C 1517 2842 1504 3110 1498 3219 
C 1478 3443 1478 3443 1472 3520 
C 1645 3187 1754 2995 1882 2803 
L 3354 614 
C 3558 301 3712 38 3789 -134 
L 4992 -134 
C 4954 102 4941 378 4941 755 
L 4941 4141 
C 4941 4550 4954 4800 4992 5069 
L 3846 5069 
C 3891 4794 3904 4563 3904 4147 
L 3904 2208 
C 3904 1971 3923 1632 3942 1408 
C 3808 1664 3654 1920 3507 2138 
L 2035 4333 
z
" transform="scale(0.015625)"/>
      <path id="HiraginoSans-W7-45" d="M 4243 838 
C 3962 806 3757 794 3360 794 
L 1530 794 
L 1530 2093 
L 2995 2093 
C 3418 2093 3616 2080 3891 2048 
L 3891 3046 
C 3590 3014 3354 3002 2995 3002 
L 1536 3002 
L 1536 4147 
L 3283 4147 
C 3686 4147 3904 4134 4173 4102 
L 4173 5114 
C 3846 5082 3629 5069 3283 5069 
L 1299 5069 
C 858 5069 691 5075 429 5088 
C 467 4787 480 4576 480 4211 
L 480 736 
C 480 326 467 102 429 -154 
C 691 -141 870 -134 1306 -134 
L 3354 -134 
C 3770 -134 4006 -147 4243 -179 
L 4243 838 
z
" transform="scale(0.015625)"/>
     </defs>
     <use xlink:href="#HiraginoSans-W7-63"/>
     <use xlink:href="#HiraginoSans-W7-70" x="64.799988"/>
     <use xlink:href="#HiraginoSans-W7-75" x="138.499969"/>
     <use xlink:href="#HiraginoSans-W7-41" x="208.699951"/>
     <use xlink:href="#HiraginoSans-W7-6e" x="292.399933"/>
     <use xlink:href="#HiraginoSans-W7-64" x="362.599915"/>
     <use xlink:href="#HiraginoSans-W7-4e" x="436.099899"/>
     <use xlink:href="#HiraginoSans-W7-45" x="520.69989"/>
    </g>
   </g>
   <g id="text_4">
    <!-- all -->
    <g transform="translate(457.860156 62.983812) scale(0.12 -0.12)">
     <defs>
      <path id="HiraginoSans-W7-61" d="M 2842 -134 
L 3878 -134 
C 3846 154 3834 346 3834 717 
L 3834 2451 
C 3834 2912 3750 3162 3533 3366 
C 3251 3635 2822 3763 2195 3763 
C 1594 3763 1133 3642 813 3392 
C 589 3219 467 3046 333 2675 
L 1344 2509 
C 1414 2688 1472 2778 1587 2861 
C 1709 2950 1939 3008 2189 3008 
C 2624 3008 2842 2854 2842 2541 
L 2842 2285 
C 2029 2259 1837 2240 1466 2163 
C 672 1984 237 1549 237 928 
C 237 589 365 294 602 96 
C 832 -109 1158 -205 1613 -205 
C 2131 -205 2458 -96 2842 198 
L 2842 -134 
z
M 2842 1357 
C 2842 1133 2765 973 2579 813 
C 2381 646 2067 538 1792 538 
C 1446 538 1254 685 1254 954 
C 1254 1197 1408 1370 1702 1459 
C 1990 1549 2259 1581 2842 1600 
L 2842 1357 
z
" transform="scale(0.015625)"/>
     </defs>
     <use xlink:href="#HiraginoSans-W7-61"/>
     <use xlink:href="#HiraginoSans-W7-6c" x="66.399994"/>
     <use xlink:href="#HiraginoSans-W7-6c" x="95.499985"/>
    </g>
   </g>
   <g id="text_5">
    <!-- Float32 -->
    <g transform="translate(38.088906 121.195812) scale(0.12 -0.12)">
     <defs>
      <path id="HiraginoSans-W7-46" d="M 1542 1997 
L 2854 1997 
C 3258 1997 3526 1984 3770 1952 
L 3770 2957 
C 3507 2925 3277 2912 2854 2912 
L 1542 2912 
L 1542 4128 
L 3174 4128 
C 3590 4128 3846 4115 4090 4083 
L 4090 5114 
C 3814 5082 3597 5069 3168 5069 
L 1306 5069 
C 864 5069 691 5075 435 5088 
C 474 4794 486 4595 486 4211 
L 486 813 
C 486 378 467 102 429 -134 
L 1594 -134 
C 1555 115 1542 352 1542 826 
L 1542 1997 
z
" transform="scale(0.015625)"/>
      <path id="HiraginoSans-W7-6f" d="M 2208 -262 
C 3418 -262 4211 544 4211 1773 
C 4211 3002 3437 3782 2214 3782 
C 992 3782 211 2995 211 1760 
C 211 525 986 -262 2208 -262 
z
M 2221 2976 
C 2835 2976 3194 2522 3194 1754 
C 3194 1005 2829 557 2214 557 
C 1600 557 1229 1018 1229 1773 
C 1229 2522 1606 2976 2221 2976 
z
" transform="scale(0.015625)"/>
      <path id="HiraginoSans-W7-74" d="M 813 4646 
C 851 4352 864 4141 864 3821 
L 864 3654 
L 627 3654 
C 371 3654 237 3661 51 3693 
L 51 2790 
C 250 2822 378 2829 614 2829 
L 864 2829 
L 864 768 
C 864 58 1197 -224 2022 -224 
C 2355 -224 2586 -186 2842 -96 
L 2739 742 
C 2573 646 2445 614 2272 614 
C 1971 614 1862 723 1862 1024 
L 1862 2829 
L 2144 2829 
C 2419 2829 2541 2822 2752 2790 
L 2752 3686 
C 2554 3661 2406 3654 2112 3654 
L 1862 3654 
L 1862 3821 
C 1862 4122 1882 4403 1914 4646 
L 813 4646 
z
" transform="scale(0.015625)"/>
      <path id="HiraginoSans-W7-33" d="M 243 1158 
C 352 787 435 602 614 390 
C 979 -38 1568 -256 2349 -256 
C 3091 -256 3667 -70 4032 288 
C 4275 525 4422 877 4422 1229 
C 4422 1600 4326 1875 4122 2112 
C 3904 2349 3661 2470 3219 2554 
C 3654 2682 3821 2771 3994 2976 
C 4179 3187 4275 3475 4275 3808 
C 4275 4134 4141 4454 3917 4678 
C 3584 5011 3053 5190 2400 5190 
C 1715 5190 1190 5005 826 4640 
C 608 4422 506 4230 378 3840 
L 1517 3661 
C 1568 3840 1600 3917 1677 4013 
C 1818 4192 2054 4294 2349 4294 
C 2880 4294 3149 4090 3149 3674 
C 3149 3430 3046 3245 2854 3123 
C 2707 3027 2464 2976 2150 2976 
C 1952 2976 1734 2989 1542 3014 
L 1542 2074 
C 1779 2099 1997 2106 2317 2106 
C 2957 2106 3283 1856 3283 1376 
C 3283 922 2925 634 2362 634 
C 2054 634 1792 723 1606 902 
C 1472 1024 1421 1126 1370 1363 
L 243 1158 
z
" transform="scale(0.015625)"/>
      <path id="HiraginoSans-W7-32" d="M 3354 -134 
C 3782 -134 4045 -147 4384 -179 
L 4384 845 
C 4147 806 3846 794 3405 794 
L 1786 794 
C 1869 998 1939 1107 2086 1267 
C 2234 1421 2528 1670 2790 1856 
C 3546 2381 3597 2419 3750 2560 
C 4122 2893 4314 3283 4314 3712 
C 4314 4608 3565 5178 2387 5178 
C 1696 5178 1158 4966 813 4570 
C 570 4275 454 4006 358 3488 
L 1491 3360 
C 1530 3648 1568 3789 1664 3930 
C 1818 4154 2074 4275 2406 4275 
C 2867 4275 3187 4032 3187 3680 
C 3187 3347 3046 3168 2458 2771 
C 1792 2317 1600 2176 1363 1958 
C 941 1574 640 1126 474 627 
C 390 397 352 179 320 -160 
C 563 -134 666 -134 1210 -134 
L 3354 -134 
z
" transform="scale(0.015625)"/>
     </defs>
     <use xlink:href="#HiraginoSans-W7-46"/>
     <use xlink:href="#HiraginoSans-W7-6c" x="66.499985"/>
     <use xlink:href="#HiraginoSans-W7-6f" x="95.599976"/>
     <use xlink:href="#HiraginoSans-W7-61" x="164.699966"/>
     <use xlink:href="#HiraginoSans-W7-74" x="231.09996"/>
     <use xlink:href="#HiraginoSans-W7-33" x="276.599945"/>
     <use xlink:href="#HiraginoSans-W7-32" x="350.699936"/>
    </g>
   </g>
   <g id="text_6">
    <!-- ○ -->
    <g style="fill: #2e7d32" transform="translate(155.015781 115.959279) scale(0.18 -0.18)">
     <defs>
      <path id="HiraginoSans-W7-25cb" d="M 3200 5235 
C 2509 5235 1818 4966 1318 4512 
C 710 3955 390 3238 390 2432 
C 390 883 1651 -378 3200 -378 
C 4749 -378 6003 877 6003 2432 
C 6003 3130 5747 3795 5280 4307 
C 4736 4909 4006 5235 3200 5235 
z
M 3200 5011 
C 3827 5011 4467 4768 4922 4346 
C 5485 3834 5779 3174 5779 2426 
C 5779 1005 4621 -154 3200 -154 
C 1773 -154 614 1005 614 2432 
C 614 3072 851 3680 1280 4154 
C 1786 4710 2451 5011 3200 5011 
z
" transform="scale(0.015625)"/>
     </defs>
     <use xlink:href="#HiraginoSans-W7-25cb"/>
    </g>
   </g>
   <g id="text_7">
    <!-- normal -->
    <g style="fill: #2e7d32" transform="translate(148.229219 133.051359) scale(0.09 -0.09)">
     <defs>
      <path id="HiraginoSans-W4-6e" d="M 1114 0 
C 1082 256 1069 474 1069 755 
L 1069 2010 
C 1139 2272 1222 2426 1395 2630 
C 1658 2944 1933 3085 2266 3085 
C 2752 3085 3002 2797 3002 2234 
L 3002 755 
C 3002 454 2989 269 2957 0 
L 3629 0 
C 3597 218 3584 416 3584 749 
L 3584 2323 
C 3584 2662 3520 2912 3392 3110 
C 3181 3418 2816 3584 2349 3584 
C 1779 3584 1376 3360 1056 2867 
C 1069 3027 1069 3059 1069 3142 
L 1069 3520 
L 442 3520 
C 480 3264 493 3078 493 2765 
L 493 755 
C 493 429 480 256 442 0 
L 1114 0 
z
" transform="scale(0.015625)"/>
      <path id="HiraginoSans-W4-6f" d="M 2054 -90 
C 3110 -90 3802 640 3802 1766 
C 3802 2893 3117 3610 2042 3610 
C 966 3610 282 2886 282 1760 
C 282 627 966 -90 2054 -90 
z
M 2054 3130 
C 2771 3130 3213 2605 3213 1754 
C 3213 909 2771 397 2042 397 
C 1318 397 870 922 870 1766 
C 870 2611 1325 3130 2054 3130 
z
" transform="scale(0.015625)"/>
      <path id="HiraginoSans-W4-72" d="M 2784 3520 
C 2522 3565 2394 3578 2195 3578 
C 1862 3578 1568 3488 1350 3315 
C 1242 3238 1165 3142 1056 2976 
C 1062 3027 1062 3040 1069 3085 
C 1069 3104 1069 3117 1069 3130 
C 1069 3162 1069 3181 1069 3187 
L 1069 3520 
L 442 3520 
C 474 3283 486 3104 486 2765 
L 486 755 
C 486 467 480 314 442 0 
L 1114 0 
C 1082 262 1069 448 1069 755 
L 1069 2022 
C 1101 2317 1158 2470 1312 2669 
C 1504 2912 1760 3034 2093 3034 
C 2259 3034 2381 3014 2618 2938 
L 2784 3520 
z
" transform="scale(0.015625)"/>
      <path id="HiraginoSans-W4-6d" d="M 1107 0 
C 1075 262 1062 442 1062 755 
L 1062 2016 
C 1062 2144 1178 2464 1286 2624 
C 1485 2912 1786 3091 2074 3091 
C 2528 3091 2765 2803 2765 2246 
L 2765 755 
C 2765 422 2752 230 2720 0 
L 3392 0 
C 3360 230 3347 416 3347 749 
L 3347 2016 
C 3347 2176 3456 2483 3571 2650 
C 3763 2931 4045 3091 4346 3091 
C 4525 3091 4672 3053 4781 2976 
C 4973 2842 5043 2637 5043 2246 
L 5043 755 
C 5043 403 5037 256 4998 0 
L 5670 0 
C 5638 230 5626 416 5626 749 
L 5626 2336 
C 5626 2733 5555 2995 5382 3206 
C 5184 3462 4864 3590 4442 3590 
C 3898 3590 3552 3398 3232 2925 
C 3168 3104 3130 3181 3034 3277 
C 2842 3488 2566 3590 2202 3590 
C 1690 3590 1280 3373 1050 2970 
C 1050 3008 1050 3008 1056 3066 
C 1056 3085 1062 3181 1062 3200 
L 1062 3520 
L 442 3520 
C 474 3290 486 3117 486 2765 
L 486 755 
C 486 435 474 243 442 0 
L 1107 0 
z
" transform="scale(0.015625)"/>
      <path id="HiraginoSans-W4-61" d="M 2765 0 
L 3373 0 
C 3334 269 3322 422 3322 736 
L 3322 2515 
C 3322 2867 3238 3110 3046 3290 
C 2816 3514 2464 3622 1978 3622 
C 1485 3622 1094 3507 813 3270 
C 627 3123 531 2976 416 2656 
L 1011 2541 
C 1069 2714 1114 2797 1197 2886 
C 1370 3066 1626 3155 1971 3155 
C 2515 3155 2765 2950 2765 2515 
L 2765 2182 
C 1933 2163 1581 2118 1197 1997 
C 646 1818 333 1434 333 941 
C 333 320 774 -58 1491 -58 
C 1741 -58 1978 -19 2195 64 
C 2406 141 2522 218 2765 429 
L 2765 0 
z
M 2765 1363 
C 2765 1126 2707 973 2554 813 
C 2304 557 1920 397 1568 397 
C 1165 397 915 608 915 941 
C 915 1235 1075 1440 1395 1568 
C 1677 1683 2035 1728 2765 1747 
L 2765 1363 
z
" transform="scale(0.015625)"/>
      <path id="HiraginoSans-W4-6c" d="M 442 4934 
C 474 4704 486 4518 486 4179 
L 486 755 
C 486 429 474 250 442 0 
L 1120 0 
C 1088 262 1075 448 1075 755 
L 1075 4179 
C 1075 4512 1088 4698 1120 4934 
L 442 4934 
z
" transform="scale(0.015625)"/>
     </defs>
     <use xlink:href="#HiraginoSans-W4-6e"/>
     <use xlink:href="#HiraginoSans-W4-6f" x="63.399994"/>
     <use xlink:href="#HiraginoSans-W4-72" x="127.199982"/>
     <use xlink:href="#HiraginoSans-W4-6d" x="171.899979"/>
     <use xlink:href="#HiraginoSans-W4-61" x="267.299973"/>
     <use xlink:href="#HiraginoSans-W4-6c" x="326.499969"/>
    </g>
   </g>
   <g id="text_8">
    <!-- ○ -->
    <g style="fill: #2e7d32" transform="translate(255.455781 115.959279) scale(0.18 -0.18)">
     <use xlink:href="#HiraginoSans-W7-25cb"/>
    </g>
   </g>
   <g id="text_9">
    <!-- normal -->
    <g style="fill: #2e7d32" transform="translate(248.669219 133.051359) scale(0.09 -0.09)">
     <use xlink:href="#HiraginoSans-W4-6e"/>
     <use xlink:href="#HiraginoSans-W4-6f" x="63.399994"/>
     <use xlink:href="#HiraginoSans-W4-72" x="127.199982"/>
     <use xlink:href="#HiraginoSans-W4-6d" x="171.899979"/>
     <use xlink:href="#HiraginoSans-W4-61" x="267.299973"/>
     <use xlink:href="#HiraginoSans-W4-6c" x="326.499969"/>
    </g>
   </g>
   <g id="text_10">
    <!-- ○ -->
    <g style="fill: #2e7d32" transform="translate(355.895781 115.959279) scale(0.18 -0.18)">
     <use xlink:href="#HiraginoSans-W7-25cb"/>
    </g>
   </g>
   <g id="text_11">
    <!-- normal -->
    <g style="fill: #2e7d32" transform="translate(349.109219 133.051359) scale(0.09 -0.09)">
     <use xlink:href="#HiraginoSans-W4-6e"/>
     <use xlink:href="#HiraginoSans-W4-6f" x="63.399994"/>
     <use xlink:href="#HiraginoSans-W4-72" x="127.199982"/>
     <use xlink:href="#HiraginoSans-W4-6d" x="171.899979"/>
     <use xlink:href="#HiraginoSans-W4-61" x="267.299973"/>
     <use xlink:href="#HiraginoSans-W4-6c" x="326.499969"/>
    </g>
   </g>
   <g id="text_12">
    <!-- ○ -->
    <g style="fill: #2e7d32" transform="translate(456.335781 115.959279) scale(0.18 -0.18)">
     <use xlink:href="#HiraginoSans-W7-25cb"/>
    </g>
   </g>
   <g id="text_13">
    <!-- normal -->
    <g style="fill: #2e7d32" transform="translate(449.549219 133.051359) scale(0.09 -0.09)">
     <use xlink:href="#HiraginoSans-W4-6e"/>
     <use xlink:href="#HiraginoSans-W4-6f" x="63.399994"/>
     <use xlink:href="#HiraginoSans-W4-72" x="127.199982"/>
     <use xlink:href="#HiraginoSans-W4-6d" x="171.899979"/>
     <use xlink:href="#HiraginoSans-W4-61" x="267.299973"/>
     <use xlink:href="#HiraginoSans-W4-6c" x="326.499969"/>
    </g>
   </g>
   <g id="text_14">
    <!-- Float16 -->
    <g transform="translate(38.088906 179.407812) scale(0.12 -0.12)">
     <defs>
      <path id="HiraginoSans-W7-31" d="M 947 4122 
C 1216 4154 1414 4166 1664 4166 
L 1946 4166 
L 1946 762 
C 1946 410 1926 122 1894 -134 
L 3066 -134 
C 3027 160 3014 403 3014 762 
L 3014 4058 
C 3014 4461 3027 4736 3066 5094 
C 2816 5075 2726 5069 2342 5069 
L 1645 5069 
C 1318 5069 1158 5075 947 5107 
L 947 4122 
z
" transform="scale(0.015625)"/>
      <path id="HiraginoSans-W7-36" d="M 4339 3968 
C 4186 4378 4013 4608 3731 4819 
C 3424 5050 2995 5171 2490 5171 
C 1741 5171 1133 4838 755 4218 
C 493 3789 326 3078 326 2381 
C 326 1542 531 851 915 390 
C 1267 -32 1798 -256 2458 -256 
C 3066 -256 3603 -58 3955 294 
C 4262 608 4454 1082 4454 1542 
C 4454 2630 3763 3296 2637 3296 
C 2291 3296 2016 3238 1766 3110 
C 1587 3021 1498 2944 1338 2765 
C 1363 3155 1427 3424 1555 3686 
C 1754 4102 2067 4320 2490 4320 
C 2925 4320 3162 4147 3296 3731 
L 4339 3968 
z
M 3411 1549 
C 3411 1344 3366 1165 3283 1037 
C 3117 774 2803 614 2445 614 
C 1875 614 1453 1005 1453 1542 
C 1453 2074 1862 2451 2451 2451 
C 3066 2451 3411 2125 3411 1549 
z
" transform="scale(0.015625)"/>
     </defs>
     <use xlink:href="#HiraginoSans-W7-46"/>
     <use xlink:href="#HiraginoSans-W7-6c" x="66.499985"/>
     <use xlink:href="#HiraginoSans-W7-6f" x="95.599976"/>
     <use xlink:href="#HiraginoSans-W7-61" x="164.699966"/>
     <use xlink:href="#HiraginoSans-W7-74" x="231.09996"/>
     <use xlink:href="#HiraginoSans-W7-31" x="276.599945"/>
     <use xlink:href="#HiraginoSans-W7-36" x="350.699936"/>
    </g>
   </g>
   <g id="text_15">
    <!-- ○ -->
    <g style="fill: #2e7d32" transform="translate(155.015781 174.171279) scale(0.18 -0.18)">
     <use xlink:href="#HiraginoSans-W7-25cb"/>
    </g>
   </g>
   <g id="text_16">
    <!-- normal -->
    <g style="fill: #2e7d32" transform="translate(148.229219 191.263359) scale(0.09 -0.09)">
     <use xlink:href="#HiraginoSans-W4-6e"/>
     <use xlink:href="#HiraginoSans-W4-6f" x="63.399994"/>
     <use xlink:href="#HiraginoSans-W4-72" x="127.199982"/>
     <use xlink:href="#HiraginoSans-W4-6d" x="171.899979"/>
     <use xlink:href="#HiraginoSans-W4-61" x="267.299973"/>
     <use xlink:href="#HiraginoSans-W4-6c" x="326.499969"/>
    </g>
   </g>
   <g id="text_17">
    <!-- ○ -->
    <g style="fill: #2e7d32" transform="translate(255.455781 174.171279) scale(0.18 -0.18)">
     <use xlink:href="#HiraginoSans-W7-25cb"/>
    </g>
   </g>
   <g id="text_18">
    <!-- normal -->
    <g style="fill: #2e7d32" transform="translate(248.669219 191.263359) scale(0.09 -0.09)">
     <use xlink:href="#HiraginoSans-W4-6e"/>
     <use xlink:href="#HiraginoSans-W4-6f" x="63.399994"/>
     <use xlink:href="#HiraginoSans-W4-72" x="127.199982"/>
     <use xlink:href="#HiraginoSans-W4-6d" x="171.899979"/>
     <use xlink:href="#HiraginoSans-W4-61" x="267.299973"/>
     <use xlink:href="#HiraginoSans-W4-6c" x="326.499969"/>
    </g>
   </g>
   <g id="text_19">
    <!-- × -->
    <g style="fill: #c62828" transform="translate(355.895781 174.171279) scale(0.18 -0.18)">
     <defs>
      <path id="HiraginoSans-W7-d7" d="M 3872 2432 
L 5203 3770 
L 4550 4422 
L 3213 3078 
L 1856 4435 
L 1203 3782 
L 2560 2432 
L 1197 1056 
L 1850 410 
L 3219 1779 
L 4570 429 
L 5222 1082 
L 3872 2432 
z
" transform="scale(0.015625)"/>
     </defs>
     <use xlink:href="#HiraginoSans-W7-d7"/>
    </g>
   </g>
   <g id="text_20">
    <!-- clipped -->
    <g style="fill: #c62828" transform="translate(348.358281 191.263359) scale(0.09 -0.09)">
     <defs>
      <path id="HiraginoSans-W4-63" d="M 3475 2573 
C 3405 2758 3347 2867 3251 3002 
C 2970 3405 2522 3616 1965 3616 
C 947 3616 282 2874 282 1747 
C 282 627 954 -90 1990 -90 
C 2534 -90 2970 102 3258 480 
C 3366 621 3430 742 3520 986 
L 2950 1126 
C 2899 966 2867 890 2816 806 
C 2650 550 2362 410 2010 410 
C 1312 410 870 934 870 1760 
C 870 2598 1299 3130 1984 3130 
C 2438 3130 2739 2899 2912 2413 
L 3475 2573 
z
" transform="scale(0.015625)"/>
      <path id="HiraginoSans-W4-69" d="M 442 4934 
L 442 4294 
L 1152 4294 
L 1152 4934 
L 442 4934 
z
M 454 3520 
C 486 3296 499 3085 499 2765 
L 499 755 
C 499 461 486 282 454 0 
L 1133 0 
C 1101 269 1088 448 1088 755 
L 1088 2758 
C 1088 3104 1101 3290 1133 3520 
L 454 3520 
z
" transform="scale(0.015625)"/>
      <path id="HiraginoSans-W4-70" d="M 1101 -1312 
C 1069 -1075 1056 -877 1056 -550 
L 1056 128 
C 1056 301 1050 397 1037 570 
C 1363 154 1792 -51 2349 -51 
C 3334 -51 3968 659 3968 1773 
C 3968 2906 3354 3590 2336 3590 
C 1766 3590 1344 3379 1037 2944 
C 1050 3078 1050 3117 1050 3194 
L 1050 3520 
L 442 3520 
C 474 3277 486 3078 486 2752 
L 486 -557 
C 486 -845 474 -1056 442 -1312 
L 1101 -1312 
z
M 2272 442 
C 1952 442 1626 570 1421 781 
C 1197 1005 1062 1376 1062 1766 
C 1062 2547 1555 3091 2278 3091 
C 2976 3091 3373 2611 3373 1773 
C 3373 941 2957 442 2272 442 
z
" transform="scale(0.015625)"/>
      <path id="HiraginoSans-W4-65" d="M 3578 1651 
C 3558 1971 3546 2106 3533 2170 
C 3405 3066 2797 3610 1933 3610 
C 934 3610 282 2880 282 1760 
C 282 621 941 -96 1978 -96 
C 2470 -96 2880 64 3187 371 
C 3341 518 3424 646 3546 915 
L 3008 1114 
C 2944 928 2899 845 2803 742 
C 2605 512 2323 390 1984 390 
C 1613 390 1312 531 1114 800 
C 947 1024 883 1235 858 1651 
L 3578 1651 
z
M 877 2118 
C 915 2349 947 2451 1037 2605 
C 1229 2944 1542 3130 1920 3130 
C 2221 3130 2464 3040 2656 2854 
C 2842 2669 2938 2451 2976 2118 
L 877 2118 
z
" transform="scale(0.015625)"/>
      <path id="HiraginoSans-W4-64" d="M 3187 0 
L 3802 0 
C 3770 250 3757 442 3757 774 
L 3757 4173 
C 3757 4467 3770 4666 3802 4934 
L 3142 4934 
C 3174 4691 3187 4486 3187 4173 
L 3187 3398 
C 3187 3296 3187 3194 3194 3149 
C 3200 3040 3200 3040 3206 2970 
C 2918 3379 2470 3597 1901 3597 
C 909 3597 282 2886 282 1766 
C 282 1171 461 672 794 339 
C 1069 70 1446 -64 1914 -64 
C 2483 -64 2880 128 3206 563 
C 3200 480 3187 365 3187 288 
L 3187 0 
z
M 1971 3098 
C 2310 3098 2618 2976 2842 2752 
C 3059 2541 3181 2189 3181 1786 
C 3181 966 2707 429 1978 429 
C 1709 429 1459 512 1274 672 
C 1024 890 883 1280 883 1786 
C 883 2598 1293 3098 1971 3098 
z
" transform="scale(0.015625)"/>
     </defs>
     <use xlink:href="#HiraginoSans-W4-63"/>
     <use xlink:href="#HiraginoSans-W4-6c" x="59.099991"/>
     <use xlink:href="#HiraginoSans-W4-69" x="83.399979"/>
     <use xlink:href="#HiraginoSans-W4-70" x="108.199966"/>
     <use xlink:href="#HiraginoSans-W4-70" x="174.59996"/>
     <use xlink:href="#HiraginoSans-W4-65" x="240.999954"/>
     <use xlink:href="#HiraginoSans-W4-64" x="301.199951"/>
    </g>
   </g>
   <g id="text_21">
    <!-- × -->
    <g style="fill: #c62828" transform="translate(456.335781 174.171279) scale(0.18 -0.18)">
     <use xlink:href="#HiraginoSans-W7-d7"/>
    </g>
   </g>
   <g id="text_22">
    <!-- clipped -->
    <g style="fill: #c62828" transform="translate(448.798281 191.263359) scale(0.09 -0.09)">
     <use xlink:href="#HiraginoSans-W4-63"/>
     <use xlink:href="#HiraginoSans-W4-6c" x="59.099991"/>
     <use xlink:href="#HiraginoSans-W4-69" x="83.399979"/>
     <use xlink:href="#HiraginoSans-W4-70" x="108.199966"/>
     <use xlink:href="#HiraginoSans-W4-70" x="174.59996"/>
     <use xlink:href="#HiraginoSans-W4-65" x="240.999954"/>
     <use xlink:href="#HiraginoSans-W4-64" x="301.199951"/>
    </g>
   </g>
   <g id="text_23">
    <!-- Int8 -->
    <g transform="translate(50.285781 237.619812) scale(0.12 -0.12)">
     <defs>
      <path id="HiraginoSans-W7-49" d="M 429 5069 
C 467 4794 480 4627 480 4186 
L 480 749 
C 480 352 467 115 429 -134 
L 1606 -134 
C 1568 115 1555 339 1555 749 
L 1555 4186 
C 1555 4614 1568 4813 1606 5069 
L 429 5069 
z
" transform="scale(0.015625)"/>
      <path id="HiraginoSans-W7-38" d="M 3360 2598 
C 3968 2790 4269 3194 4269 3827 
C 4269 4166 4128 4474 3878 4704 
C 3526 5024 3027 5184 2362 5184 
C 1197 5184 474 4646 474 3789 
C 474 3437 589 3149 813 2918 
C 979 2758 1126 2675 1402 2598 
C 1126 2541 973 2477 781 2342 
C 422 2093 243 1734 243 1274 
C 243 314 1024 -250 2368 -250 
C 3117 -250 3693 -77 4083 262 
C 4352 499 4499 858 4499 1293 
C 4499 1728 4352 2061 4051 2310 
C 3866 2470 3699 2534 3360 2598 
z
M 2374 4358 
C 2880 4358 3200 4102 3200 3706 
C 3200 3283 2893 3034 2374 3034 
C 1856 3034 1536 3290 1536 3706 
C 1536 4102 1862 4358 2374 4358 
z
M 2374 2131 
C 3008 2131 3386 1843 3386 1363 
C 3386 877 3014 602 2362 602 
C 1728 602 1350 883 1350 1357 
C 1350 1837 1741 2131 2374 2131 
z
" transform="scale(0.015625)"/>
     </defs>
     <use xlink:href="#HiraginoSans-W7-49"/>
     <use xlink:href="#HiraginoSans-W7-6e" x="31.699997"/>
     <use xlink:href="#HiraginoSans-W7-74" x="101.899979"/>
     <use xlink:href="#HiraginoSans-W7-38" x="147.399963"/>
    </g>
   </g>
   <g id="text_24">
    <!-- ○ -->
    <g style="fill: #2e7d32" transform="translate(155.015781 232.383279) scale(0.18 -0.18)">
     <use xlink:href="#HiraginoSans-W7-25cb"/>
    </g>
   </g>
   <g id="text_25">
    <!-- normal -->
    <g style="fill: #2e7d32" transform="translate(148.229219 249.475359) scale(0.09 -0.09)">
     <use xlink:href="#HiraginoSans-W4-6e"/>
     <use xlink:href="#HiraginoSans-W4-6f" x="63.399994"/>
     <use xlink:href="#HiraginoSans-W4-72" x="127.199982"/>
     <use xlink:href="#HiraginoSans-W4-6d" x="171.899979"/>
     <use xlink:href="#HiraginoSans-W4-61" x="267.299973"/>
     <use xlink:href="#HiraginoSans-W4-6c" x="326.499969"/>
    </g>
   </g>
   <g id="text_26">
    <!-- ○ -->
    <g style="fill: #2e7d32" transform="translate(255.455781 232.383279) scale(0.18 -0.18)">
     <use xlink:href="#HiraginoSans-W7-25cb"/>
    </g>
   </g>
   <g id="text_27">
    <!-- normal -->
    <g style="fill: #2e7d32" transform="translate(248.669219 249.475359) scale(0.09 -0.09)">
     <use xlink:href="#HiraginoSans-W4-6e"/>
     <use xlink:href="#HiraginoSans-W4-6f" x="63.399994"/>
     <use xlink:href="#HiraginoSans-W4-72" x="127.199982"/>
     <use xlink:href="#HiraginoSans-W4-6d" x="171.899979"/>
     <use xlink:href="#HiraginoSans-W4-61" x="267.299973"/>
     <use xlink:href="#HiraginoSans-W4-6c" x="326.499969"/>
    </g>
   </g>
   <g id="text_28">
    <!-- × -->
    <g style="fill: #c62828" transform="translate(355.895781 232.383279) scale(0.18 -0.18)">
     <use xlink:href="#HiraginoSans-W7-d7"/>
    </g>
   </g>
   <g id="text_29">
    <!-- clipped -->
    <g style="fill: #c62828" transform="translate(348.358281 249.475359) scale(0.09 -0.09)">
     <use xlink:href="#HiraginoSans-W4-63"/>
     <use xlink:href="#HiraginoSans-W4-6c" x="59.099991"/>
     <use xlink:href="#HiraginoSans-W4-69" x="83.399979"/>
     <use xlink:href="#HiraginoSans-W4-70" x="108.199966"/>
     <use xlink:href="#HiraginoSans-W4-70" x="174.59996"/>
     <use xlink:href="#HiraginoSans-W4-65" x="240.999954"/>
     <use xlink:href="#HiraginoSans-W4-64" x="301.199951"/>
    </g>
   </g>
   <g id="text_30">
    <!-- × -->
    <g style="fill: #c62828" transform="translate(456.335781 232.383279) scale(0.18 -0.18)">
     <use xlink:href="#HiraginoSans-W7-d7"/>
    </g>
   </g>
   <g id="text_31">
    <!-- clipped -->
    <g style="fill: #c62828" transform="translate(448.798281 249.475359) scale(0.09 -0.09)">
     <use xlink:href="#HiraginoSans-W4-63"/>
     <use xlink:href="#HiraginoSans-W4-6c" x="59.099991"/>
     <use xlink:href="#HiraginoSans-W4-69" x="83.399979"/>
     <use xlink:href="#HiraginoSans-W4-70" x="108.199966"/>
     <use xlink:href="#HiraginoSans-W4-70" x="174.59996"/>
     <use xlink:href="#HiraginoSans-W4-65" x="240.999954"/>
     <use xlink:href="#HiraginoSans-W4-64" x="301.199951"/>
    </g>
   </g>
   <g id="text_32">
    <!-- ②壊れない軸 ── 安定性マトリクス（HiFi-GAN が ANE 実行の4セルで clipping） -->
    <g transform="translate(7.2 18.38) scale(0.13 -0.13)">
     <defs>
      <path id="HiraginoSans-W7-2461" d="M 4051 301 
C 4333 301 4582 288 4890 262 
L 4890 1165 
C 4659 1133 4454 1126 4102 1126 
L 2810 1126 
C 2931 1459 3200 1715 3853 2125 
C 3981 2208 4166 2330 4320 2451 
C 4653 2694 4832 3046 4832 3456 
C 4832 4224 4205 4704 3213 4704 
C 2630 4704 2170 4525 1882 4186 
C 1677 3949 1587 3731 1498 3277 
L 2477 3181 
C 2509 3418 2547 3520 2624 3629 
C 2746 3814 2944 3904 3213 3904 
C 3603 3904 3840 3725 3840 3424 
C 3840 3277 3789 3162 3661 3040 
C 3578 2963 3450 2867 3168 2669 
C 2637 2310 2515 2208 2266 1952 
C 1888 1562 1734 1280 1562 704 
C 1523 570 1510 499 1485 275 
C 1728 301 1818 301 2246 301 
L 4051 301 
z
M 6266 2438 
C 6266 4128 4890 5504 3200 5504 
C 1504 5504 128 4128 128 2438 
C 128 742 1504 -634 3200 -634 
C 4896 -634 6266 742 6266 2438 
z
M 6016 2438 
C 6016 883 4749 -384 3200 -384 
C 1638 -384 378 883 378 2438 
C 378 3994 1638 5254 3200 5254 
C 4755 5254 6016 3994 6016 2438 
z
" transform="scale(0.015625)"/>
      <path id="HiraginoSans-W7-58ca" d="M 2906 1517 
C 2445 1126 2054 928 1331 717 
C 1549 467 1632 333 1766 51 
C 2451 384 2624 480 2957 749 
L 2957 218 
C 2618 166 2451 154 2253 154 
L 2368 -595 
C 2438 -582 2470 -576 2541 -563 
C 3379 -435 3776 -358 4467 -173 
L 4467 461 
C 4864 -6 5274 -307 5875 -576 
C 6022 -211 6112 -45 6278 211 
C 5926 320 5734 410 5453 595 
C 5645 749 5677 768 6080 1139 
L 5594 1517 
C 5818 1510 5990 1498 6157 1478 
L 6157 2221 
C 5965 2195 5779 2189 5421 2189 
L 4346 2189 
L 4346 2483 
L 5453 2483 
C 5638 2483 5805 2477 5946 2464 
C 5926 2605 5920 2733 5920 2963 
L 5920 3610 
C 5920 3802 5926 3936 5946 4077 
C 5786 4058 5632 4051 5370 4051 
L 4352 4051 
L 4352 4333 
L 5434 4333 
C 5754 4333 5933 4326 6131 4301 
L 6131 5030 
C 5933 5011 5715 4998 5427 4998 
L 4352 4998 
L 4352 5062 
C 4352 5197 4365 5299 4384 5395 
L 3539 5395 
C 3565 5306 3578 5184 3578 5062 
L 3578 4998 
L 2611 4998 
C 2298 4998 2054 5011 1901 5030 
L 1901 4301 
C 2093 4326 2272 4333 2598 4333 
L 3578 4333 
L 3578 4051 
L 2605 4051 
C 2419 4051 2227 4058 2099 4070 
C 2112 3923 2118 3834 2118 3642 
L 2118 2918 
C 2118 2701 2118 2611 2106 2464 
C 2278 2477 2400 2483 2579 2483 
L 3558 2483 
L 3558 2189 
L 2522 2189 
C 2253 2189 2010 2202 1869 2221 
L 1869 1907 
C 1773 1856 1677 1811 1536 1741 
L 1536 3091 
C 1773 3091 1843 3091 1946 3072 
L 1946 3859 
C 1837 3840 1760 3840 1536 3840 
L 1536 4614 
C 1536 4954 1549 5139 1574 5338 
L 723 5338 
C 749 5139 762 4934 762 4621 
L 762 3840 
L 723 3840 
C 531 3840 371 3846 230 3866 
L 230 3066 
C 397 3085 525 3091 717 3091 
L 762 3091 
L 762 1414 
C 461 1299 320 1254 179 1222 
L 339 339 
C 461 410 595 474 787 563 
C 1389 838 1594 941 1997 1171 
L 1997 1498 
C 2144 1510 2330 1517 2496 1517 
L 2906 1517 
z
M 3866 1517 
C 4019 1114 4166 838 4422 518 
C 3968 397 3968 397 3674 339 
L 3674 1408 
C 3699 1440 3731 1472 3770 1517 
L 3866 1517 
z
M 5453 1517 
C 5344 1370 5158 1197 4934 1043 
C 4800 1203 4742 1299 4634 1517 
L 5453 1517 
z
M 2816 3475 
L 3187 3475 
L 3187 3059 
L 2816 3059 
L 2816 3475 
z
M 3834 3475 
L 4198 3475 
L 4198 3059 
L 3834 3059 
L 3834 3475 
z
M 4832 3475 
L 5216 3475 
L 5216 3059 
L 4832 3059 
L 4832 3475 
z
" transform="scale(0.015625)"/>
      <path id="HiraginoSans-W7-308c" d="M 634 525 
C 685 602 704 627 781 717 
C 864 819 934 896 979 954 
C 1152 1152 1152 1152 1216 1229 
C 1293 1331 1293 1331 1331 1370 
C 1325 1024 1325 1005 1325 608 
C 1325 58 1312 -160 1280 -390 
L 2259 -390 
C 2227 -102 2214 486 2214 1370 
C 2214 1536 2214 1773 2227 2086 
C 2490 2400 2912 2778 3360 3104 
C 3629 3302 3885 3411 4064 3411 
C 4211 3411 4288 3334 4288 3200 
C 4288 3072 4250 2842 4166 2464 
C 3936 1446 3891 1165 3891 813 
C 3891 429 4000 173 4243 -13 
C 4397 -128 4614 -192 4845 -192 
C 5210 -192 5523 -45 5824 269 
C 6003 454 6074 557 6298 909 
C 6048 1267 5965 1421 5818 1805 
C 5734 1594 5587 1318 5440 1094 
C 5306 909 5152 787 5030 787 
C 4896 787 4819 883 4819 1043 
C 4819 1222 4877 1530 5088 2451 
C 5216 3002 5254 3226 5254 3443 
C 5254 3981 4870 4346 4307 4346 
C 3910 4346 3520 4186 2976 3795 
C 2733 3622 2413 3354 2221 3162 
C 2227 3283 2227 3290 2227 3322 
C 2227 3405 2227 3405 2227 3462 
C 2374 3667 2528 3840 2643 3923 
L 2278 4256 
C 2291 4621 2330 5069 2355 5235 
L 1389 5254 
C 1408 5107 1414 5037 1414 4870 
C 1414 4736 1408 4499 1395 4154 
C 1178 4141 787 4122 659 4122 
C 557 4122 486 4122 358 4134 
L 403 3277 
C 582 3302 838 3328 1370 3360 
C 1363 3232 1363 3187 1363 3110 
C 1357 2950 1357 2950 1350 2784 
C 1350 2707 1350 2624 1344 2522 
C 1261 2432 1261 2432 634 1805 
C 467 1638 358 1542 205 1427 
L 634 525 
z
" transform="scale(0.015625)"/>
      <path id="HiraginoSans-W7-306a" d="M 1862 5325 
C 1856 5050 1805 4736 1690 4256 
C 1568 4250 1446 4243 1408 4243 
C 1024 4243 742 4262 512 4307 
L 512 3437 
C 704 3437 730 3437 755 3437 
C 973 3424 973 3424 1043 3424 
C 1056 3424 1088 3424 1120 3424 
C 1274 3430 1274 3430 1466 3430 
C 1158 2458 723 1562 262 954 
L 1139 467 
C 1178 550 1178 550 1261 710 
C 1504 1171 1562 1286 1709 1600 
C 2003 2234 2157 2650 2406 3456 
C 2918 3501 3181 3526 3405 3558 
C 3507 3578 3533 3578 3603 3584 
L 3584 4467 
C 3354 4390 3034 4339 2618 4301 
C 2630 4365 2630 4365 2656 4461 
C 2701 4685 2733 4826 2746 4883 
C 2810 5165 2810 5165 2835 5229 
L 1862 5325 
z
M 6125 3712 
C 5542 4058 5030 4294 4262 4570 
L 3808 3827 
C 4550 3571 5133 3296 5715 2918 
L 6125 3712 
z
M 6086 806 
C 6035 845 6035 845 5978 890 
C 5869 979 5811 1024 5728 1082 
C 5414 1318 5165 1459 4762 1638 
C 4717 1990 4704 2214 4704 2502 
C 4704 2765 4717 2880 4787 3136 
L 3898 3181 
C 3859 2944 3846 2758 3846 2470 
C 3846 2285 3853 2106 3878 1850 
C 3706 1875 3597 1888 3411 1888 
C 3117 1888 2918 1862 2726 1792 
C 2221 1613 1914 1203 1914 717 
C 1914 32 2490 -422 3366 -422 
C 3891 -422 4326 -262 4550 13 
C 4704 205 4762 397 4768 698 
C 5120 486 5478 192 5677 -51 
L 6086 806 
z
M 3898 1037 
C 3904 1037 3910 915 3910 858 
C 3910 544 3725 384 3341 384 
C 3002 384 2803 525 2803 755 
C 2803 979 3040 1133 3392 1133 
C 3571 1133 3699 1107 3898 1037 
z
" transform="scale(0.015625)"/>
      <path id="HiraginoSans-W7-3044" d="M 595 4781 
C 614 4634 614 4582 621 4352 
C 659 2413 749 1600 1011 947 
C 1280 282 1658 -58 2125 -58 
C 2714 -58 3130 512 3469 1766 
C 3104 2022 2976 2144 2714 2458 
C 2637 2054 2528 1670 2374 1318 
C 2304 1146 2227 1056 2144 1056 
C 1818 1056 1581 2189 1581 3718 
C 1581 4160 1600 4525 1638 4774 
L 595 4781 
z
M 3808 4134 
C 4205 3642 4512 3098 4730 2496 
C 4954 1888 5094 1197 5120 582 
L 6086 941 
C 5914 2394 5446 3533 4627 4518 
L 3808 4134 
z
" transform="scale(0.015625)"/>
      <path id="HiraginoSans-W7-8ef8" d="M 2061 320 
L 2426 320 
C 2669 320 2822 314 3002 288 
L 3002 1056 
C 2816 1024 2669 1018 2419 1018 
L 2061 1018 
L 2061 1325 
L 2342 1325 
C 2669 1325 2765 1325 2925 1312 
C 2912 1485 2906 1677 2906 2003 
L 2906 3213 
C 2906 3507 2912 3718 2925 3866 
C 2790 3853 2682 3846 2362 3846 
L 2061 3846 
L 2061 4147 
L 2445 4147 
C 2771 4147 2874 4141 3053 4122 
L 3053 4877 
C 2854 4851 2765 4845 2445 4845 
L 2061 4845 
L 2061 4877 
C 2061 5133 2067 5261 2099 5414 
L 1286 5414 
C 1312 5254 1325 5107 1325 4877 
L 1325 4845 
L 890 4845 
C 570 4845 474 4851 282 4877 
L 282 4122 
C 486 4141 602 4147 890 4147 
L 1325 4147 
L 1325 3846 
L 1069 3846 
C 723 3846 602 3853 422 3866 
C 442 3674 448 3475 448 3155 
L 448 2048 
C 448 1709 442 1498 422 1306 
C 698 1325 755 1325 1069 1325 
L 1325 1325 
L 1325 1018 
L 845 1018 
C 531 1018 422 1024 237 1050 
L 237 288 
C 422 314 538 320 845 320 
L 1325 320 
L 1325 77 
C 1325 -186 1312 -384 1286 -557 
L 2093 -557 
C 2074 -384 2061 -205 2061 38 
L 2061 320 
z
M 2016 1952 
L 2016 2298 
L 2317 2298 
L 2317 1952 
L 2016 1952 
z
M 2016 2886 
L 2016 3219 
L 2317 3219 
L 2317 2886 
L 2016 2886 
z
M 1376 3219 
L 1376 2886 
L 1062 2886 
L 1062 3219 
L 1376 3219 
z
M 1376 2298 
L 1376 1952 
L 1062 1952 
L 1062 2298 
L 1376 2298 
z
M 4947 4237 
L 4947 4749 
C 4947 5037 4960 5210 4986 5414 
L 4147 5414 
C 4173 5222 4186 5043 4186 4781 
L 4186 4237 
L 3712 4237 
C 3437 4237 3264 4243 3110 4262 
C 3130 4090 3136 3930 3136 3603 
L 3136 218 
C 3136 -90 3123 -307 3104 -550 
L 3853 -550 
L 3853 -275 
L 5299 -275 
L 5299 -557 
L 6074 -557 
C 6048 -282 6035 -13 6035 282 
L 6035 3565 
C 6035 3891 6042 4045 6061 4269 
C 5875 4250 5670 4237 5434 4237 
L 4947 4237 
z
M 4922 467 
L 4922 1670 
L 5331 1670 
L 5331 467 
L 4922 467 
z
M 4922 2394 
L 4922 3482 
L 5331 3482 
L 5331 2394 
L 4922 2394 
z
M 4211 3482 
L 4211 2394 
L 3814 2394 
L 3814 3482 
L 4211 3482 
z
M 4211 1670 
L 4211 467 
L 3814 467 
L 3814 1670 
L 4211 1670 
z
" transform="scale(0.015625)"/>
      <path id="HiraginoSans-W7-20" transform="scale(0.015625)"/>
      <path id="HiraginoSans-W7-2500" d="M 0 2560 
L 0 2304 
L 6400 2304 
L 6400 2560 
L 0 2560 
z
" transform="scale(0.015625)"/>
      <path id="HiraginoSans-W7-5b89" d="M 5382 2374 
C 5702 2374 5901 2368 6106 2342 
L 6106 3174 
C 5933 3149 5786 3142 5382 3142 
L 3040 3142 
C 3155 3379 3155 3386 3174 3424 
C 3341 3750 3341 3750 3392 3859 
L 2483 3987 
C 2426 3776 2317 3526 2118 3142 
L 1037 3142 
C 640 3142 499 3149 307 3174 
L 307 2342 
C 493 2362 710 2374 1037 2374 
L 1677 2374 
C 1453 2016 1312 1818 941 1357 
C 1824 1114 2125 1024 2618 832 
C 1933 493 1338 339 307 237 
C 506 -58 595 -230 704 -570 
C 1408 -442 1830 -326 2387 -122 
C 2842 45 3136 198 3514 461 
C 4218 147 4704 -115 5395 -563 
L 6022 134 
C 5267 544 4851 742 4160 1037 
C 4525 1453 4704 1760 4928 2374 
L 5382 2374 
z
M 4038 2374 
C 3859 1926 3680 1658 3360 1344 
C 2874 1523 2739 1568 2208 1715 
C 2406 2003 2464 2093 2630 2374 
L 4038 2374 
z
M 2714 4851 
L 1126 4851 
C 781 4851 595 4858 378 4877 
C 390 4717 403 4544 403 4384 
L 403 3859 
C 403 3654 397 3514 371 3379 
L 1203 3379 
L 1203 4090 
L 5190 4090 
L 5190 3379 
L 6022 3379 
C 6003 3526 5990 3680 5990 3859 
L 5990 4384 
C 5990 4550 5997 4717 6016 4877 
C 5798 4858 5606 4851 5261 4851 
L 3578 4851 
L 3578 4941 
C 3578 5126 3584 5280 3603 5402 
L 2688 5402 
C 2707 5254 2714 5126 2714 4934 
L 2714 4851 
z
" transform="scale(0.015625)"/>
      <path id="HiraginoSans-W7-5b9a" d="M 2893 608 
C 2490 787 2266 986 2016 1402 
C 2112 1715 2195 2010 2272 2330 
L 1434 2483 
C 1395 2086 1210 1498 998 1101 
C 781 698 563 403 218 70 
C 512 -141 666 -294 870 -563 
C 1235 -173 1453 147 1696 627 
C 1971 256 2291 13 2714 -160 
C 3149 -333 3795 -416 4698 -416 
C 5043 -416 5427 -410 5978 -397 
C 6016 -51 6061 134 6176 461 
C 5472 403 5062 384 4640 384 
C 4256 384 3987 397 3693 429 
L 3693 1376 
L 4870 1376 
C 5171 1376 5325 1370 5517 1344 
L 5517 2144 
C 5338 2118 5190 2112 4870 2112 
L 3693 2112 
L 3693 2816 
L 4646 2816 
C 4954 2816 5126 2810 5312 2784 
L 5312 3264 
L 6029 3264 
C 6003 3443 5997 3603 5997 3795 
L 5997 4346 
C 5997 4531 6003 4666 6022 4832 
C 5773 4813 5542 4806 5286 4806 
L 3603 4806 
L 3603 4998 
C 3603 5165 3610 5261 3635 5402 
L 2714 5402 
C 2739 5261 2746 5158 2746 4992 
L 2746 4806 
L 1126 4806 
C 870 4806 640 4813 390 4832 
C 410 4672 416 4512 416 4346 
L 416 3802 
C 416 3565 410 3424 384 3264 
L 1114 3264 
L 1114 2784 
C 1293 2810 1485 2816 1779 2816 
L 2893 2816 
L 2893 608 
z
M 5203 3571 
C 5043 3558 4883 3552 4646 3552 
L 1779 3552 
C 1536 3552 1376 3558 1222 3571 
L 1222 4051 
L 5203 4051 
L 5203 3571 
z
" transform="scale(0.015625)"/>
      <path id="HiraginoSans-W7-6027" d="M 1773 4019 
C 1888 3750 1971 3488 2054 3085 
L 2310 3213 
C 2234 3040 2189 2957 2080 2784 
C 2464 2592 2464 2592 2803 2368 
C 2701 2374 2643 2381 2528 2394 
L 2528 1581 
C 2694 1600 2989 1613 3258 1613 
L 3789 1613 
L 3789 422 
L 2816 422 
C 2502 422 2214 435 2042 461 
L 2042 -390 
C 2259 -365 2509 -352 2816 -352 
L 5363 -352 
C 5677 -352 5920 -365 6138 -390 
L 6138 461 
C 5958 435 5690 422 5363 422 
L 4614 422 
L 4614 1613 
L 5152 1613 
C 5478 1613 5709 1600 5875 1581 
L 5875 2394 
C 5702 2368 5510 2362 5158 2362 
L 4614 2362 
L 4614 3373 
L 5274 3373 
C 5530 3373 5773 3360 5990 3334 
L 5990 4179 
C 5830 4154 5613 4141 5274 4141 
L 4614 4141 
L 4614 4717 
C 4614 5024 4627 5190 4653 5408 
L 3750 5408 
C 3776 5178 3789 5011 3789 4717 
L 3789 4141 
L 3354 4141 
C 3386 4339 3411 4506 3424 4602 
C 3443 4749 3456 4800 3475 4877 
L 2669 5024 
C 2669 4998 2669 4973 2669 4960 
C 2669 4627 2566 3994 2451 3610 
C 2355 3898 2278 4090 2170 4314 
L 1773 4122 
L 1773 4730 
C 1773 5043 1779 5197 1811 5427 
L 928 5427 
C 954 5210 966 5030 966 4730 
L 966 282 
C 966 -38 954 -314 928 -557 
L 1811 -557 
C 1779 -326 1773 -128 1773 224 
L 1773 4019 
z
M 3789 3373 
L 3789 2362 
L 3136 2362 
C 3008 2362 2931 2362 2810 2368 
C 3002 2746 3078 2938 3187 3373 
L 3789 3373 
z
M 666 2298 
C 787 2816 845 3328 858 4102 
L 333 4173 
C 333 4115 333 4070 333 4045 
C 333 3533 269 3034 134 2502 
L 666 2298 
z
" transform="scale(0.015625)"/>
      <path id="HiraginoSans-W7-30de" d="M 4614 3821 
C 4608 3808 4608 3808 4570 3744 
C 4442 3526 4320 3347 4134 3117 
C 3827 2739 3488 2394 3072 2029 
C 2771 2362 2413 2694 1920 3098 
L 1178 2566 
C 1638 2189 1952 1882 2458 1312 
C 2989 710 3322 275 3693 -326 
L 4506 314 
C 4154 781 3994 986 3699 1331 
C 4512 2016 5133 2752 5747 3770 
C 5894 4013 5933 4064 6029 4166 
L 5504 4755 
C 5357 4710 5254 4698 5018 4698 
L 1536 4698 
C 1037 4698 813 4704 544 4742 
L 544 3782 
C 826 3808 1011 3814 1517 3814 
L 4614 3821 
z
" transform="scale(0.015625)"/>
      <path id="HiraginoSans-W7-30c8" d="M 2675 -339 
C 2650 -96 2637 141 2637 550 
L 2637 2394 
C 2733 2342 2758 2330 2880 2278 
C 3616 1958 4454 1504 5024 1114 
L 5549 2035 
C 4506 2643 3629 3040 2637 3379 
L 2637 4352 
C 2637 4819 2643 4966 2675 5210 
L 1632 5210 
C 1664 4986 1670 4806 1670 4352 
L 1670 563 
C 1670 128 1664 -96 1632 -339 
L 2675 -339 
z
" transform="scale(0.015625)"/>
      <path id="HiraginoSans-W7-30ea" d="M 1203 5094 
C 1229 4864 1235 4717 1235 4224 
L 1235 2982 
C 1235 2560 1222 2323 1197 2086 
L 2246 2086 
C 2227 2259 2214 2573 2214 2970 
L 2214 4224 
C 2214 4646 2227 4883 2253 5094 
L 1203 5094 
z
M 4128 5088 
C 4160 4826 4166 4710 4166 4224 
L 4166 3616 
C 4166 2989 4141 2458 4096 2202 
C 3994 1606 3706 1235 3117 922 
C 2765 736 2432 627 1869 512 
C 2182 147 2266 6 2419 -403 
C 3008 -237 3347 -102 3706 102 
C 4416 506 4845 1024 5024 1715 
C 5126 2106 5152 2496 5152 3558 
L 5152 4237 
C 5152 4723 5158 4858 5184 5088 
L 4128 5088 
z
" transform="scale(0.015625)"/>
      <path id="HiraginoSans-W7-30af" d="M 2419 5357 
C 2387 5133 2298 4890 2112 4544 
C 1690 3738 1184 3162 435 2643 
C 813 2413 928 2317 1197 1990 
C 1786 2451 2285 3002 2675 3622 
L 4493 3642 
C 3968 2029 2970 1024 1242 352 
C 1581 45 1690 -83 1901 -474 
C 2918 -6 3648 512 4224 1171 
C 4781 1805 5229 2669 5536 3667 
C 5613 3923 5638 3981 5702 4083 
L 5235 4544 
C 5114 4499 4986 4480 4774 4474 
L 3110 4454 
C 3181 4595 3206 4653 3264 4781 
C 3354 4986 3418 5114 3450 5158 
L 2419 5357 
z
" transform="scale(0.015625)"/>
      <path id="HiraginoSans-W7-30b9" d="M 6042 493 
C 4947 1536 4787 1677 3962 2266 
C 4333 2771 4621 3290 4928 4006 
C 5005 4192 5056 4275 5139 4365 
L 4646 4877 
C 4493 4806 4461 4800 4109 4800 
L 1926 4762 
C 1882 4762 1830 4762 1805 4762 
C 1408 4762 1229 4768 1024 4800 
L 1037 3827 
C 1280 3866 1402 3872 1933 3885 
L 3802 3917 
C 3654 3590 3546 3360 3462 3219 
C 3053 2502 2490 1882 1786 1370 
C 1306 1018 928 813 365 589 
C 678 262 768 141 979 -262 
C 1952 211 2797 845 3366 1523 
C 4083 966 4723 339 5267 -339 
L 6042 493 
z
" transform="scale(0.015625)"/>
      <path id="HiraginoSans-W7-ff08" d="M 6240 -589 
C 5830 -26 5658 256 5491 666 
C 5274 1197 5152 1837 5152 2432 
C 5152 3027 5274 3667 5491 4198 
C 5658 4608 5830 4890 6240 5453 
L 5197 5453 
C 4845 4902 4691 4621 4538 4211 
C 4320 3648 4205 3034 4205 2432 
C 4205 1830 4320 1216 4538 653 
C 4691 243 4845 -38 5197 -589 
L 6240 -589 
z
" transform="scale(0.015625)"/>
      <path id="HiraginoSans-W7-48" d="M 3853 5069 
C 3891 4832 3904 4589 3904 4186 
L 3904 3040 
L 1530 3040 
L 1530 4192 
C 1530 4557 1542 4794 1581 5069 
L 429 5069 
C 467 4806 480 4595 480 4186 
L 480 749 
C 480 333 467 122 429 -134 
L 1581 -134 
C 1542 147 1530 358 1530 749 
L 1530 2099 
L 3904 2099 
L 3904 749 
C 3904 339 3891 128 3853 -134 
L 5011 -134 
C 4973 154 4960 358 4960 749 
L 4960 4192 
C 4960 4589 4973 4864 5011 5069 
L 3853 5069 
z
" transform="scale(0.015625)"/>
      <path id="HiraginoSans-W7-69" d="M 384 5069 
L 384 4186 
L 1498 4186 
L 1498 5069 
L 384 5069 
z
M 371 3654 
C 410 3392 422 3149 422 2758 
L 422 762 
C 422 384 410 186 371 -134 
L 1504 -134 
C 1466 134 1453 390 1453 768 
L 1453 2752 
C 1453 3174 1466 3411 1504 3654 
L 371 3654 
z
" transform="scale(0.015625)"/>
      <path id="HiraginoSans-W7-2d" d="M 237 1338 
C 448 1363 602 1376 851 1376 
L 1971 1376 
C 2221 1376 2374 1363 2586 1338 
L 2586 2355 
C 2400 2330 2227 2317 1971 2317 
L 851 2317 
C 595 2317 422 2330 237 2355 
L 237 1338 
z
" transform="scale(0.015625)"/>
      <path id="HiraginoSans-W7-304c" d="M 4038 4768 
C 4250 4544 4461 4230 4634 3904 
L 5190 4186 
C 5005 4538 4858 4749 4602 5030 
L 4038 4768 
z
M 4826 5107 
C 5050 4851 5222 4602 5408 4269 
L 5958 4557 
C 5792 4864 5600 5126 5370 5370 
L 4826 5107 
z
M 4442 3616 
C 4614 3373 4704 3206 4890 2797 
C 5126 2278 5254 1882 5363 1350 
L 6246 1779 
C 6016 2643 5728 3277 5229 3987 
L 4442 3616 
z
M 410 2829 
C 595 2880 1030 2957 1485 3021 
C 1216 1952 672 666 237 96 
L 1126 -384 
C 1165 -301 1171 -288 1229 -166 
C 1824 1075 2176 2048 2400 3091 
C 2541 3104 2611 3110 2720 3110 
C 2950 3110 3053 3085 3136 3002 
C 3251 2899 3296 2733 3296 2426 
C 3296 1939 3219 1274 3123 966 
C 3046 710 2950 608 2790 608 
C 2579 608 2208 710 1882 851 
C 1946 550 1965 390 1965 166 
C 1965 70 1965 19 1952 -122 
C 2387 -250 2656 -301 2931 -301 
C 3283 -301 3488 -224 3680 -13 
C 4006 339 4198 1229 4198 2374 
C 4198 2976 4115 3290 3898 3552 
C 3686 3802 3354 3923 2899 3923 
C 2803 3923 2714 3917 2560 3910 
C 2579 3987 2579 3994 2605 4128 
C 2694 4653 2746 4928 2752 4954 
C 2765 5024 2778 5075 2797 5139 
L 1805 5235 
C 1811 5190 1811 5158 1811 5139 
C 1811 4896 1766 4518 1651 3846 
C 1325 3795 557 3725 365 3725 
C 352 3725 339 3725 326 3725 
L 410 2829 
z
" transform="scale(0.015625)"/>
      <path id="HiraginoSans-W7-5b9f" d="M 2746 3187 
C 2746 3027 2746 3027 2739 2874 
L 1581 2874 
C 1248 2874 1139 2880 992 2899 
L 992 2182 
C 1146 2202 1254 2208 1581 2208 
L 2694 2208 
C 2675 2042 2669 2022 2643 1894 
L 1018 1894 
C 678 1894 518 1901 339 1926 
L 339 1158 
C 582 1184 806 1197 1069 1197 
L 2374 1197 
C 2202 934 1946 723 1613 563 
C 1235 371 883 282 230 211 
C 454 -109 512 -237 621 -582 
C 1325 -454 1747 -307 2202 -32 
C 2611 218 2874 486 3123 896 
C 3430 486 3789 179 4256 -64 
C 4723 -301 5075 -422 5818 -582 
C 5920 -269 6029 -32 6202 237 
C 5318 378 4845 512 4435 730 
C 4166 870 4038 979 3846 1197 
L 5344 1197 
C 5632 1197 5824 1184 6080 1158 
L 6080 1926 
C 5894 1901 5734 1894 5382 1894 
L 3475 1894 
C 3501 2035 3507 2086 3520 2208 
L 4794 2208 
C 5114 2208 5216 2202 5376 2182 
L 5376 2899 
C 5229 2880 5126 2874 4794 2874 
L 3558 2874 
C 3558 2989 3558 2989 3565 3187 
L 4832 3187 
C 5139 3187 5254 3181 5427 3162 
L 5427 3424 
L 6029 3424 
C 6010 3578 6003 3731 6003 3910 
L 6003 4448 
C 6003 4621 6010 4762 6029 4934 
C 5805 4915 5632 4909 5293 4909 
L 3584 4909 
L 3584 5011 
C 3584 5178 3597 5293 3616 5414 
L 2694 5414 
C 2720 5280 2726 5171 2726 5005 
L 2726 4909 
L 1114 4909 
C 774 4909 595 4915 378 4934 
C 397 4755 403 4595 403 4435 
L 403 3910 
C 403 3699 397 3571 371 3424 
L 973 3424 
L 973 3162 
C 1107 3181 1261 3187 1574 3187 
L 2746 3187 
z
M 5210 4192 
L 5210 3866 
C 5075 3859 5011 3859 4832 3859 
L 3571 3859 
C 3571 4109 3571 4109 3578 4192 
L 5210 4192 
z
M 2752 4192 
C 2752 4109 2752 4109 2752 3859 
L 1574 3859 
C 1395 3859 1299 3859 1203 3866 
L 1203 4192 
L 2752 4192 
z
" transform="scale(0.015625)"/>
      <path id="HiraginoSans-W7-884c" d="M 4301 2714 
L 4301 467 
C 4301 333 4275 320 4026 320 
C 3866 320 3494 346 3168 384 
C 3296 58 3347 -128 3386 -467 
C 3654 -474 3782 -474 3968 -474 
C 4525 -474 4717 -448 4890 -346 
C 5075 -237 5146 -64 5146 288 
L 5146 2714 
L 5376 2714 
C 5651 2714 5946 2701 6163 2675 
L 6163 3520 
C 5990 3494 5722 3482 5350 3482 
L 3213 3482 
C 2931 3482 2624 3494 2432 3514 
L 1747 3994 
C 1478 3443 832 2778 179 2362 
C 339 2106 416 1920 538 1523 
C 736 1664 902 1818 1056 1997 
C 1050 1587 1050 1523 1050 1254 
L 1050 288 
C 1050 -51 1037 -339 1011 -544 
L 1914 -544 
C 1888 -326 1875 -64 1875 275 
L 1875 2778 
C 1984 2893 2054 2982 2227 3226 
C 2304 3334 2330 3373 2387 3443 
L 2387 2675 
C 2611 2701 2918 2714 3206 2714 
L 4301 2714 
z
M 1658 5472 
C 1581 5325 1510 5229 1370 5075 
C 1050 4730 710 4480 192 4205 
C 371 4006 493 3802 646 3469 
C 1197 3802 1549 4083 1984 4538 
C 2016 4570 2144 4710 2374 4954 
L 1658 5472 
z
M 2637 4307 
C 2861 4333 3149 4346 3424 4346 
L 5146 4346 
C 5395 4346 5645 4333 5888 4307 
L 5888 5152 
C 5690 5126 5466 5114 5126 5114 
L 3424 5114 
C 3072 5114 2829 5126 2637 5152 
L 2637 4307 
z
" transform="scale(0.015625)"/>
      <path id="HiraginoSans-W7-306e" d="M 3776 4038 
C 4032 4006 4186 3955 4371 3834 
C 4806 3546 5056 3066 5056 2496 
C 5056 1818 4723 1222 4173 922 
C 3872 762 3475 659 2906 614 
C 3155 282 3245 109 3379 -294 
C 3834 -218 4090 -154 4397 -32 
C 5421 371 6003 1274 6003 2438 
C 6003 3936 4979 4896 3373 4896 
C 2458 4896 1670 4576 1120 3974 
C 653 3469 403 2803 403 2074 
C 403 973 966 198 1760 198 
C 2310 198 2733 576 3091 1389 
C 3424 2131 3648 2982 3776 4038 
z
M 2842 4026 
C 2765 3341 2566 2534 2330 1965 
C 2125 1446 1926 1197 1741 1197 
C 1491 1197 1286 1587 1286 2067 
C 1286 2707 1587 3328 2074 3706 
C 2323 3898 2534 3987 2842 4026 
z
" transform="scale(0.015625)"/>
      <path id="HiraginoSans-W7-34" d="M 141 992 
C 352 1011 570 1018 954 1018 
L 2739 1018 
L 2739 634 
C 2739 301 2726 96 2688 -134 
L 3802 -134 
C 3763 102 3750 282 3750 621 
L 3750 1011 
L 3930 1011 
C 4173 1011 4384 998 4595 973 
L 4595 1958 
C 4358 1920 4160 1907 3930 1907 
L 3750 1907 
L 3750 3994 
C 3750 4461 3763 4698 3795 5069 
L 2714 5069 
C 2560 4826 2451 4691 2157 4333 
L 704 2592 
C 582 2451 397 2234 141 1946 
L 141 992 
z
M 2752 1901 
L 1280 1901 
L 2394 3270 
C 2560 3475 2688 3635 2784 3776 
C 2758 3424 2752 3270 2752 3078 
L 2752 1901 
z
" transform="scale(0.015625)"/>
      <path id="HiraginoSans-W7-30bb" d="M 1722 3699 
L 1190 3642 
C 890 3610 672 3590 544 3590 
C 506 3590 435 3590 352 3597 
L 448 2656 
C 723 2720 749 2726 1286 2790 
L 1722 2848 
L 1722 1414 
C 1722 858 1728 755 1786 550 
C 1862 275 2093 38 2362 -45 
C 2598 -122 3008 -160 3539 -160 
C 3891 -160 4346 -134 4870 -83 
C 5440 -26 5440 -26 5581 -26 
L 5542 992 
C 5229 896 5037 858 4685 806 
C 4346 762 3853 730 3552 730 
C 3334 730 3136 742 2989 768 
C 2810 800 2726 877 2701 1030 
C 2682 1133 2682 1133 2675 1549 
L 2675 2950 
L 4672 3206 
C 4506 2912 4390 2765 4173 2560 
C 3936 2336 3738 2189 3443 2022 
C 3789 1818 3904 1728 4211 1395 
C 4672 1754 4883 1952 5114 2234 
C 5382 2573 5600 2918 5798 3341 
C 5894 3546 5907 3565 5990 3667 
L 5440 4173 
C 5306 4109 5254 4096 4966 4064 
L 2682 3802 
L 2682 4422 
C 2682 4781 2694 4947 2726 5146 
L 1677 5146 
C 1715 4915 1722 4768 1722 4403 
L 1722 3699 
z
" transform="scale(0.015625)"/>
      <path id="HiraginoSans-W7-30eb" d="M 1376 5069 
C 1395 4902 1402 4781 1402 4422 
C 1402 4077 1389 3642 1376 3328 
C 1338 2650 1280 2278 1146 1856 
C 954 1235 678 826 186 390 
C 531 147 653 32 960 -358 
C 1376 64 1613 397 1837 864 
C 2176 1562 2298 2227 2342 3558 
C 2387 4819 2387 4819 2413 5011 
L 1376 5069 
z
M 3130 5114 
C 3149 4954 3155 4806 3155 4525 
C 3155 4467 3155 4410 3155 4346 
L 3130 749 
C 3123 442 3110 314 3066 134 
L 3539 -371 
C 3622 -320 3674 -301 3834 -243 
C 4486 0 4813 186 5184 506 
C 5638 902 5978 1395 6246 2061 
C 5894 2342 5792 2445 5530 2778 
C 5395 2323 5222 1978 4960 1645 
C 4717 1338 4480 1146 4083 928 
L 4115 4333 
C 4122 4768 4128 4845 4166 5107 
L 3130 5114 
z
" transform="scale(0.015625)"/>
      <path id="HiraginoSans-W7-3067" d="M 5434 2598 
C 5261 2976 5120 3194 4896 3462 
L 4352 3219 
C 4576 2925 4723 2688 4883 2330 
L 5434 2598 
z
M 6176 2950 
C 5971 3354 5882 3494 5645 3770 
L 5114 3539 
C 5331 3258 5472 3021 5632 2682 
L 6176 2950 
z
M 474 3571 
C 717 3616 1062 3661 1414 3686 
C 2842 3795 2867 3802 3507 3872 
C 2618 3360 2157 2656 2157 1792 
C 2157 1062 2502 506 3168 160 
C 3552 -45 4000 -154 4717 -237 
C 4832 -250 4858 -250 4941 -269 
L 5075 768 
C 4998 762 4954 762 4915 762 
C 4678 762 4262 826 3968 909 
C 3430 1062 3136 1408 3136 1882 
C 3136 2464 3571 3059 4294 3469 
C 4723 3712 5242 3859 5658 3859 
C 5715 3859 5734 3859 5811 3853 
L 5760 4832 
C 5645 4806 5606 4800 5043 4774 
C 3283 4698 2182 4646 1741 4614 
C 832 4557 794 4557 672 4557 
C 646 4557 570 4557 422 4563 
L 474 3571 
z
" transform="scale(0.015625)"/>
      <path id="HiraginoSans-W7-67" d="M 294 -659 
C 736 -1152 1229 -1344 2035 -1344 
C 2701 -1344 3258 -1197 3590 -928 
C 3974 -614 4147 -134 4147 640 
L 4147 2810 
C 4147 3174 4160 3366 4198 3654 
L 3155 3654 
L 3155 3443 
C 3155 3373 3155 3328 3162 3277 
C 2867 3590 2496 3731 1965 3731 
C 1549 3731 1203 3622 902 3405 
C 442 3066 205 2547 205 1882 
C 205 768 877 58 1926 58 
C 2464 58 2854 218 3162 563 
C 3136 128 3091 -58 2963 -243 
C 2803 -467 2470 -595 2048 -595 
C 1626 -595 1299 -442 1069 -141 
L 294 -659 
z
M 1229 1882 
C 1229 2534 1587 2963 2138 2963 
C 2707 2963 3123 2515 3123 1901 
C 3123 1498 2957 1171 2656 992 
C 2496 890 2285 832 2106 832 
C 1888 832 1651 928 1504 1075 
C 1318 1261 1229 1530 1229 1882 
z
" transform="scale(0.015625)"/>
      <path id="HiraginoSans-W7-ff09" d="M 1203 -589 
C 1555 -38 1709 243 1862 653 
C 2080 1216 2195 1824 2195 2432 
C 2195 3040 2080 3648 1862 4211 
C 1709 4621 1555 4902 1203 5453 
L 160 5453 
C 570 4890 742 4608 909 4198 
C 1126 3667 1248 3027 1248 2432 
C 1248 1837 1126 1197 909 666 
C 742 256 570 -26 160 -589 
L 1203 -589 
z
" transform="scale(0.015625)"/>
     </defs>
     <use xlink:href="#HiraginoSans-W7-2461"/>
     <use xlink:href="#HiraginoSans-W7-58ca" x="99.999985"/>
     <use xlink:href="#HiraginoSans-W7-308c" x="199.999969"/>
     <use xlink:href="#HiraginoSans-W7-306a" x="299.999954"/>
     <use xlink:href="#HiraginoSans-W7-3044" x="399.999939"/>
     <use xlink:href="#HiraginoSans-W7-8ef8" x="499.999924"/>
     <use xlink:href="#HiraginoSans-W7-20" x="599.999908"/>
     <use xlink:href="#HiraginoSans-W7-2500" x="633.299896"/>
     <use xlink:href="#HiraginoSans-W7-2500" x="733.299881"/>
     <use xlink:href="#HiraginoSans-W7-20" x="833.299866"/>
     <use xlink:href="#HiraginoSans-W7-5b89" x="866.599854"/>
     <use xlink:href="#HiraginoSans-W7-5b9a" x="966.599838"/>
     <use xlink:href="#HiraginoSans-W7-6027" x="1066.599823"/>
     <use xlink:href="#HiraginoSans-W7-30de" x="1166.599808"/>
     <use xlink:href="#HiraginoSans-W7-30c8" x="1266.599792"/>
     <use xlink:href="#HiraginoSans-W7-30ea" x="1366.599777"/>
     <use xlink:href="#HiraginoSans-W7-30af" x="1466.599762"/>
     <use xlink:href="#HiraginoSans-W7-30b9" x="1566.599747"/>
     <use xlink:href="#HiraginoSans-W7-ff08" x="1666.599731"/>
     <use xlink:href="#HiraginoSans-W7-48" x="1766.599716"/>
     <use xlink:href="#HiraginoSans-W7-69" x="1851.599701"/>
     <use xlink:href="#HiraginoSans-W7-46" x="1880.799698"/>
     <use xlink:href="#HiraginoSans-W7-69" x="1947.299683"/>
     <use xlink:href="#HiraginoSans-W7-2d" x="1976.49968"/>
     <use xlink:href="#HiraginoSans-W7-47" x="2020.699677"/>
     <use xlink:href="#HiraginoSans-W7-41" x="2102.09967"/>
     <use xlink:href="#HiraginoSans-W7-4e" x="2185.799652"/>
     <use xlink:href="#HiraginoSans-W7-20" x="2270.399643"/>
     <use xlink:href="#HiraginoSans-W7-304c" x="2303.699631"/>
     <use xlink:href="#HiraginoSans-W7-20" x="2403.699615"/>
     <use xlink:href="#HiraginoSans-W7-41" x="2436.999603"/>
     <use xlink:href="#HiraginoSans-W7-4e" x="2520.699585"/>
     <use xlink:href="#HiraginoSans-W7-45" x="2605.299576"/>
     <use xlink:href="#HiraginoSans-W7-20" x="2675.899567"/>
     <use xlink:href="#HiraginoSans-W7-5b9f" x="2709.199554"/>
     <use xlink:href="#HiraginoSans-W7-884c" x="2809.199539"/>
     <use xlink:href="#HiraginoSans-W7-306e" x="2909.199524"/>
     <use xlink:href="#HiraginoSans-W7-34" x="3009.199509"/>
     <use xlink:href="#HiraginoSans-W7-30bb" x="3083.2995"/>
     <use xlink:href="#HiraginoSans-W7-30eb" x="3183.299484"/>
     <use xlink:href="#HiraginoSans-W7-3067" x="3283.299469"/>
     <use xlink:href="#HiraginoSans-W7-20" x="3383.299454"/>
     <use xlink:href="#HiraginoSans-W7-63" x="3416.599442"/>
     <use xlink:href="#HiraginoSans-W7-6c" x="3481.399429"/>
     <use xlink:href="#HiraginoSans-W7-69" x="3510.49942"/>
     <use xlink:href="#HiraginoSans-W7-70" x="3539.699417"/>
     <use xlink:href="#HiraginoSans-W7-70" x="3613.399399"/>
     <use xlink:href="#HiraginoSans-W7-69" x="3687.09938"/>
     <use xlink:href="#HiraginoSans-W7-6e" x="3716.299377"/>
     <use xlink:href="#HiraginoSans-W7-67" x="3786.499359"/>
     <use xlink:href="#HiraginoSans-W7-ff09" x="3857.799347"/>
    </g>
   </g>
  </g>
 </g>
 <defs>
  <clipPath id="p4bfe775c28">
   <rect x="13.355781" y="30.38" width="502.2" height="232.848"/>
  </clipPath>
 </defs>
</svg>
